<?xml version="1.0" encoding="utf-8"?>
<!-- Generator: Adobe Illustrator 25.3.0, SVG Export Plug-In . SVG Version: 6.00 Build 0)  -->
<svg version="1.1" id="Calque_1" xmlns="http://www.w3.org/2000/svg" xmlns:xlink="http://www.w3.org/1999/xlink" x="0px" y="0px"
	 viewBox="0 0 100 63" style="enable-background:new 0 0 100 63;" xml:space="preserve">
<style type="text/css">
	.st0{fill:#C81517;}
	.st1{fill:#FFFFFF;}
</style>
<g>
	<path class="st0" d="M0,5.38h100V56H0V5.38z"/>
	<path class="st1" d="M43.55,0h2.69v17.77h-2.69V0z"/>
	<path class="st1" d="M43.55,42h2.69v21h-2.69V42z"/>
	<path class="st1" d="M2.49,19.6v6.78H1.94V19.6H2.49z"/>
	<path class="st1" d="M7.71,19.6h0.54l2.96,4.46c0.16,0.24,0.33,0.48,0.48,0.72c0.16,0.24,0.31,0.48,0.46,0.72h0.02
		c-0.01-0.27-0.02-0.55-0.02-0.83c0-0.28,0-0.56,0-0.83V19.6h0.54v6.78h-0.54l-2.86-4.26c-0.19-0.29-0.38-0.58-0.56-0.88
		c-0.17-0.3-0.34-0.6-0.49-0.9H8.21c0.02,0.67,0.03,1.34,0.03,2v4.05H7.71V19.6z"/>
	<path class="st1" d="M22.33,19.6v0.45H20v6.33h-0.56v-6.33h-2.29V19.6H22.33z"/>
	<path class="st1" d="M26.78,19.6h3.87v0.45h-3.31v2.62h3.03v0.45h-3.03v2.81h3.34v0.45h-3.9V19.6z"/>
	<path class="st1" d="M35.52,19.6h1.98c0.35,0,0.66,0.05,0.92,0.14c0.27,0.09,0.5,0.22,0.68,0.39s0.32,0.36,0.41,0.59
		s0.14,0.48,0.14,0.76c0,0.26-0.04,0.5-0.13,0.71c-0.08,0.21-0.19,0.39-0.32,0.56c-0.14,0.16-0.29,0.29-0.47,0.41
		c-0.18,0.11-0.37,0.19-0.56,0.24l1.89,2.98h-0.65l-1.76-2.88h-1.62v2.88h-0.51V19.6z M36.02,23.06h1.25c0.26,0,0.5-0.03,0.72-0.1
		c0.22-0.06,0.41-0.16,0.57-0.29c0.16-0.13,0.28-0.29,0.37-0.48c0.09-0.19,0.14-0.42,0.14-0.68c0-0.52-0.15-0.89-0.45-1.11
		c-0.3-0.23-0.75-0.34-1.33-0.34h-1.26V23.06z"/>
	<path class="st1" d="M45.16,19.6v6.78H44.6V19.6H45.16z"/>
	<path class="st1" d="M50.37,19.6h3.87v0.45h-3.31v2.62h3.03v0.45h-3.03v2.81h3.34v0.45h-3.9V19.6z"/>
	<path class="st1" d="M59.09,19.6h0.56v4.06c0,0.84,0.16,1.44,0.48,1.81c0.32,0.37,0.81,0.55,1.47,0.55c0.33,0,0.61-0.05,0.84-0.16
		c0.23-0.11,0.42-0.26,0.56-0.45c0.15-0.2,0.26-0.44,0.32-0.71c0.07-0.27,0.11-0.57,0.11-0.9V19.6h0.56v4.16
		c0,0.93-0.2,1.62-0.61,2.06c-0.41,0.44-1,0.66-1.77,0.66s-1.39-0.22-1.84-0.66c-0.45-0.44-0.68-1.14-0.68-2.11V19.6z"/>
	<path class="st1" d="M69.19,19.6h1.98c0.35,0,0.66,0.05,0.92,0.14c0.27,0.09,0.5,0.22,0.68,0.39s0.32,0.36,0.41,0.59
		c0.09,0.23,0.14,0.48,0.14,0.76c0,0.26-0.04,0.5-0.13,0.71c-0.08,0.21-0.19,0.39-0.32,0.56c-0.14,0.16-0.29,0.29-0.47,0.41
		c-0.18,0.11-0.37,0.19-0.56,0.24l1.89,2.98h-0.65l-1.76-2.88h-1.62v2.88h-0.51V19.6z M69.69,23.06h1.25c0.26,0,0.5-0.03,0.72-0.1
		c0.22-0.06,0.41-0.16,0.57-0.29c0.16-0.13,0.28-0.29,0.37-0.48c0.09-0.19,0.14-0.42,0.14-0.68c0-0.52-0.15-0.89-0.45-1.11
		c-0.3-0.23-0.75-0.34-1.33-0.34h-1.26V23.06z"/>
	<path class="st1" d="M51.53,59.07c0.24,0,0.46,0.03,0.67,0.1c0.2,0.07,0.38,0.17,0.53,0.31c0.15,0.13,0.27,0.3,0.35,0.51
		c0.09,0.2,0.13,0.44,0.13,0.71c0,0.33-0.05,0.6-0.15,0.83c-0.1,0.23-0.24,0.41-0.41,0.55c-0.17,0.14-0.37,0.24-0.59,0.3
		c-0.22,0.06-0.46,0.09-0.71,0.09h-0.91v-3.39H51.53z M50.92,62.05h0.37c0.17,0,0.34-0.02,0.51-0.05c0.16-0.04,0.31-0.11,0.44-0.21
		c0.13-0.1,0.23-0.24,0.31-0.42c0.08-0.18,0.12-0.4,0.12-0.68c0-0.19-0.03-0.37-0.09-0.52c-0.06-0.15-0.14-0.28-0.25-0.38
		c-0.11-0.1-0.24-0.18-0.39-0.24c-0.15-0.05-0.32-0.08-0.51-0.08h-0.51V62.05z"/>
	<path class="st1" d="M56.11,59.07h2.04v0.41h-1.55v1.02h1.41v0.4h-1.41v1.15h1.56v0.41h-2.06V59.07z"/>
	<path class="st1" d="M61.04,59.07h1.06c0.18,0,0.34,0.02,0.48,0.07c0.14,0.04,0.27,0.11,0.37,0.2c0.1,0.09,0.18,0.19,0.24,0.32
		c0.06,0.13,0.09,0.27,0.09,0.44c0,0.18-0.03,0.34-0.09,0.47c-0.06,0.13-0.15,0.24-0.26,0.32c-0.11,0.09-0.24,0.15-0.39,0.19
		c-0.15,0.04-0.32,0.06-0.5,0.06h-0.51v1.31h-0.49V59.07z M61.53,60.74h0.31c0.13,0,0.26-0.01,0.37-0.03
		c0.11-0.02,0.21-0.05,0.29-0.1c0.08-0.05,0.15-0.11,0.19-0.19c0.05-0.09,0.07-0.19,0.07-0.32c0-0.12-0.02-0.22-0.07-0.3
		c-0.04-0.08-0.1-0.15-0.17-0.2c-0.07-0.05-0.15-0.09-0.25-0.11s-0.19-0.03-0.28-0.03h-0.46V60.74z"/>
	<path class="st1" d="M66.04,59.07h0.49v2.03c0,0.36,0.07,0.62,0.2,0.78c0.13,0.15,0.35,0.23,0.64,0.23c0.29,0,0.5-0.09,0.63-0.26
		c0.14-0.17,0.2-0.4,0.2-0.68v-2.09h0.49v2.08c0,0.46-0.12,0.81-0.35,1.03c-0.24,0.22-0.56,0.33-0.98,0.33
		c-0.42,0-0.75-0.11-0.98-0.33c-0.23-0.22-0.35-0.58-0.35-1.06V59.07z"/>
	<path class="st1" d="M72.25,59.07v3.39h-0.49v-3.39H72.25z"/>
	<path class="st1" d="M76.28,59.02c0.16,0,0.32,0.01,0.48,0.04c0.15,0.03,0.31,0.07,0.46,0.15l-0.12,0.41
		c-0.15-0.07-0.29-0.12-0.42-0.15c-0.12-0.03-0.25-0.05-0.38-0.05c-0.2,0-0.37,0.04-0.48,0.13c-0.12,0.09-0.18,0.22-0.18,0.38
		c0,0.14,0.04,0.25,0.13,0.33c0.09,0.08,0.23,0.15,0.44,0.22l0.34,0.11c0.31,0.1,0.53,0.23,0.65,0.4c0.13,0.17,0.19,0.35,0.19,0.56
		c0,0.15-0.03,0.28-0.09,0.4c-0.06,0.12-0.14,0.22-0.25,0.31c-0.1,0.08-0.23,0.15-0.37,0.19c-0.14,0.04-0.3,0.06-0.47,0.06
		c-0.17,0-0.35-0.02-0.53-0.05c-0.18-0.03-0.35-0.08-0.53-0.17l0.12-0.4c0.15,0.08,0.3,0.13,0.45,0.17c0.15,0.04,0.3,0.05,0.46,0.05
		c0.19,0,0.36-0.04,0.49-0.13c0.14-0.09,0.2-0.22,0.2-0.4c0-0.06-0.01-0.12-0.03-0.18c-0.02-0.06-0.05-0.11-0.1-0.16
		c-0.05-0.05-0.11-0.1-0.19-0.14c-0.08-0.04-0.19-0.08-0.31-0.12l-0.34-0.11c-0.25-0.08-0.44-0.19-0.57-0.32
		c-0.13-0.14-0.2-0.32-0.2-0.55c0-0.3,0.1-0.53,0.29-0.71C75.63,59.11,75.91,59.02,76.28,59.02z"/>
	<path class="st1" d="M84.4,59.07h0.34v3.39h-0.46v-2.9l-0.61,0.28l-0.11-0.39L84.4,59.07z"/>
	<path class="st1" d="M88.57,62.51c-0.16,0-0.3-0.01-0.41-0.04c-0.11-0.02-0.21-0.05-0.29-0.09L87.98,62
		c0.08,0.03,0.15,0.06,0.24,0.09c0.09,0.03,0.2,0.04,0.34,0.04c0.32,0,0.55-0.1,0.7-0.3c0.15-0.2,0.24-0.49,0.25-0.87
		c-0.09,0.1-0.2,0.19-0.34,0.25c-0.14,0.06-0.28,0.09-0.43,0.09c-0.15,0-0.29-0.02-0.42-0.07c-0.13-0.05-0.24-0.12-0.34-0.22
		c-0.09-0.1-0.17-0.21-0.22-0.35c-0.05-0.14-0.08-0.29-0.08-0.47s0.03-0.34,0.09-0.48c0.06-0.15,0.14-0.27,0.24-0.37
		c0.1-0.1,0.23-0.18,0.37-0.24c0.14-0.06,0.3-0.09,0.47-0.09c0.15,0,0.3,0.03,0.44,0.09c0.14,0.06,0.26,0.15,0.37,0.28
		c0.11,0.13,0.19,0.3,0.26,0.5c0.06,0.2,0.1,0.45,0.1,0.73c0,0.35-0.04,0.64-0.11,0.88c-0.07,0.24-0.17,0.43-0.3,0.58
		c-0.13,0.15-0.28,0.25-0.45,0.32C88.96,62.48,88.77,62.51,88.57,62.51z M89.5,60.35c0-0.13-0.02-0.25-0.05-0.37
		c-0.03-0.11-0.08-0.22-0.14-0.31c-0.06-0.09-0.14-0.16-0.23-0.21c-0.09-0.05-0.19-0.08-0.3-0.08c-0.21,0-0.37,0.07-0.48,0.22
		c-0.11,0.14-0.17,0.32-0.17,0.55c0,0.25,0.06,0.45,0.18,0.58c0.12,0.13,0.29,0.19,0.51,0.19c0.15,0,0.28-0.03,0.38-0.1
		c0.1-0.07,0.18-0.15,0.24-0.25c0.02-0.04,0.04-0.08,0.04-0.11C89.5,60.43,89.5,60.39,89.5,60.35z"/>
	<path class="st1" d="M93.78,59.02c0.18,0,0.33,0.02,0.46,0.07c0.13,0.05,0.24,0.11,0.33,0.19c0.09,0.08,0.16,0.17,0.2,0.27
		c0.05,0.1,0.07,0.21,0.07,0.32c0,0.16-0.05,0.31-0.16,0.46c-0.1,0.14-0.27,0.26-0.48,0.34c0.25,0.1,0.43,0.22,0.55,0.36
		c0.12,0.13,0.18,0.31,0.18,0.52c0,0.16-0.03,0.3-0.09,0.41c-0.06,0.12-0.14,0.22-0.24,0.3c-0.1,0.08-0.22,0.15-0.36,0.19
		c-0.14,0.04-0.29,0.06-0.46,0.06c-0.16,0-0.31-0.02-0.46-0.06c-0.14-0.04-0.26-0.1-0.37-0.18c-0.1-0.08-0.19-0.17-0.25-0.29
		c-0.06-0.11-0.09-0.24-0.09-0.39c0-0.22,0.06-0.39,0.17-0.53c0.11-0.13,0.29-0.25,0.53-0.36c-0.18-0.08-0.33-0.19-0.43-0.32
		c-0.1-0.14-0.16-0.29-0.16-0.47c0-0.12,0.02-0.23,0.06-0.34s0.11-0.2,0.19-0.29c0.09-0.08,0.2-0.15,0.33-0.19
		C93.45,59.05,93.61,59.02,93.78,59.02z M93.18,59.89c0,0.08,0.02,0.16,0.05,0.22c0.04,0.06,0.08,0.12,0.13,0.17
		c0.06,0.05,0.12,0.09,0.2,0.13c0.08,0.04,0.15,0.07,0.24,0.1c0.08-0.03,0.16-0.07,0.23-0.11c0.07-0.04,0.13-0.08,0.19-0.13
		c0.05-0.05,0.09-0.11,0.12-0.17c0.03-0.06,0.05-0.14,0.05-0.22c0-0.08-0.02-0.14-0.05-0.2c-0.03-0.06-0.08-0.11-0.13-0.16
		c-0.05-0.05-0.12-0.08-0.19-0.1c-0.07-0.03-0.15-0.04-0.23-0.04c-0.1,0-0.19,0.01-0.26,0.04c-0.08,0.03-0.14,0.07-0.19,0.11
		c-0.05,0.05-0.09,0.1-0.11,0.17C93.19,59.76,93.18,59.82,93.18,59.89z M93.74,60.88c-0.19,0.06-0.34,0.15-0.46,0.25
		c-0.12,0.1-0.18,0.25-0.18,0.44c0,0.15,0.06,0.28,0.17,0.4c0.11,0.11,0.29,0.17,0.52,0.17c0.1,0,0.2-0.01,0.28-0.04
		c0.09-0.03,0.16-0.08,0.22-0.13c0.06-0.05,0.1-0.11,0.13-0.18c0.03-0.07,0.05-0.14,0.05-0.22c0-0.09-0.02-0.17-0.05-0.24
		c-0.04-0.08-0.09-0.14-0.15-0.19c-0.06-0.06-0.14-0.11-0.23-0.15C93.93,60.94,93.84,60.91,93.74,60.88z"/>
	<path class="st1" d="M98.54,59.41c-0.11,0-0.22,0.02-0.33,0.06c-0.1,0.04-0.22,0.11-0.34,0.2l-0.21-0.32
		c0.16-0.14,0.31-0.23,0.46-0.27c0.15-0.04,0.29-0.06,0.42-0.06c0.19,0,0.35,0.03,0.48,0.08c0.14,0.05,0.25,0.12,0.34,0.21
		c0.09,0.09,0.16,0.2,0.2,0.32c0.04,0.12,0.06,0.25,0.06,0.4c0,0.13-0.03,0.26-0.08,0.4c-0.05,0.13-0.13,0.27-0.23,0.41
		c-0.1,0.14-0.22,0.29-0.35,0.44c-0.14,0.15-0.3,0.31-0.47,0.48l-0.32,0.31h1.54v0.39h-2.04l-0.09-0.34l0.45-0.45
		c0.2-0.2,0.37-0.37,0.51-0.53c0.14-0.15,0.26-0.3,0.35-0.43s0.15-0.25,0.19-0.36c0.04-0.11,0.06-0.22,0.06-0.32
		c0-0.18-0.05-0.33-0.15-0.45C98.89,59.47,98.74,59.41,98.54,59.41z"/>
	<path class="st1" d="M5.77,29.88c0.7,0,1.32,0.07,1.86,0.21c0.54,0.14,1.02,0.32,1.45,0.53l-0.53,1.76
		c-0.47-0.23-0.92-0.4-1.36-0.52c-0.44-0.13-0.86-0.19-1.27-0.19c-0.55,0-0.98,0.11-1.29,0.33c-0.3,0.22-0.45,0.51-0.45,0.88
		c0,0.38,0.13,0.67,0.4,0.86c0.26,0.2,0.69,0.38,1.27,0.57l1.03,0.33c0.86,0.29,1.53,0.69,2.01,1.22c0.49,0.53,0.74,1.18,0.74,1.95
		c0,0.46-0.09,0.89-0.26,1.29c-0.17,0.4-0.43,0.75-0.77,1.05c-0.34,0.3-0.77,0.53-1.29,0.71c-0.52,0.17-1.12,0.26-1.81,0.26
		c-1.3,0-2.48-0.26-3.56-0.79l0.53-1.76c0.49,0.24,0.97,0.43,1.45,0.57c0.47,0.13,0.96,0.19,1.48,0.19c0.61,0,1.07-0.11,1.38-0.33
		c0.31-0.23,0.46-0.55,0.46-0.95c0-0.14-0.03-0.27-0.09-0.4c-0.05-0.14-0.14-0.26-0.28-0.38c-0.14-0.13-0.33-0.25-0.57-0.36
		c-0.23-0.13-0.53-0.25-0.91-0.36l-0.91-0.31c-0.4-0.14-0.77-0.3-1.1-0.48c-0.33-0.18-0.62-0.4-0.86-0.64
		c-0.23-0.24-0.41-0.52-0.55-0.84c-0.13-0.33-0.19-0.72-0.19-1.15c0-0.47,0.09-0.9,0.26-1.29c0.17-0.4,0.42-0.75,0.76-1.03
		c0.34-0.29,0.76-0.51,1.26-0.67C4.56,29.96,5.13,29.88,5.77,29.88z"/>
	<path class="st1" d="M16.84,39.29c0.53,0,0.97-0.05,1.34-0.14c0.37-0.09,0.68-0.22,0.95-0.38l0.48,1.72
		c-0.28,0.16-0.67,0.3-1.17,0.43c-0.5,0.13-1.12,0.19-1.84,0.19c-0.81,0-1.57-0.13-2.25-0.38c-0.69-0.26-1.28-0.64-1.79-1.12
		c-0.49-0.49-0.88-1.09-1.15-1.77c-0.28-0.7-0.41-1.49-0.41-2.36c0-0.85,0.13-1.62,0.4-2.31c0.28-0.69,0.65-1.28,1.14-1.76
		c0.49-0.49,1.09-0.87,1.79-1.14c0.7-0.26,1.48-0.4,2.34-0.4c0.73,0,1.34,0.07,1.81,0.21c0.48,0.14,0.87,0.29,1.17,0.45l-0.53,1.74
		c-0.3-0.16-0.63-0.29-1-0.4c-0.36-0.11-0.76-0.17-1.2-0.17c-0.47,0-0.91,0.07-1.32,0.21c-0.41,0.14-0.77,0.36-1.08,0.67
		c-0.31,0.3-0.56,0.69-0.74,1.17c-0.17,0.47-0.26,1.05-0.26,1.72c0,0.65,0.09,1.22,0.26,1.71c0.17,0.47,0.41,0.86,0.71,1.17
		c0.31,0.31,0.67,0.55,1.07,0.71C15.92,39.21,16.37,39.29,16.84,39.29z"/>
	<path class="st1" d="M24.15,36.68h2.75l-0.5-1.45c-0.16-0.45-0.31-0.9-0.45-1.34c-0.14-0.46-0.27-0.92-0.4-1.38h-0.03
		c-0.13,0.44-0.26,0.88-0.41,1.34c-0.15,0.45-0.3,0.91-0.46,1.38L24.15,36.68z M24.36,30.07h2.44l4.01,10.86h-2.49l-0.84-2.5h-3.85
		l-0.84,2.5h-2.46L24.36,30.07z"/>
	<path class="st1" d="M32.19,30.07h2.15l3.73,5.72c0.25,0.39,0.48,0.78,0.69,1.15c0.22,0.37,0.37,0.65,0.46,0.86h0.03
		c-0.07-0.75-0.1-1.49-0.1-2.22c0-0.75,0-1.5,0-2.26v-3.26h2.18v10.86h-2.15l-3.48-5.27c-0.15-0.23-0.3-0.47-0.45-0.71
		c-0.14-0.25-0.27-0.49-0.4-0.72c-0.13-0.23-0.24-0.44-0.34-0.62c-0.09-0.2-0.16-0.36-0.21-0.48h-0.03
		c0.06,0.79,0.09,1.56,0.09,2.29c0.01,0.72,0.02,1.46,0.02,2.22v3.29h-2.2V30.07z"/>
	<path class="st1" d="M47.5,30.07c0.84,0,1.6,0.11,2.29,0.33c0.69,0.22,1.28,0.55,1.77,0.98c0.49,0.44,0.87,0.98,1.14,1.64
		c0.28,0.64,0.41,1.4,0.41,2.26c0,0.99-0.16,1.84-0.48,2.55c-0.32,0.7-0.76,1.29-1.31,1.76c-0.55,0.46-1.2,0.8-1.94,1.02
		c-0.73,0.22-1.51,0.33-2.34,0.33h-3.32V30.07H47.5z M46.07,39.1h0.81c0.48,0,0.95-0.06,1.39-0.17c0.46-0.13,0.86-0.33,1.2-0.62
		c0.34-0.3,0.62-0.69,0.83-1.17c0.21-0.49,0.31-1.11,0.31-1.86c0-1.09-0.31-1.92-0.93-2.5c-0.62-0.59-1.45-0.88-2.49-0.88h-1.12
		V39.1z"/>
	<path class="st1" d="M57.32,30.07v10.86h-2.36V30.07H57.32z"/>
	<path class="st1" d="M59.72,30.07h2.15l3.73,5.72c0.25,0.39,0.48,0.78,0.69,1.15c0.22,0.37,0.37,0.65,0.46,0.86h0.03
		c-0.07-0.75-0.1-1.49-0.1-2.22c0-0.75,0-1.5,0-2.26v-3.26h2.18v10.86h-2.15l-3.48-5.27c-0.15-0.23-0.3-0.47-0.45-0.71
		c-0.14-0.25-0.27-0.49-0.4-0.72c-0.13-0.23-0.24-0.44-0.34-0.62c-0.09-0.2-0.16-0.36-0.21-0.48h-0.03
		c0.06,0.79,0.09,1.56,0.09,2.29c0.01,0.72,0.02,1.46,0.02,2.22v3.29h-2.2V30.07z"/>
	<path class="st1" d="M74.1,36.68h2.75l-0.5-1.45c-0.16-0.45-0.31-0.9-0.45-1.34c-0.14-0.46-0.27-0.92-0.4-1.38h-0.03
		c-0.13,0.44-0.26,0.88-0.41,1.34c-0.15,0.45-0.3,0.91-0.46,1.38L74.1,36.68z M74.31,30.07h2.44l4.01,10.86h-2.49l-0.84-2.5h-3.85
		l-0.84,2.5h-2.46L74.31,30.07z"/>
	<path class="st1" d="M82.52,30.07l1.81,5.55c0.06,0.18,0.13,0.41,0.21,0.67c0.08,0.25,0.16,0.52,0.24,0.79s0.15,0.55,0.22,0.83
		c0.08,0.28,0.14,0.52,0.19,0.74h0.05c0.09-0.44,0.22-0.94,0.4-1.5c0.18-0.57,0.35-1.09,0.5-1.55l1.82-5.53h2.43l-3.87,10.86h-2.56
		l-3.92-10.86H82.52z"/>
	<path class="st1" d="M91.66,30.07h7.05v1.83h-4.7v2.48h4.25v1.81h-4.25v2.91h4.75v1.83h-7.11V30.07z"/>
</g>
</svg>
