<svg id="Calque_1" data-name="Calque 1" xmlns="http://www.w3.org/2000/svg" viewBox="0 0 1927.99 398.37"><path d="M398.2,199.45c.43,109.89-89.32,199.39-199.48,198.92C89,397.9.22,310.44,0,198.53-.21,90.2,89.56-.22,199.85,0,308.71.22,399.43,90.62,398.2,199.45ZM198.69,384.61c104,2,184.82-84.82,186.6-180.85C387.31,95,299.61,12.32,199.16,12.84,96.75,13.38,13.44,93,12.88,198.85,12.34,299.7,92.71,385.09,198.69,384.61Z"/><path d="M531.74,102.12c3.47,1.21,6.1,2.08,8.7,3.06,9.95,3.74,18.06,9.69,23.73,18.93,11,17.9,7.59,49.79-7,63.89-9,8.68-20.34,11.89-32.13,13.63a201.78,201.78,0,0,1-26.35,2c-18.82.29-37.66,0-56.49.15-4.44,0-6.23-1.34-6.22-6q.15-90.73,0-181.47c0-4.29,1.46-6,5.81-5.88,23.15.44,46.31.27,69.43,1.17,13.2.51,26.2,2.77,36.36,12.83,22.2,22,17,59.61-10.35,74.63ZM447.2,150.59q0,18.49,0,37c0,6.74.06,6.78,6.58,6.8,7,0,14,.2,21,0,16.62-.56,33.29-.68,49.84-2.15,18.37-1.62,30.19-12.8,33.75-30.32A67.35,67.35,0,0,0,559.3,151c.57-16.53-6.79-30.28-20.64-35.63a92.24,92.24,0,0,0-27-6.37c-19.41-1.21-38.92-.84-58.39-1.31-4.49-.11-6.22,1.31-6.13,6C447.36,125.93,447.2,138.26,447.2,150.59Zm0-91c0,11.33,0,22.66,0,34,0,3.21.95,5.05,4.53,5,19.14-.4,38.39.49,57.38-1.38,24.17-2.38,38.34-12.43,40.44-35,1.46-15.83-4.32-31.72-21.41-36.94A91.66,91.66,0,0,0,505.17,21c-17.47-.66-35-.2-52.47-.38-4.09,0-5.63,1.42-5.56,5.54C447.32,37.28,447.2,48.45,447.21,59.61Z"/><path d="M763.89,87.27c0-1.92,0-3.84,0-5.75,0-21.49,0-43,0-64.46,0-5.25,1.62-6.65,6.7-5.58a5.93,5.93,0,0,1,3.25,2.95c.56,1.06.25,2.61.25,3.94q0,89.19,0,178.39c0,3.58.42,7.22-5.09,7-3.51-.12-5.24-1.25-5.18-5,.13-6.76,0-13.52,0-21.36-3.15,4.64-5.34,8.54-8.16,11.9-8.06,9.6-18.59,15-30.9,16.81-19.18,2.79-37.25.31-52.69-12.56A52.38,52.38,0,0,1,656,169.37c-8.38-25.4-9-50.85,2.46-75.46C671,67.14,694.3,58.28,721,61c17.36,1.74,31.52,9.18,40.25,25.07a9,9,0,0,0,1.28,1.43ZM660.42,134.14c1,7.57,1.41,15.24,3,22.69,6.36,30.29,30.88,46.54,60.64,40.54,18.54-3.74,34.56-21.16,37.58-42.67,1.56-11.09,1.55-22.52,1.1-33.75a56.52,56.52,0,0,0-13-34c-12.85-15.74-30.1-18.47-48.86-15.43a39.34,39.34,0,0,0-24.26,13.7C664.67,99.36,660.77,116,660.42,134.14Z"/><path d="M918.13,106.58q0-44.22,0-88.45c0-7.2.41-7.59,7.68-7.6,16.33,0,32.66-.34,49,.1,12.78.35,25.54,1.24,37.76,6,22.77,9,31,29.14,29.2,50.94-.93,11-4.56,21.08-11.77,29.73-9,10.77-20.85,16.32-34.4,17.07-19.26,1.07-38.59.9-57.9,1.19-7.54.12-7.57,0-7.57,7.47,0,24.66-.06,49.31,0,74,0,4.3-.68,6.89-5.94,6.82-5.07-.07-6.15-2.43-6.14-6.83C918.17,166.89,918.13,136.74,918.13,106.58Zm12-43.77c0,12.32.13,24.64-.07,37-.07,4.37,1.54,5.83,5.84,5.77,13.65-.2,27.33.39,41-.26a152.74,152.74,0,0,0,29.07-3.92c10.56-2.59,18.05-9.58,21.56-20.31,3.18-9.72,3.47-19.71,2.12-29.63-1.55-11.5-7.73-20.52-18.69-24.64a86,86,0,0,0-25-5.75c-16.6-.91-33.28-.25-49.93-.45-4.28,0-5.94,1.4-5.87,5.77C930.24,38.5,930.11,50.66,930.11,62.81Z"/><path d="M1299,135.71c-16,0-32,.13-48-.08-4.66-.07-6.24,1.65-6,6.14,1.31,20.9,7.31,39.56,26.41,50.94,22.94,13.67,53.07,3.89,64.26-20.28,2.64-5.71,3.74-6.06,8.46-3.31,2.56,1.49,2.94,3.22,1.77,5.8-8.55,18.82-23.64,29-43.62,31.66-12.14,1.65-24.26.55-35.59-5.05-16.39-8.1-24.78-22.3-29.2-39.14-5.6-21.29-5.26-42.59,2.21-63.45,13.2-36.85,56.9-50.66,88.62-27.77,15.17,10.94,21.52,27.09,23.69,45.11.56,4.62.66,9.29,1,13.93.34,4.13-1.55,5.58-5.6,5.54C1331.36,135.62,1315.2,135.7,1299,135.71Zm-6.34-9.32c14.32,0,28.65-.11,43,.06,4.16,0,5.95-1.53,5.39-5.58-.73-5.26-1-10.66-2.49-15.72-4.86-16.91-14.43-30-32.63-33.6-17.68-3.5-33.84.11-46.42,14.21-8.81,9.9-11.83,22.08-13.79,34.77-.69,4.53.44,6,5,5.93C1264.7,126.27,1278.7,126.39,1292.69,126.39Z"/><path d="M1618.89,135.71c-15.33,0-30.65,0-46,0-6.35,0-7.79-1.15-7,7.26,1.09,11.27,3.31,22,9.2,31.81,9.86,16.48,23.91,24.91,43.45,23.62,18.24-1.2,30.69-10.65,38.79-26.53,2.57-5,4.66-5.87,7.93-2.29,1.18,1.3,1.29,4.67.51,6.5-7.83,18.28-22.79,27.49-41.61,30.32-17,2.56-33.2-.3-47-11.69-9-7.38-14.5-17.14-17.59-27.93-6.9-24.16-7.32-48.49,2.73-71.93,8.67-20.23,24.21-32.54,46.62-34.09s41.71,4.89,54,25.19c8.41,13.94,11,29.48,10.41,45.62-.15,4.24-3,4.12-5.94,4.12Zm-4.58-9.32c14.32,0,28.65-.18,43,.1,5,.09,6.32-2.08,5.41-6.32-1.47-6.82-2.46-13.84-4.88-20.32-11.91-31.95-52.69-40.22-75.91-15.41-9.82,10.5-13.8,23.71-15.54,37.7-.49,3.92,2,4.27,5,4.26C1585.67,126.36,1600,126.39,1614.31,126.39Z"/><path d="M1120,135.71c-16.16,0-32.32.08-48.47-.05-3.82,0-5.5,1.17-5.18,5.2,1.38,17.77,6.36,33.81,19.88,46.56,15.06,14.2,44.58,15.12,59.52.71,5-4.87,8.82-11.14,12.73-17.06,1.58-2.39,2.12-4.84,5.79-2.95,3.4,1.73,5.38,3.27,3.33,7.62-7.39,15.76-19.79,25.59-36.33,29.47-19.71,4.62-38.43,2.13-54.41-11.71A48.26,48.26,0,0,1,1063,172.45c-10.51-30.18-11-60,6.29-87.95,12.27-19.85,31.77-25.79,54.11-23.52,32.3,3.29,48.79,28.83,50.7,58.54.22,3.49,0,7,.25,10.49.36,4.47-1.71,5.78-5.9,5.75C1152.34,135.62,1136.18,135.7,1120,135.71Zm-5-9.32q22,0,44,0c2.75,0,5.31-.27,4.58-4-1.47-7.49-2.23-15.26-4.82-22.36-11.66-32-52.14-40.38-75.82-15.73-10,10.42-13.9,23.63-15.68,37.6-.53,4.19,2.13,4.51,5.3,4.5C1086.77,126.36,1100.92,126.39,1115.08,126.39Z"/><path d="M1878.88,207.11c-13.6,0-25.13-2.37-35.6-9.2-11.33-7.39-16.79-18.18-18.84-31-.26-1.64,1.29-4.81,2.62-5.2,2.61-.76,6.08-1.38,7.51,2.65a121.82,121.82,0,0,0,4.78,12.57c5.1,10.56,13.48,17.25,25,19.57,14.5,2.92,28.35,1.93,41.21-6.53,13.13-8.64,18.75-33.64-2.6-43.18-9.8-4.38-20.6-6.47-30.74-10.18-10.6-3.87-21.65-7.24-31.23-13-17.27-10.32-18.41-36.88-3.14-50.14,19-16.48,51.25-17.59,70.93-2.07,8.31,6.55,12.7,15.67,14.4,26.08.35,2.18.91,4.68-2.31,5-2.83.23-6.24,1.29-7.66-2.67-.5-1.4-.71-2.91-1.09-4.36-3.62-13.91-12.57-22.09-26.74-24.17-10.15-1.49-20.25-1.27-30,2.78-14.09,5.87-21.43,20.78-14.37,31.61A40,40,0,0,0,1856,119c8.55,4.25,18.13,6.44,27.27,9.5,8,2.68,16.31,4.85,24.11,8.14,12.57,5.3,19.8,15.13,20.52,28.88s-4.61,24.7-16.25,32.28A57.92,57.92,0,0,1,1878.88,207.11Z"/><path d="M1482.55,60.57c28.53,0,46.63,13.85,50.65,35.91.4,2.19,2.07,5.07-1.91,6.07-4.51,1.13-7.64-.27-8.31-4.39-3.15-19.49-18.3-27.28-35-27.61-10.24-.21-19.86,1.21-28.62,7-11.15,7.31-15.63,23.27-3.78,34.13,7.2,6.6,15.72,10.45,24.88,13.28,12.4,3.83,25.06,7,37.08,11.82,25.11,10,25.23,38.58,13.12,53.36-8,9.75-19.14,14.48-31.26,16.23-12.27,1.77-24.55,1.16-36.4-3.45-16.77-6.52-25.39-19.21-28-36.48-.23-1.52.9-4.53,1.78-4.68,2.69-.47,6.2-1.65,7.66,2.36,1,2.66,1.66,5.43,2.72,8,6.1,15.1,17.1,23.65,33.48,25.4,11.06,1.18,21.72.11,31.49-5.22,9.2-5,14.62-12.74,14.93-23.72.32-11.18-5.34-18.32-14.92-22.59-5.59-2.5-11.63-4-17.46-6-12.16-4-24.45-7.74-36.45-12.21-13.08-4.86-20-14.78-20.14-28.73-.19-13.79,5.77-24.32,18-31.14A59.7,59.7,0,0,1,1482.55,60.57Z"/><path d="M1706.15,81.6c4.33-4.13,7.55-8.29,11.72-11,19.42-12.63,40.16-13.95,60.8-4,16.06,7.76,21.12,23.08,21.38,39.66.49,30.47.11,61,.21,91.45,0,4.05-1,6.18-5.59,6.11s-5.58-2.38-5.58-6.32c.05-30.15.12-60.3-.11-90.45a61.93,61.93,0,0,0-2.4-15.19c-3.19-12-11.83-18.07-23.56-20.21-12.44-2.27-24.74-1.53-36.07,4.3-15.55,8-20.14,22.62-20.48,38.55-.59,27.64-.25,55.3-.32,83,0,3,.35,6.14-4.26,6.32-4.14.15-6.07-1.06-6.05-5.6q.15-64.45,0-128.93c0-3.94,1.19-5.79,5.42-5.76s5,2.26,4.91,5.75C1706.07,73.16,1706.15,77.08,1706.15,81.6Z"/><path d="M981.24,297.54c7.9-11,19.08-15.16,31.81-14.72s23.25,5.41,28.63,18.54c3.21-3.55,5.67-6.66,8.52-9.35,13.27-12.52,37.75-12.24,49.48.49,5.84,6.33,8.3,14.2,8.42,22.46.35,23.32.16,46.64.18,70,0,2.49-.25,4.74-3.59,4.83-3.64.11-3.89-2.27-3.89-5,0-17.66.1-35.32,0-53a191,191,0,0,0-1.06-19.43c-1.75-16.1-12.63-22.88-28.61-21.26-15.75,1.6-24.14,10.66-25.67,28.17-1.18,13.39-.92,26.92-1.17,40.39-.14,8.33,0,16.66,0,25,0,2.67-.27,5-3.86,5.14-3.82.11-4.31-2.25-4.31-5.21,0-19.49.16-39-.1-58.47a128.29,128.29,0,0,0-2-19.32,17,17,0,0,0-8.45-12.4c-19.12-11-42.91.77-44.14,22.67-1.19,21.26-.86,42.59-1.2,63.89,0,1.83.44,3.9-.26,5.43s-2.57,3.14-3.93,3.13-2.82-1.88-3.88-3.22c-.49-.63-.16-1.93-.16-2.93V291.92c0-1-.34-2.32.16-2.93,1.09-1.33,2.62-3.17,4-3.17a5.23,5.23,0,0,1,3.84,3.18c.63,2.48.18,5.23.18,7.87Z"/><path d="M1656.1,373.09c0,5,0,8.78,0,12.57,0,2.9-1.53,4.75-4.3,3.94-1.53-.44-2.75-2.46-3.77-4-.46-.7-.11-2-.11-3v-130c0-.67,0-1.34,0-2-.06-2.79.48-5,4-5,3.36,0,4.2,2.1,4.2,4.95l0,39.5v13.32a13.82,13.82,0,0,0,2.15-1.91c11.2-17.07,27.5-21.2,46.3-17.45,19.29,3.86,29.58,17.27,33.62,35.53,3.69,16.73,3.23,33.47-4.29,49.39-8.62,18.27-26,24.73-43.8,23.21C1674.88,390.92,1671.42,388.4,1656.1,373.09Zm76-36.81c-.56-13.5-3-28.06-16.28-38.61-17-13.55-45.36-7.11-54,12.75-7.94,18.35-7.78,37,0,55.27,9.08,21.22,39.5,26.76,56,10.73C1728.75,365.88,1731.9,352.69,1732.05,336.28Z"/><path d="M1249.29,373.21q0,5.4,0,10.8c0,2.93.12,5.86-4.19,5.79s-4-3.18-4-6q0-47.74,0-95.48c0-12.33-.12-24.67.15-37,0-1.86,1.49-4.81,3-5.31,3.92-1.34,5.17,1.25,5.15,4.94-.07,14.83,0,29.67,0,44.5v9.6c2.77-3.72,4.54-6.49,6.7-8.91,18.42-20.68,55.08-17.33,68.76,6.79,12.49,22,11.79,45,1.69,67.71-5.17,11.64-15.07,18.06-27.34,20.48-16.19,3.19-31.22,1.17-43.32-11.42-2-2.09-3.66-4.52-5.48-6.8Zm76.62-35c-.19-9.76-1.45-19.49-6.31-28.3-7-12.75-17.88-19.32-32.58-19.16-14.49.16-25.41,6.5-31.63,19.6-8.37,17.64-8.49,35.94-.85,53.68,11.82,27.43,46,27,60.27,9.3C1323.1,363,1325.6,351.06,1325.91,338.17Z"/><path d="M435.06,318.11q0-32.75,0-65.48c0-6.57.51-7.14,7.18-7,16.14.25,32.33,0,48.41,1.17,12.4.9,23.63,5.51,31.22,16.42,14.45,20.73,3.08,53-21.48,58.43-11.39,2.53-23.43,2.22-35.19,3a129.25,129.25,0,0,1-15,0c-4.53-.25-6.16,1.41-6.11,6,.19,17.83.07,35.66.07,53.49,0,3-.09,5.66-4.29,5.78-4.79.13-4.85-2.88-4.84-6.27,0-11,0-22,0-33Zm31.72-64.8,0,.37c-5.66,0-11.33.16-17-.05-4-.15-5.69,1.21-5.65,5.42q.22,26,0,51.95c0,4.12,1.44,5.65,5.54,5.51,13.63-.45,27.29-.39,40.9-1.09,15.41-.8,24.2-8.24,27-21.93,4.66-22.76-5.05-36.43-27.9-38.87C482.08,253.81,474.41,253.73,466.78,253.31Z"/><path d="M1614,302.8c0-4.34,0-7.79,0-11.24,0-2.84-.36-5.93,4-6s4.13,3,4.13,5.85q0,26,0,52c0,13.65.1,27.31-.15,41,0,1.81-1.48,4.54-3,5.17-2.57,1.09-4.92-.2-5-3.62,0-3.8,0-7.59,0-12.72l-5.1,6.13c-16.66,19.89-61.38,18.84-73.7-12.51-7.89-20.09-7.89-40.4,1.31-60.16,14.35-30.81,60.49-31.16,75.66-5.17C1612.38,301.71,1612.73,301.85,1614,302.8Zm0,35.65c0-13.76-2.37-23-8.43-32.82-11.53-18.63-43.28-20.2-56.6-2.8-14.19,18.55-14.37,50.32-.4,69.93,11.84,16.64,41.76,17.21,54.32,1.12C1611.06,363.43,1614.28,351.51,1614,338.45Z"/><path d="M858.86,339.61H826.37c-6.92,0-6.74,0-6.35,6.82a49.31,49.31,0,0,0,9.59,26.38c12.45,17.4,41.32,17.09,53.39-.62,1.41-2.06,2.71-4.2,3.91-6.39s2-4.38,5.18-2.73,3.33,3.74,2,6.61a37.39,37.39,0,0,1-22.15,19.78c-16,5.66-31.51,4.18-44.63-7A40.93,40.93,0,0,1,816,365.79c-8.18-22.88-8.07-45.61,6-66.49,8.82-13.12,22.35-17.37,37.55-16.26,18.15,1.33,30.54,11,36.44,28,2.41,7,2.94,14.61,4.1,22,.71,4.57-1.29,6.69-6.18,6.6C882.19,339.47,870.52,339.61,858.86,339.61Zm-3.35-8.08h26c9.83,0,9.83,0,8.39-9.91-4-27.71-32.82-40.38-54.77-23.85-9,6.79-12.43,17-14.51,27.67-.83,4.3.23,6.23,4.91,6.14C835.52,331.39,845.52,331.52,855.51,331.53Z"/><path d="M1397.87,339.62h-34.5c-2.65,0-4.89.18-5.24,3.76-1.37,13.64,8.08,31.64,19.89,38.17,13.4,7.41,36.9,6,47.18-15.2,2.22-4.59,4.58-5.21,7.09-1.73.86,1.19.74,3.84,0,5.32-6.19,12.7-16.91,19.76-30.47,21.71-29.13,4.19-49-12.68-51.83-43.15-1.18-12.74-.6-25.24,4-37.37,12.69-33.73,49.47-33.84,67.52-19.3a39.21,39.21,0,0,1,13.65,21c1.76,6.87,2.09,14.11,2.89,21.21.47,4.08-1.67,5.61-5.66,5.57-11.5-.12-23,0-34.5,0Zm-4.09-8.1c10.33,0,20.65,0,31,0,2.1,0,4.45.45,4.39-3.07-.38-22.83-18-45.22-46.52-35.55-15.44,5.22-21.61,18.18-23.63,33.59-.56,4.25,1,5.17,4.81,5.1C1373.8,331.41,1383.79,331.52,1393.78,331.52Z"/><path d="M1207,295.16c3-3.48,5.76-7,8.94-10.08,1-1,3.23-.79,4.89-1.13.37,1.86,1.67,4.29.94,5.46a61.27,61.27,0,0,1-7.82,9.68c-2,2.1-1.71,3.74-.52,6.16,10.84,21.93,10.33,44,0,65.88-5.73,12.16-16.09,18.34-29,20.5-14.22,2.38-27.47.11-39.17-9-1-.74-3.79-.33-4.84.59a51.12,51.12,0,0,0-6.55,7.5c-1.66,2.13-3.26,3.32-5.77,1.23-2.77-2.29-1.58-4.21.33-6.27,2.26-2.45,4.22-5.18,6.6-7.5s2.66-4.41,1.1-7.47c-9.3-18.18-9.64-37.19-3.9-56.32,10.78-35.93,50.67-38.61,71.47-21.59C1204.61,293.51,1205.57,294.13,1207,295.16Zm6,39.67c-.37-11.15-2.64-24.45-13.79-34.74-14.45-13.33-39.12-12.37-51.08,2.27-14,17.16-15.81,47.6-3.77,66.28,7.94,12.32,19.47,17.67,34,16.74,13.4-.86,22.51-8.11,28.66-19.59C1211.61,357.05,1212.94,347.56,1212.93,334.83Z"/><path d="M629.33,335.32c-.74,13.73-2.2,24.39-7.16,34.29-8.67,17.33-25.32,23.54-42.21,22.74a56.86,56.86,0,0,1-16.47-3.61c-12-4.35-19.26-13.51-23.17-25.25-5.41-16.23-6-32.87-.52-49.08,8.24-24.57,23.92-31.4,43.33-31.6,21.2-.22,37.24,12.73,42.9,33.69C627.92,323.51,628.57,330.86,629.33,335.32ZM621,338c-1.27-7.17-1.92-14.52-3.93-21.48-4.81-16.61-17.84-25.91-35-25.8-16.68.11-29.9,10.13-34.5,26.6a86.07,86.07,0,0,0-2.83,16.18c-1.08,13.64,1.31,26.63,9.35,38,14.75,20.88,48,18.33,59.75-4.38C618.6,358,620.5,348.34,621,338Z"/><path d="M758.12,362.26c-.4,10.87-4.57,19.28-14,24.2-15.11,7.88-30.67,8.35-46.15,1.07-10.84-5.1-15.42-14.7-17.15-25.92-.18-1.18,1.09-3.65,1.77-3.68a9.32,9.32,0,0,1,5.27,1.54c.87.58,1,2.39,1.32,3.67,4.94,17.85,20.33,23.7,35.65,21.7a43,43,0,0,0,15.27-5.51c6.88-3.94,10-10.47,9.15-18.57S743.1,348.33,736.12,346c-7.4-2.52-15.22-3.84-22.52-6.59-7.86-3-16.31-5.72-22.75-10.8-11.31-8.93-10.19-27.8.94-37,13.64-11.26,37.3-11.75,51.31-1,6.4,4.91,9.82,11.67,11,19.49.21,1.32-1.16,4.12-1.8,4.12a13.63,13.63,0,0,1-5.63-1.78c-.52-.25-.61-1.48-.8-2.29-2.4-10.36-8.91-16.51-19.26-18.55-11.36-2.23-22.13-.88-30.78,7.41-7.13,6.82-6.51,17.73,2,22.81,8.31,5,17.73,8.1,26.76,11.78,6.92,2.81,14.25,4.71,21,7.9C754.26,345.59,757.75,353.35,758.12,362.26Z"/><path d="M1855.39,343.16c2.88-3,4.84-5.19,6.92-7.24,16-15.77,32.11-31.48,48.08-47.3,3.57-3.54,7.29-3.88,12.82-1.67-6.19,6.11-11.8,11.68-17.45,17.2s-11.39,11.21-17.24,16.66c-2.92,2.72-1.46,5.06.15,7.47,7,10.53,14.12,21,21.14,31.56q8.31,12.46,16.47,25.05a29,29,0,0,1,1.71,3.77c-4.61,2.12-7.79,1.34-10.45-2.69-11.19-17-22.6-33.78-33.71-50.78-2.44-3.74-4.39-4.93-8-1.43-6.07,5.93-12.49,11.51-18.46,17.53-1.31,1.32-1.89,3.86-1.93,5.86-.21,9.16-.1,18.32-.1,27.49,0,2.63-.05,5.15-3.75,5.12s-3.73-2.59-3.73-5.2q0-66.72,0-133.45c0-2.55-.12-5.27,3.55-5.38,4-.12,3.94,2.7,3.93,5.49q0,42.72,0,85.46Z"/><path d="M1191,114.06q0-41.22,0-82.45c0-3.21.08-6,4.52-6.09,3.94-.09,5.86,1.12,5.78,5.38-.17,9,.12,18-.11,27-.12,4.41,1.59,5.91,5.86,5.73,5.82-.24,11.66,0,17.49-.06,3.42,0,4.75,1.53,4.7,4.88s-1.19,5.11-4.63,5.11c-4.49,0-9,0-13.48,0-9.87,0-9.87,0-9.87,9.63q0,57,0,113.91c0,2.64.91,5.93-3.41,6.56-5,.73-6.76-.54-6.78-5.7-.06-12.65,0-25.31,0-38Z"/><path d="M1385.2,82.71c14-14.57,32-21.31,44.74-17.33-1.24,5.72-3.68,7.93-9.16,8.34-20.62,1.53-35.47,17.26-35.54,38-.11,28.66,0,57.32,0,86,0,5.49-1.17,6.39-6.47,6.09-3.13-.18-4.53-1.68-4.56-4.69,0-.83,0-1.66,0-2.5q0-63,0-125.95c0-2.88-.71-6.26,3.7-7,5.55-.91,7.3.47,7.36,6.13C1385.24,73.73,1385.2,77.7,1385.2,82.71Z"/><path d="M859.14,64.93C857,70.22,855,73.7,849.4,73.78,829.72,74.05,813.21,93,813.86,112c1,28.43.27,56.92.24,85.39,0,5.81-1.1,6.66-6.72,6.35-2.93-.16-4.27-1.44-4.25-4.3,0-.83,0-1.66,0-2.5q0-63.17,0-126.35c0-3.34-.43-6.86,4.68-7.08,4.37-.19,6.61,1.26,6.37,5.94-.2,3.76,0,7.55,0,12.71C826.52,67.83,841.32,63.47,859.14,64.93Z"/><path d="M647.87,64.68c-2.38,5.59-4.64,8.82-10.39,9.23-15.51,1.1-27.2,9-32.26,23.57-2.73,7.86-2.12,17-2.19,25.63-.21,25,0,50,.07,74.92,0,4.36-1.93,5.8-6.11,5.78s-5.06-2-5-5.6q.07-64.44,0-128.88c0-3.42.56-5.78,4.82-5.83,3.91,0,6.08,1.37,6.17,5.34s0,7.93,0,13.6C615.12,67.53,630,63.6,647.87,64.68Z"/><path d="M1488.12,326.45c0-18-.14-36,.08-54a90.16,90.16,0,0,1,1.78-15.33c1.22-6.58,5.31-10.91,12-11.58a192.8,192.8,0,0,1,21.9-.76c1.35,0,2.67,2.48,4,3.81-1.4,1.05-2.73,2.87-4.21,3-4.63.41-9.33,0-14,.26-8.79.47-12.23,4-12.54,12.85-.19,5.49,0,11-.09,16.48,0,2.9,1.27,4.3,4.22,4.26a75.66,75.66,0,0,1,11,.21,5.59,5.59,0,0,1,3.81,3.3c.73,2.75-1.38,3.73-3.9,3.74a86.75,86.75,0,0,1-9,0c-4.94-.47-6.24,1.74-6.21,6.39.17,24.32.08,48.64.08,73,0,4.16,0,8.33,0,12.49,0,3-.53,5.22-4.3,5.29-4,.06-4.7-2.17-4.69-5.43Q1488.16,355.44,1488.12,326.45Z"/><path d="M928.15,298.07c9.7-10,20.5-12.82,33.11-12.24-1.12,5-3.08,7.62-8,7.87-14.28.71-25,12.11-25,26.57-.09,21.14.06,42.29-.15,63.43,0,2-1.34,5.1-2.89,5.78-3.76,1.65-6-.45-6-5.11-.07-13.32,0-26.64,0-39.95,0-17.48,0-35,.07-52.44,0-1.87.38-4.25,1.56-5.44,1-1,3.57-1.1,5.08-.56,1.08.39,2,2.41,2.22,3.83C928.41,292.06,928.15,294.41,928.15,298.07Z"/><path d="M775,323.27q0-29,0-58c0-1.5-.44-3.29.22-4.42.82-1.41,2.59-3.17,3.93-3.15s3.64,1.92,3.8,3.2c.51,4.27.23,8.64.27,13,.13,13.21-1.5,11.46,11.84,11.61.83,0,1.67,0,2.5,0,2.62.13,5.74-.38,5.65,3.74-.08,3.74-2.95,3.39-5.43,3.46s-5,0-7.5,0c-7,0-7,0-7.06,6.88q0,40,0,80c0,1.34,0,2.67,0,4-.06,3,.41,6.32-4.28,6.22-4.4-.09-3.9-3.27-3.91-6.05,0-15.49,0-31,0-46.48Z"/><path d="M1458.92,317.9q0-33.24,0-66.48c0-3,0-6.18,4.23-5.58,1.38.2,2.87,1.8,3.69,3.14.61,1,.27,2.6.27,3.93q0,65,0,130c0,.83,0,1.66,0,2.5,0,2.73-1,4.41-4.09,4.42s-4-1.66-4-4.41c0-10.5,0-21,0-31.49Z"/><path d="M658.13,317.75q0,32.21,0,64.42c0,1.66.37,3.61-.36,4.9a5.72,5.72,0,0,1-4,2.51c-1.15.05-2.88-1.4-3.42-2.6-.63-1.4-.32-3.26-.32-4.92q0-64.18,0-128.35c0-.67,0-1.33,0-2,0-2.91-.07-6,4.12-6s4,3.23,4,6.08Q658.16,284.79,658.13,317.75Z"/><path d="M1769.07,299.25c9.56-11.12,20.61-14,33.62-13.47-.93,4.47-2.49,7.19-6.57,7.77-18.39,2.61-26.83,12.17-26.92,30.75-.09,19.31,0,38.62,0,57.94,0,1.49.39,3.25-.26,4.42s-2.48,3-3.65,2.88c-1.47-.13-3-1.75-4.11-3-.51-.58-.18-1.92-.18-2.92q0-46,0-91.9c0-1-.33-2.36.18-2.92,1.17-1.27,2.71-2.85,4.2-3,1.16-.08,3.31,1.71,3.54,2.95C1769.43,291.63,1769.07,294.67,1769.07,299.25Z"/><path d="M1813.87,338.11q0-22.71,0-45.43c0-1.49-.34-3.23.3-4.41s2.33-2.48,3.53-2.46a4.54,4.54,0,0,1,3.39,2.59c.59,2,.28,4.28.28,6.44q0,42.93,0,85.86c0,1.5,0,3,0,4.49.05,2.63-.56,4.61-3.8,4.57s-3.68-2.18-3.68-4.73V338.11Z"/><path d="M871.43,192.41c-.6,2.94-.66,6.15-2,8.68a8.11,8.11,0,0,1-5.55,3.89c-1.66.12-4.87-2.12-5-3.58a89.36,89.36,0,0,1-.25-18.06c.15-1.66,3.35-4.18,5.18-4.2s4.59,2.11,5.53,4C870.68,185.86,870.78,189.21,871.43,192.41Z"/><path d="M1822.6,255.08c-.3,1.92-.26,4.38-1.16,6.43-.62,1.4-2.56,3.09-3.88,3.07s-3.59-1.89-3.73-3.15a60.89,60.89,0,0,1-.17-13.29c.15-1.47,2.72-4,3.72-3.77,1.68.35,3.52,2.24,4.32,3.94S1822.32,252.52,1822.6,255.08Z"/><path d="M199.32,22.48c96.67-1.34,177.25,80,176.85,176.82-.41,98.1-79.26,177.13-177.19,176.84C100.14,375.85,21.71,296.93,22.2,196.9,22.67,102.22,101.91,21.26,199.32,22.48ZM104.1,276.78C96.89,285,89.92,293,82.88,300.89c-2.71,3.05-2.13,5.64.73,8.14,5.5,4.83,10.84,9.84,16.47,14.52,21.23,17.62,45.67,28.24,72.78,32.83a149,149,0,0,0,67.22-3.76c31.06-9,56.64-26.08,75.39-52.65,8.44-12,14.35-25.38,16.24-39.9,3.08-23.64-3-45.19-19.15-62.89-5.33-5.86-5.27-9.68-1.9-16.14,17.53-33.64,9.84-71.44-12.44-97-26.81-30.73-62.19-43.49-102-45.22-20.85-.9-41.06,3.43-60.59,10.62-14.4,5.3-27,13.72-38.5,23.72-6.08,5.27-6.4,8-1.76,14.54a157,157,0,0,0,12.49,15.54c6.18,6.72,7.36,6.54,14,0C136.18,89,154.27,82.3,173.42,78.89a104.82,104.82,0,0,1,44,1.42c21,5.23,39.82,13.6,53.32,31.59,12,15.92,14.79,32.62,6.29,50.88-2.25,4.83-3.68,5.18-8.56,3.06-3.95-1.71-5.23-3.74-3-8.05,4.83-9.5,4.9-19.27.8-29.22C261.38,116.83,252.35,109,241.91,103,220.12,90.35,196.63,88,172,92.31c-14.52,2.52-27.17,8.54-38.86,17.12-4.68,3.43-7.1,7.48-7.07,13.82.26,55,.15,110,.12,165,0,2.2-.34,4.39-.53,6.59l-1.61.88C117.78,289.74,111.49,283.78,104.1,276.78Z"/><path d="M1181.16,339.58c-3.37,2.67-5.29,5.34-7.28,5.39-1.55,0-4.09-3-4.59-5-.75-3.11,1.36-5.78,4.75-5.27C1176.08,335,1177.83,337.21,1181.16,339.58Z"/><path d="M201.1,321.89c-11.23-1.32-20-2.17-28.65-3.44-7.18-1.05-8.49-3.28-8.3-10.47.24-8.79,0-17.59,0-26.38q.15-16.71.52-33.42c.06-2.9,1.47-4.66,4.81-4.2a158.65,158.65,0,0,0,53.15-1.32c18.13-3.61,35.27-9.59,50.51-20.31,8.52-6,9.1-6,14.77,2.44,10.57,15.73,9.14,32.13.8,47.85-12.07,22.75-32.32,36-56.26,43.39C221.71,319.37,210.17,320.27,201.1,321.89Z"/><path d="M164,143.4c0-.67,0-1.33,0-2,0-12.14-.07-12.38,11.58-16,14.33-4.4,28.75-4.73,42.78,1.28a20.94,20.94,0,0,1,7.91,5.79c5,6.28,4.08,13.33-1.82,19.09-7,6.89-16.27,8.42-25.27,8.76-9.7.38-19.49-1.09-29.22-2-4-.37-6.32-2.58-6-7C164.2,148.73,164,146.06,164,143.4Z"/><path d="M243.86,194.73c-3.92,1.9-7.73,4.09-11.79,5.64-17.61,6.71-36,7.23-54.49,6.13a36,36,0,0,1-10.17-2.26c-4.66-1.73-3.33-6-3-9.49s3-2.67,5.38-2.44c8.23.78,16.54,2.47,24.7,1.94,10.13-.67,20.25-2.76,30.18-5.08,7.21-1.68,12.93.65,18.75,3.78Z"/></svg>