<svg id="Calque_1" data-name="Calque 1" xmlns="http://www.w3.org/2000/svg" viewBox="0 0 2940.55 1371"><defs><style>.cls-1{fill:#010101;}</style></defs><path class="cls-1" d="M1470.27,0C1175.61,0,936.74,238.87,936.74,533.54s238.87,533.53,533.53,533.53,533.54-238.87,533.54-533.53S1764.94,0,1470.27,0m166.81,82.13a478.24,478.24,0,0,1,127.34,72.58l-12.73,15.92A458.46,458.46,0,0,0,1635.81,107ZM1203.51,934.64A481.33,481.33,0,0,1,989.58,564.1a282.44,282.44,0,0,0,32.47,78.95,461.57,461.57,0,0,0,181.46,266.76Zm389-280.77V999.58a481.76,481.76,0,0,1-122.25,15.92h-4.45V720.72a482.71,482.71,0,0,1-88.5,24.83V1006A479.5,479.5,0,0,1,1250,962V745.55c-149.81-30.17-250.58-171.31-230.48-322.79,8.91-168.09,187.18-359.09,432.3-370.55a459,459,0,0,1,140.71,15.28V205a254.69,254.69,0,0,0-205.65-63.67c-291,23.56-288.41,252.76-288.41,269.32s0,175.72,152.8,206.28V362.27l127.33-40.75V613.76a381.62,381.62,0,0,0,88.5-33.11V292.87l127.34-40.75V485.79a467.67,467.67,0,0,0,42.65-55.39V615A308.76,308.76,0,0,1,1590,653.87m303.7,24.83a289.72,289.72,0,0,1-94.23,203.1l-5.73,5.73-3.82,3.18c-10.19,9.56-21,17.83-31.84,26.11l-11.46,8.27h-3.18l-15.92,10.19a482.49,482.49,0,0,1-57.3,31.84l-18.46,8.27-14.65,5.73h0V813c57.94-26.1,127.34-69.4,119.7-134.34-6.37-105.69-75.13-117.15-79.59-237.48C1673.37,336.8,1774,210.74,1798.8,181.46a485.51,485.51,0,0,1,84,103.14,245.09,245.09,0,0,0-63.67,152.16c16.56,121.61,77,133.7,74.5,241.94m35-19.1a223,223,0,0,0-6.36-46.48,467.62,467.62,0,0,0,7-79.58A460.42,460.42,0,0,0,1886,338.08L1899.4,319a481.3,481.3,0,0,1,29.28,354.62V660.24"/><path class="cls-1" d="M150.25,1324.87a12.54,12.54,0,0,0-8.25,3.25,73.25,73.25,0,0,1-50,18.5,63,63,0,0,1-65-61c0-.43,0-.86,0-1.29h0a62,62,0,0,1,62.18-61.82c.94,0,1.88,0,2.82.07a73.23,73.23,0,0,1,48.5,17.5h0a15.51,15.51,0,0,0,8.25,2.5,12.75,12.75,0,0,0,13.25-12,12.48,12.48,0,0,0-5.25-9.75A100,100,0,0,0,92,1199.62,87.76,87.76,0,0,0,.06,1283L0,1284.62v1.5a86.25,86.25,0,0,0,87.82,84.65c1.23,0,2.46-.07,3.68-.15a98,98,0,0,0,67.25-25,11.24,11.24,0,0,0,4.25-9.5,12.49,12.49,0,0,0-12.75-11.75"/><path class="cls-1" d="M300.51,1211.12a15.76,15.76,0,0,0-15.25-9.75h0a16,16,0,0,0-15.26,9.75l-71.75,139.25a12.84,12.84,0,0,0-1.75,6.25,11.76,11.76,0,0,0,12.23,11.25h0a13,13,0,0,0,12-6.75l17.5-35h92.5l17.5,33.5a13.76,13.76,0,0,0,12.51,8.25,12.26,12.26,0,0,0,12.5-11.75,14.22,14.22,0,0,0-1.75-6Zm19.25,92.25H248.25l35.26-70.75Z"/><path class="cls-1" d="M498.26,1202.12h-65a12.75,12.75,0,0,0-13,12.25v141.25a13,13,0,0,0,25,0v-50h46l49.5,55.5a14.74,14.74,0,0,0,11.75,5.75,13,13,0,0,0,13.25-12,12.49,12.49,0,0,0-4-8.75l-40.25-45.5a50,50,0,0,0,44.25-47.75h0a44.49,44.49,0,0,0-14.75-33.5,77.47,77.47,0,0,0-52.75-17.25m40.25,50h0c0,18-16.5,29.5-42,29.5h-50v-56.75h50c26.5,0,41.75,10.25,41.75,28"/><path class="cls-1" d="M731,1343.87H643V1213.12a13,13,0,0,0-25,0v141.5a12.75,12.75,0,0,0,13,12.25H732.26a11.5,11.5,0,1,0,3.38-22.75,11.26,11.26,0,0,0-3.38,0"/><path class="cls-1" d="M985.77,1201.12a12.75,12.75,0,0,0-13.25,12.23v59.27H877.26v-59.5a13,13,0,0,0-25,0v142.5a13,13,0,0,0,25,0v-60h96v60a13,13,0,0,0,25,0v-142.5a12.76,12.76,0,0,0-13-12.25"/><path class="cls-1" d="M1152.77,1211.12a15.74,15.74,0,0,0-15.25-9.75h0a16,16,0,0,0-15.5,9.75l-72.25,139.25a13,13,0,0,0-1.5,6.25,11.75,11.75,0,0,0,12.23,11.25h0a13,13,0,0,0,12.75-6.75l17.5-35h92.75l17.5,34.75a14,14,0,0,0,12.75,8.25,12.25,12.25,0,0,0,12.75-11.73v0a14,14,0,0,0-3.25-7.25Zm19.25,92.25h-71l35.25-70.75Z"/><path class="cls-1" d="M1417.77,1201.12a12.51,12.51,0,0,0-13,12v110.77l-101.25-116a15.73,15.73,0,0,0-12.5-6.25h-2.75a12.75,12.75,0,0,0-13,12v142.5a12.25,12.25,0,0,0,12.49,12h.26a12.5,12.5,0,0,0,13-12V1241.87l103.5,119.25a17.26,17.26,0,0,0,12.5,6.5h0a11.5,11.5,0,0,0,12.23-10.72c0-.26,0-.52,0-.78v-143a12.24,12.24,0,0,0-12.48-12h-.27"/><path class="cls-1" d="M1558.78,1272.87c-38.25-7.5-45.25-15-45.25-27.75h0c0-13,14.5-22.5,34.25-22.5a75,75,0,0,1,44,13.5,13.49,13.49,0,0,0,7.5,2,12.25,12.25,0,0,0,12.75-11.73v0a12,12,0,0,0-5.75-10,100,100,0,0,0-58-16.5c-35.25,0-61,19.5-61,46.25h0c0,30.5,25,41.5,61.5,50s43.25,14.75,43.25,27h0c0,14-14.75,25-36,25a82,82,0,0,1-53.5-18,12.54,12.54,0,0,0-8.25-2.75,12.26,12.26,0,0,0-12.75,11.74v.26a10.73,10.73,0,0,0,5,9.25,113.77,113.77,0,0,0,68.5,21.75c37.25,0,63.25-19.75,63.25-48h0c0-25-17.75-39.75-59.75-47.75"/><path class="cls-1" d="M1791.28,1344.12H1694v-50h84.75a11.76,11.76,0,0,0,12.25-11.23v0a12,12,0,0,0-12.25-11.25H1694v-47h96a11.76,11.76,0,0,0,12.25-11.23v0a11.76,11.76,0,0,0-12.23-11.25H1680.78a12.75,12.75,0,0,0-13,12.25v140.25a12.75,12.75,0,0,0,13,12.25h110.5a11.25,11.25,0,0,0,0-22.5h0"/><path class="cls-1" d="M1996.78,1201.12a12.5,12.5,0,0,0-13,12v110.77l-101.25-116a15.75,15.75,0,0,0-12.5-6.25h-2.75a12.75,12.75,0,0,0-13,12v142.5a12.25,12.25,0,0,0,12.49,12h.26a12.5,12.5,0,0,0,13-12V1241.87l103.5,119.25a17.24,17.24,0,0,0,12.5,6.5h0a11.5,11.5,0,0,0,12.23-10.72c0-.26,0-.52,0-.78v-143a12.24,12.24,0,0,0-12.48-12h-.27"/><path class="cls-1" d="M2448.29,1272.87c-38.25-7.5-45.25-15-45.25-27.75h0c0-13,14.5-22.5,34.25-22.5a75,75,0,0,1,43.75,13.25,13.07,13.07,0,0,0,7.5,2,12.25,12.25,0,0,0,12.75-11.73v0a12.24,12.24,0,0,0-5.75-10,100,100,0,0,0-57.75-16c-35.25,0-61,19.5-61,46.25h0c0,30.5,25,41.5,61.5,50s43,14.75,43,27h0c0,14-14.75,25-36,25a82,82,0,0,1-53.5-18,12.5,12.5,0,0,0-8-2.75,12.24,12.24,0,0,0-12.74,11.74,2.17,2.17,0,0,0,0,.26,10.76,10.76,0,0,0,5,9.25,113.94,113.94,0,0,0,68.5,21.75c37.25,0,63.25-19.75,63.25-48h0c0-25-18-39.75-59.75-47.75"/><path class="cls-1" d="M2728.05,1217.37a10.27,10.27,0,0,0,3.5-7.75,10,10,0,0,0-10.22-9.78l-.53,0a12.23,12.23,0,0,0-8.5,3.5l-13.25,12.5a98.27,98.27,0,0,0-56-16.5,88.25,88.25,0,0,0-92.92,83.31c0,.57-.06,1.13-.08,1.69v1.75a81,81,0,0,0,20.5,54.5l-12.75,12.25a10.27,10.27,0,0,0-3.5,7.75,10,10,0,0,0,10.22,9.78l.53,0a12.43,12.43,0,0,0,8.5-3.5l13.25-12.25a100,100,0,0,0,56,16.25,88.25,88.25,0,0,0,92.93-83.31c0-.57.06-1.13.08-1.69h0a80.78,80.78,0,0,0-20.75-54.25Zm-85.26,4.75a69.25,69.25,0,0,1,38.76,11.5l-92,88a59.54,59.54,0,0,1-12.5-37h0a62.51,62.51,0,0,1,62.92-62.09c.94,0,1.89,0,2.83.09m0,125a69,69,0,0,1-38.5-11.5l92-88.25a60.55,60.55,0,0,1,12.5,37v1.25a62.5,62.5,0,0,1-62.92,62.08c-1,0-1.89,0-2.84-.08"/><path class="cls-1" d="M2928.8,1201.12a12.5,12.5,0,0,0-13,12v110.77l-100-116.25a15.76,15.76,0,0,0-12.5-6.25h-5a12.74,12.74,0,0,0-13,12v142.5a12.24,12.24,0,0,0,12.48,12h.27a12.5,12.5,0,0,0,13-12v-114l104.75,119.25a17.24,17.24,0,0,0,12.5,6.5h0a11.5,11.5,0,0,0,12.23-10.72c0-.26,0-.52,0-.78v-143a12.25,12.25,0,0,0-12.49-12h-.26"/><path class="cls-1" d="M2273.29,1348.62l-15.5-13.75a116.66,116.66,0,0,0,11.25-18,10.8,10.8,0,0,0-10-16.27l-.53,0a12.26,12.26,0,0,0-11,6.75h0a93.06,93.06,0,0,1-6.75,11.75l-50-44.25c-17.5-15.5-25-21.25-25-34.5s8.5-19.75,25-19.75a50,50,0,0,1,22.75,5.75,11.73,11.73,0,0,0,5,1.25,10,10,0,0,0,10.25-9.74h0a9.75,9.75,0,0,0-5.5-6.75,65.47,65.47,0,0,0-33.75-10.5,43.75,43.75,0,0,0-47.82,39.26c-.09.91-.15,1.83-.18,2.74a47.73,47.73,0,0,0,14.25,33.25,55.24,55.24,0,0,0-27.25,44.75c0,22.75,16.25,50,62.5,50a82.81,82.81,0,0,0,50-17.5l15.75,14a12.24,12.24,0,0,0,8.75,3.25,11.25,11.25,0,0,0,11.74-10.74c0-.08,0-.17,0-.26a10.26,10.26,0,0,0-4-10.75m-50-12.5a60,60,0,0,1-35.75,11.5c-20.75,0-36-11.5-36-27.5a37,37,0,0,1,18.75-30.25Z"/></svg>