<svg id="Calque_1" data-name="Calque 1" xmlns="http://www.w3.org/2000/svg" viewBox="0 0 1308.09 353.37"><defs><style>.cls-1{fill:#010101;}</style></defs><path class="cls-1" d="M193.23,292.65H115.88c-34.32,0-41.46-13.06-41.46-47.33V219.86c0-29.37,7.18-47.33,45.38-47.33h79c21.54,0,33.94,4.9,33.94,21.87v6.53H305.2c.66-66.92-12.73-89.11-115.88-89.11H104.13C38.84,111.82,0,128.14,0,197.34l0,70.51c0,69.21,38.84,85.52,104.12,85.52H221c72.79,0,87.16-31.33,87.16-71.16V260H235.68C235.68,289.39,225.88,292.65,193.23,292.65Z"/><path class="cls-1" d="M577.09,250.89c0,30-10.71,41.77-40.44,41.77H464.84c-29.67,0-40.44-11.75-40.44-41.77V114.44H351.93l-.08,152.12c0,58.75,30.36,86.81,97,86.81h103.8c66.6,0,96.95-28.05,96.95-86.81V114.44H577.09Z"/><path class="cls-1" d="M958.16,231.61v-1c20.23-5.86,34.92-13.74,34.92-54.18,0-46.35-28.07-62-85.86-62H698.64V350.76h230.8c41.45,0,72.14-10.78,72.14-62.67C1001.58,252.5,989.83,235.52,958.16,231.61Zm-187-60.36H899.4c13.38,0,21.21,4.88,21.21,18.6,0,13.39-7.83,18.27-21.21,18.27H771.11ZM901,294H771.11V257.09H901c15.71,0,26.16,3.6,26.16,19.59C927.19,290.42,916.69,294,901,294Z"/><polygon class="cls-1" points="1117.82 293.97 1117.82 256.11 1294.1 256.11 1294.1 207.15 1117.82 207.15 1117.82 169.28 1303.88 169.28 1303.88 114.44 1045.35 114.44 1045.28 350.77 1308.09 350.77 1308.09 293.97 1117.82 293.97"/><polygon class="cls-1" points="577.09 0 424.57 0 424.57 152.55 577.12 152.55 577.09 0"/></svg>