<svg id="Calque_1" data-name="Calque 1" xmlns="http://www.w3.org/2000/svg" viewBox="0 0 885.23 885.05"><path d="M442.69,885.05C198.87,886.25-6.17,684.69.14,430.67,6,193.54,203-6.46,455.59.16,692.22,6.36,891,203,885.1,454.05,879.49,692.19,683.78,885.71,442.69,885.05ZM484.4,560.78c3.53-2.4,7-4.34,10-6.89,18.66-16,16.51-49.88-4.33-65.45-13.87-10.36-29.68-13.51-46.78-11.59-30.78,3.45-47.7,28.79-49.48,55.3-.2,2.92.76,4.28,3.9,4.18,5.33-.16,10.67-.05,16-.05,9.79,0,8.16.6,9.26-8,2.46-19.16,15.39-29.62,33.59-27.35,10.11,1.26,18.53,8.45,20.75,17.71,2.63,11-1.12,21.31-10,27.21-7,4.66-15,6.3-23.29,6.21-3.5,0-4.75,1.12-4.54,4.63.26,4.32.17,8.66,0,13-.09,3,1.05,4.14,4.1,4.13a96.68,96.68,0,0,1,14.45.68c11.15,1.68,21,5.5,25.24,17.41,6.68,18.95-3.14,36.91-22.68,41.44-20.32,4.71-36.25-5.37-40.56-25.76-.68-3.21-.92-6.52-1.45-10.42-5.61,0-11.22,0-16.84,0-12-.05-12.26,0-10.47,11.93,3.23,21.52,13.74,38,35,45.23,18.58,6.32,37.41,6,55.6-2.09,19.48-8.64,30.92-23.41,32-45,1-20.3-7.73-39-27.75-45.39A9.17,9.17,0,0,1,484.4,560.78ZM227,547.51c-4.09-5-7.13-9.58-11-13.25-20.17-18.89-64.56-18.25-82.23,15-13,24.4-13.51,50.07-3.22,75.35,11.44,28.14,39.62,40.53,68.14,31.22a55.16,55.16,0,0,0,29.17-22.16v20.87h14.85V476.15c-4,0-7.68.19-11.3,0s-4.5,1.39-4.44,4.72c.17,9.66.07,19.33.07,29C227,522.11,227,534.41,227,547.51ZM380.13,527l-.42-1.15c-4.48,0-9,.29-13.44-.07-4.68-.39-8.18,1.22-11.63,4.29-15.55,13.84-31.27,27.49-46.95,41.19-6,5.27-12.1,10.49-19.31,16.74V476.14a89.88,89.88,0,0,1-9.65-.06c-4.87-.58-6.17,1.33-6.16,6.12.14,52.82.07,105.65.06,158.47,0,3.66-.17,7.35.18,11,.11,1.16,1.56,3.05,2.51,3.12,4.25.34,8.55.15,13.42.15,0-11.84.77-23.2-.22-34.41-.93-10.57,2-18.07,11.16-23.67,5.13-3.12,9.41-7.63,14.27-11.69,1.5,2,2.53,3.27,3.49,4.6q22,30.32,44,60.63c1.16,1.59,2.56,4.08,4,4.18,6.16.47,12.37.2,19.56.2l-58.56-81.09C344.58,557.93,362.35,542.46,380.13,527Z"/><path d="M815.13,759.78c.17-20.59,14.87-35.2,35-34.79,20.73.42,35.13,14.85,35,35-.19,20.59-14.84,34.83-35.66,34.7C829.24,794.56,815,780,815.13,759.78Zm34.74,31c17.56.12,31-13.14,31.13-30.78s-13.12-31-30.86-31c-18,0-30.93,12.78-31,30.69S832.08,790.71,849.87,790.82Z"/><path d="M140,593.66c0-15.73,2.22-27.93,8.85-38.95,15.14-25.16,53-26.13,68.1-.94,14.21,23.66,13.92,48.69.36,72.72-8.2,14.52-22.38,19.38-38.42,18.39-15.89-1-26.42-10-32.81-24.11C141.78,611.24,139.85,601.13,140,593.66Z"/><path d="M836,739.54c6.55,0,12.18-.16,17.8.05,5.21.19,9.92,1.55,12,7.16s.24,10-4,13.2c1.08,3.49,2.38,6.63,3,9.89s.53,6.92.77,10.76c-2.64,1.35-4.33.65-4.62-2.77-.28-3.14-.06-6.4-.87-9.39-.53-2-2.31-4.8-3.88-5.05a72,72,0,0,0-14.39-.37c-.66,0-1.7,2.19-1.78,3.42-.23,4,0,8-.2,12,0,.94-1.34,1.8-2,2.7-.61-.84-1.73-1.68-1.74-2.53C836,765.8,836,753,836,739.54Zm12.33,19.16v-.08a51.48,51.48,0,0,0,6,0c4.9-.58,7.89-3.44,8-7.36.07-4.16-3-7.25-8-7.89a22.29,22.29,0,0,0-3.47-.1c-12.13.3-10.67-2.3-10.87,11.27,0,3.3,1.3,4.51,4.44,4.22C845.69,758.6,847,758.7,848.34,758.7Z"/></svg>