<svg id="Calque_1" data-name="Calque 1" xmlns="http://www.w3.org/2000/svg" viewBox="0 0 3012.97 888.26"><path d="M2905,681.58c-4.39-17-8.49-32.78-12.76-49.29-139.87,88-219.42,87.22-299.43-1.08-78-86.14-86.24-286.45-15.44-377.32,71.3-91.52,167.43-102,308-26.28V1H3013V681.58Zm-17.07-230.34c-1.54-29.8-1.56-45.09-3.23-60.19-7.09-64-33.43-114.75-105-117.39-70.91-2.62-106.16,43-112.72,108.39-4.23,42.21-10.28,91,6.4,126.63s59,78.26,93.15,81.13c33.28,2.81,76.28-35.59,103.84-66C2887.75,504.6,2884.68,466.83,2887.92,451.24Z"/><path d="M351.19,232.75V0H479.28V680.46c-46.22-3-103.95,36.5-120.79-46.41-4.67.53-11-.71-14,1.9-66,57.25-138.77,86.92-222.41,43.19C38.13,635.25-.51,561.26.18,467.42c.33-45.47-2.79-92.64,7.9-136C42.87,190.22,186.52,133.69,312,208,322.1,214,331.92,220.58,351.19,232.75Zm7.24,208.13-6.58-1.12c0-20.16,3.49-41.08-.67-60.34-11.82-54.75-36-102-100.19-106.11-66.22-4.22-106.51,33.33-114.78,95.39-6.47,48.51-11.28,103.94,6.29,146.81,14,34.17,61.25,71.49,96.87,74.93,30.71,3,71.63-34.89,97-64.24C353.59,506.29,351.75,469.9,358.43,440.88Z"/><path d="M1485.59,680.36H1363V237.79l-14.58-2.73c-10.41,21.13-20.81,42.25-31.09,63.1-111.89-14.58-132.66.16-147.78,111.84-6.11,45.07-7,91-8.42,136.54-1.35,42.7-.29,85.47-.29,133H1041V186.21c46,6.77,101.43-34.55,117.18,23.45l198.57-42.51V1.07h128.87Z"/><path d="M502.71,191.5c127.74-18.05,127.8-18.07,165.65,94,26.52,78.47,52.85,157,86,255.66C786.3,445.59,811.77,370.4,836.51,295c38.2-116.53,38-116.6,170.55-106.61C929.44,396,856.37,602.4,774.45,805.23c-33,81.73-108.33,98.39-235,70.53-1.52-25.94-3.11-53-4.93-84.14,26.38-2.73,50.84-2,73.33-8.24,58.31-16.27,86.26-71.08,64.91-129.64-47.62-130.65-97.43-260.51-146-390.8C518.11,239.74,510.92,216,502.71,191.5Z"/><path d="M2516.41,681.75H2383.64c0-100.23.45-198.36-.18-296.47-.36-56.11-5.95-110.3-81.07-112.36-59.19-1.61-103.17,43.73-105.33,115.19-2.88,95.78-.71,191.72-.71,292H2066.58V189.63h108.87l14.48,51.17c11.68-7.13,20.5-11.26,27.84-17.21,67.49-54.69,142-65.48,220-29,70.65,33,79,99,78.75,167.61C2516.16,465.85,2516.41,569.52,2516.41,681.75Z"/><path d="M1892.36,186h121.35V682.12c-46.94-5.94-104.12,33.71-121.78-53-20,14.28-36.67,28-55,39-130.4,78.88-261.33,8.58-264.58-143.54-2.37-110.88-.47-221.85-.47-336.71h123.55c0,71.83-.84,144.25.36,216.64.58,35.4,5.27,70.71,7.51,106.11,3,48.08,20.06,85.14,74.74,87.39,59.56,2.45,100-29.45,107.63-85.82,8.73-64.89,5.35-131.45,6.54-197.29C1893,274.68,1892.36,234.41,1892.36,186Z"/></svg>