<svg id="Calque_1" data-name="Calque 1" xmlns="http://www.w3.org/2000/svg" viewBox="0 0 1864.49 227.29"><defs><style>.cls-1{fill:#1d1d1b;}</style></defs><polygon class="cls-1" points="53.74 61.42 53.74 95.96 112.68 95.96 112.68 141.47 53.74 141.47 53.74 222.63 0 222.63 0 15.9 118.7 15.9 118.7 61.42 53.74 61.42 53.74 61.42"/><path class="cls-1" d="M187.68,105h.55c9.59-17.28,26-24.94,45.52-24.94h9.59v48c-6.86-3.84-13.44-4.65-21.11-4.65-27.7,0-34.55,18.36-34.55,42.5v56.75h-49.9V82h49.9v23Z"/><path class="cls-1" d="M314.9,28a28,28,0,1,1-28-28,28.09,28.09,0,0,1,28,28Zm-3,194.67H262V82h49.89V222.63Z"/><polygon class="cls-1" points="404.2 222.63 354.31 222.63 354.31 123.1 338.13 123.1 338.13 81.97 354.31 81.97 354.31 39.75 404.2 39.75 404.2 81.97 432.45 81.97 432.45 123.1 404.2 123.1 404.2 222.63 404.2 222.63"/><polygon class="cls-1" points="586.38 181.22 586.38 222.63 443.8 222.63 509.88 123.38 452.58 123.38 452.58 81.97 592.96 81.97 527.15 181.22 586.38 181.22 586.38 181.22"/><polygon class="cls-1" points="828.08 95.69 828.08 15.9 881.8 15.9 881.8 222.63 828.08 222.63 828.08 137.91 750.48 137.91 750.48 222.63 696.74 222.63 696.74 15.9 750.48 15.9 750.48 95.69 828.08 95.69 828.08 95.69"/><path class="cls-1" d="M1069.62,222.63h-49.9V207h-.56c-8.77,14-26,20.29-42.48,20.29-41.67,0-71-34.82-71-75.13s28.78-74.85,70.44-74.85c16.19,0,33.19,6,43.6,18.38V82h49.9V222.63Zm-112.4-70.19C957.22,170.26,969,184,989.3,184s32.07-13.71,32.07-31.53c0-17.28-11.79-31.8-32.07-31.8s-32.08,14.52-32.08,31.8Z"/><path class="cls-1" d="M1157.54,100.07h.56c11.51-17,25.5-22.76,45-22.76,37.84,0,52.92,23.86,52.92,58.41v86.91h-49.91V154.08c0-13.43,2.19-37-22.47-37-20.3,0-26.06,15.08-26.06,32.63v72.93h-49.89V82h49.89v18.1Z"/><path class="cls-1" d="M1377,118.17a61.86,61.86,0,0,0-26.87-6.86c-5.75,0-15.62,2.47-15.62,9.59,0,9.6,15.62,11,22.47,12.34,23.32,4.67,40.87,15.64,40.87,41.68,0,37-33.74,52.37-66.35,52.37a109.19,109.19,0,0,1-56.76-16.18l18.1-34.83c10.15,7.14,27.15,14.26,39.48,14.26,6.3,0,15.63-3,15.63-10.69,0-10.95-15.63-11.51-31.26-15.63s-31.26-11.78-31.26-37c0-34.56,31.26-49.91,62-49.91,15.91,0,31.8,2.47,46.34,9L1377,118.17Z"/><path class="cls-1" d="M1574,160.66H1469c0,20.3,10.69,31.26,31.26,31.26,10.69,0,18.37-3.56,23.85-12.89h48c-8,33.18-39.49,48.26-71.57,48.26-46.62,0-81.44-26.32-81.44-74.85,0-46.89,32.08-75.13,77.87-75.13,48.82,0,77,30.16,77,78.14v5.21Zm-46.33-28.78c-2.47-13.44-14.8-22.21-28.24-22.21-14.52,0-26.58,7.67-29.61,22.21Z"/><path class="cls-1" d="M1651.53,100.07h.55c11.52-17,25.49-22.76,45-22.76,37.85,0,52.93,23.86,52.93,58.41v86.91h-49.91V154.08c0-13.43,2.2-37-22.49-37-20.29,0-26,15.08-26,32.63v72.93h-49.89V82h49.89v18.1Z"/><path class="cls-1" d="M1807.61,94.45c.34,5-1,5.81-2.62,5.72-3.12-.16-13.52-4.34-18.2-9-9-8.94-8.49-15.08-7.29-18.38,1.39-3.81,9.54-1.72,14.23-1.39,4.85.35,12.63-1.22,15.26-9.54,3.46-11-1.57-13.35-7.28-20.29-2.46-3-4.47-8.26,2.59-12.49s17-3.48,23.25.7c6.56,4.37,4.63,11.22,2.26,14.9C1826.33,50,1819,54.75,1813,67.74c-4.69,10.05-5.66,22.55-5.36,26.71Zm14.92,6.07c-1.52-1.13-1.71-5.55-1.22-10.41.69-6.94,2.18-11.49,7.27-16,4.34-3.82,14.68-6.7,20.47-.7s-1.47,15.11-9,21.68c-8.15,7.11-15.42,6.94-17.5,5.38ZM1834,60.46s2.83-3.73,5.17-6.26c4.87-5.19,8.35-12.49,6.79-20-1.88-8.95-8.86-18-23.6-19.94-14.52-1.88-29.26,2-35.55,15.09-4,8.33,2.07,18,3.63,20,1.75,2.13,7.48,7.46,5.9,9-2,2-12.66-2.94-22,1.74-7.37,3.68-14.21,12-7.45,27.4s27,25.55,43.89,27.23c20.79,2.08,43.53-8.76,51-25.5,9.37-21-7.29-31-15.77-31.39-5.25-.2-12,2.61-12,2.61Z"/></svg>