<svg id="Calque_1" data-name="Calque 1" xmlns="http://www.w3.org/2000/svg" viewBox="0 0 2948.39 204.78"><path d="M0,.07H74.15c.43,5,1.14,9.63,1.17,14.3.13,22.05.31,44.11-.06,66.16C75.12,89,77.07,93,86.88,92.83c32.05-.57,64.11-.21,97.31-.21,2.27-31.55-1-62.31,1.89-92.62l5.21.25V196.11l-3.63.83c-.9-4-2.54-7.9-2.58-11.86-.24-23.69-.12-47.38-.13-71.07V98.92H159.46c-23.91,0-47.83.49-71.72-.23-10.17-.31-12.67,3.49-12.5,12.7.44,23.27.18,46.56.1,69.84,0,4.82-.49,9.63-.78,15.06H0ZM10.07,8.4,7.91,8.29V188.56h2.16Zm7.13,180,2-.12V8.65l-2,0Zm47.93.05,1.85-.07V8.48H65.13Zm-9.73.14,1.88.07V8.35l-1.88,0ZM29.65,8.54l-2.33-.12V188.23l2.33,0ZM45.5,188l2,.13V8.77l-2,0Zm-8.81-.22h1.65V9.31l-1.65,0Z"/><path d="M1517.92,196.39h-75.61V1h172.38l.44,3.35c-4,.57-7.9,1.59-11.86,1.62-24.33.15-48.66.36-73-.07-8.74-.16-12.78,2-12.53,11.56q.84,31.84,0,63.72c-.24,9.33,3.26,11.86,12.29,11.64,23.08-.55,46.17-.21,69.26-.15,4.38,0,8.76.38,13.14.58.16,1.24.31,2.47.47,3.71-3.75.66-7.49,1.86-11.24,1.89-23.92.17-47.84.47-71.74-.1-9.19-.22-12.37,2.6-12.18,11.77.49,23.27.15,46.56.15,69.85ZM1498,188.56l1.78-.07V8.43l-1.78,0Zm-10,0,1.91.07V8.32l-1.91,0ZM1509.63,8.49l-1.83.07V188.37h1.83Zm-56.89-.14-2.14-.07V188.56h2.14Zm28.51,0-2.33.13V188.34h2.33Zm-19.13.19-1.62,0V188l1.62,0Zm9.25.56-1.92.23V187.72h1.92Z"/><path d="M783.39,29.53H696.16V106h85.65l-.09,4.49H695.89V191.6H783l.2,4.14c-3.24.41-6.48,1.17-9.73,1.18-44.53.08-89.07-.24-133.59.27-10.09.12-12.48-3.32-12.4-12.67.38-49.43.24-98.87.1-148.3,0-7.22.17-12.35,10.15-12.25,45.77.43,91.54.16,137.31.26,2.87,0,5.74,1,8.62,1.52C783.57,27,783.48,28.27,783.39,29.53ZM644,188.82l1.86.07V32.24H644Zm9.89-156-1.73-.12V188.56h1.73Zm17.2-.11h-1.77V188.48l1.77,0ZM635.22,187.43l1.53-.09V33.75l-1.53,0Zm25.33,0,1.5-.17V33.75h-1.5Zm16.72-.05,1.56,0V33.72h-1.56Zm8.24.21,1.7-.38V33.34h-1.7Z"/><path d="M425,196.19V25.74c2.25-.51,4.54-1.51,6.81-1.48,28.82.36,57.84-1.13,86.4,1.78,48.38,4.93,80.63,40.61,80.43,85.21s-31.58,79.63-79.8,84.38C488.29,198.63,457.22,196.19,425,196.19ZM491.72,31.76v14c0,42-.17,84,.08,126,.12,19.86-4.62,20.5,20.87,19.13,47.71-2.56,83.76-41.52,78.91-85.44C586.05,55.25,543.47,23.17,491.72,31.76ZM440.79,188.61l1.66-.18V32.49l-1.66,0ZM450.87,32.23l-1.52.15V188.92l1.52,0Zm15,156.71,1.5-.16V32.29l-1.5,0ZM476.1,32.37l-2,.16V188.76l2,0ZM434.26,34.1l-1.56-.32V187.54h1.56Zm25.35-.34L458,33.61V187.46h1.59Zm24.52-.45h-1.54v154.4h1.54Z"/><path d="M294.68,24.2c.33,6.31.82,11.52.82,16.73q.11,69.24.06,138.47c0,14.8,2.06,16.6,17.3,15.88,43.07-2,72.08-32.7,73.88-79.49,1-26.52.28-53.09.43-79.64,0-3.75.62-7.49,1.22-14.26,3,3.73,4.58,4.82,4.56,5.9-.43,35.06,1.47,70.38-2.24,105.12-4.39,41.18-40.42,68.63-82,67.51-42.85-1.16-76.39-30.35-79.58-72.22-2.41-31.69-1.66-63.63-1.68-95.46,0-2.85,4.55-8.07,7.12-8.16C254.22,23.89,274,24.2,294.68,24.2Zm-6.61,8.19-2,.16V188.69l2,0Zm-8.18-.14L278,32.17V186.09l1.85,0ZM263,32.79l-1.73-.08V175.42l1.73,0Zm-17.49-.33-1.66.08v123l1.66,0ZM269,180.1l1.49-.18V33.79H269ZM253.67,33.71l-1.59,0V165.32h1.59Zm-18.73,96.16h1.68v-97l-1.68,0Z"/><path d="M2001,36.46c24.76,0,49-.36,73.28.35,4,.12,8.54,4.25,11.7,7.59,18,19,35.59,38.35,53.33,57.58l3.58-.55V37.22l4.51.16V196.66l-2.66,2L2008.5,51.82l-3.27.49V196l-4.28,0Zm11.28,5.72-2.5,2.45,129.92,140.21,2.49-2.29Zm10.92.21-2.63,2,118.86,128.4,2.28-2.08Zm10.85-.07-2.55,2.31L2140,162.08l2.41-2.19Zm10.44-.09-2.56,2.31,97.92,105.83,2.52-2.28Zm95.08,96.06,2.28-2.09-86.71-93.77-2.32,2.12Zm.59-10.65,2.38-2.18-76.9-83.27-2.44,2.24Zm-.34-11.82,2.27-2.39L2076.4,42.57l-2.26,2.07Z"/><path d="M2693.16,129.73v66.65h-60.78V37.93c1.47-.41,3.35-1.37,5.24-1.37,26.79-.11,53.61-.79,80.38.06,35.67,1.14,57.75,26.91,51,58.49-4.06,19-16,31-34.93,35.56-7.92,1.9-16.22,2.25-26.8,3.62l71.27,60.41c-7.77.46-7.78.47-29.22-17.55-8.8-7.4-17.54-14.86-26.33-22.28C2714,147.3,2705,139.74,2693.16,129.73Zm.11-44.71h0V98.49c0,31.73,0,31.73,32.68,28.51,20.5-2,35.07-16.37,37.94-37.36,2.59-19-8.73-38.74-27.51-44.14-10.4-3-21.92-2.07-32.91-3.18-7.44-.75-10.48,2.17-10.25,9.63C2693.53,63,2693.27,74,2693.27,85ZM2655.51,45l-1.7.14V188.33h1.7Zm-9.77,143.53,1.7,0V44.81l-1.7,0Zm-5.46-143.64-1.73-.16V188.51l1.73,0Zm23.09,1.66-1.29-.45V186.81h1.29Zm5.76,141,1.54-.1V45.94h-1.54ZM2679.1,46l-1.59-.14V187.47h1.59Zm7.21-.27h-1.46v142h1.46Z"/><path d="M1902.71,134.25l71.17,60.16-3.16,3.86-81.49-67.86v65.76h-61.52V38.71c34.23,0,68-1.84,101.34.65,22,1.64,36.65,23.21,36.62,45.71,0,22.75-14.49,41-36.88,45.77C1921.19,132.46,1913.34,132.9,1902.71,134.25Zm6.62-91.89a36.17,36.17,0,0,1-6.16,0c-11.87-2.09-14.83,3.54-14.24,14.32.74,13.81.17,27.69.17,41.55,0,31.77,0,31.77,32.24,28.82,20-1.83,35.11-16.21,37.82-35.88C1963.2,61.89,1943.27,42.39,1909.33,42.36Zm-52.48,146.1,1.73.15V44.8h-1.73ZM1851.34,44.8h-1.78V188.54l1.78,0Zm-9.45,143.72h1.69V44.8h-1.69Zm-5.77-143.67-1.73-.16V188.51l1.73,0Zm30.6.66h-1.52v142.3h1.52Zm7.91.55-1.38-.18V187.42h1.38Zm5.67,141.3,1.25-.08V46h-1.25Z"/><path d="M1172.28,117.14q0-34.92,0-69.83c0-5.25-.84-11.1,7.6-10.9,27.17.66,54.55-.8,81.45,2.15,44.94,4.91,74.08,39.9,72.18,82.9-1.84,41.48-34.83,73.12-79.71,75.15-23.86,1.08-47.81.07-71.71.48-7.7.13-10-2.94-9.92-10.12C1172.45,163.7,1172.29,140.42,1172.28,117.14Zm63-74.18V190.78c31.1,2.73,57.84-3.89,77.17-29.18A72.58,72.58,0,0,0,1316,77.7C1297.29,48.61,1269.25,40,1235.24,43Zm-56.43,145.53,1.68.15V44.83l-1.68,0Zm33.78-143.64-1.74-.16V188.51l1.74,0ZM1218,188.48h1.78V44.82H1218Zm7.41,0h1.74V44.78l-1.74,0ZM1204.21,46h-.9V186.78h.9Zm-9.07,141.61h1.11V45.68h-1.11Zm-6.3-141.75-1.34,0V187.18h1.34Z"/><path d="M2948.39,41.87h-82v70.24h79.69c.07,1.33.13,2.65.19,4-4.17.35-8.33,1-12.49,1-19,.11-37.91.3-56.85,0-8.13-.15-12,2-11.69,11,.6,17.53.6,35.11,0,52.64-.3,8.84,3.13,11.24,11.47,11.06,19.35-.43,38.72-.18,58.08-.09,4.32,0,8.64.49,13,.75l-.05,3h-143.2V37.86h143.86ZM2826.19,188.6l1.47-.21V44.83l-1.47,0ZM2836,44.94l-1.77-.1V188.49H2836Zm7.33.15H2842V188.26l1.35,0Zm5.69,143.4,1.68.15V44.83l-1.68,0ZM2812.65,46l-1.54-.11V187.44h1.54Zm5.86,141,1.39.36V46.41h-1.39Zm40-140.93h-1V186.88h1Z"/><path d="M1148.75,196.88c-23.92,0-44.85.36-65.75-.38-3.23-.12-7.17-4.77-9.26-8.23-16.29-27-32.19-54.16-48.25-81.26-2-3.45-4.31-6.77-7.71-12.09l-57.15,96.91H1056c0,1.34-.07,2.67-.1,4H951.52L1049.62,29Zm-22.42-6.25,2.78-1.62L1047,50.54l-2.64,1.54ZM1051.45,43.78l-2.28,1.65,85.17,143.86,2.27-1.35Zm57.09,147.16,2.78-2.13L1038.53,66l-2.7,1.58Q1072.19,129.24,1108.54,190.94Zm-66-132.51-2.38,1.5,76.83,130,2.74-1.61Zm-8.65,15.13-2.41,1.49,67.83,115.28,2.73-1.6Q1067.95,131.15,1033.88,73.56Zm57,117,2.25-1.9q-31.8-54.08-63.62-108.14l-2.59,1.53Zm-9.09-.22,2.62-1.53L1024.72,87.75l-2.59,1.51Z"/><path d="M808.11,36.45c23.69,0,44.24-.42,64.74.41,3.6.14,8.07,4.91,10.31,8.63,18.34,30.41,36.26,61.08,55.6,93.86l61.41-103.77,4.84,3L907.25,204.78C873.56,147.59,841.61,93.34,808.11,36.45ZM914.48,176.5l2.9-1.67L840,42.83l-2.81,1.62ZM849.07,42.67l-3,1.71q36.31,61.92,72.62,123.85l3-1.72Zm-17.67.8-2.35,1.76q40.51,69.08,81,138.15l2.6-1.51Zm-9.1-.56-2.44,1.88,82.3,139.4,2.3-1.35Zm100.55,117.6,2.83-1.44L857.74,42.52,855.11,44Zm4.37-7.69,2.71-1.55L867.06,43.11l-2.66,1.52ZM893.15,73.71l-2.32,1.13,40.86,70.47,2.54-1.47Z"/><path d="M1644.73,36.86h61.79c.23,4.62.63,8.92.63,13.23,0,44.07.38,88.14-.22,132.2-.15,10.7,4.1,13.16,13.62,13.14,36-.05,66.44-25.92,69.39-61.75,2.24-27.19,1.7-54.59,2.35-81.9.11-4.72,0-9.44,0-14.15l3.26-.39c.85,2.27,2.45,4.55,2.42,6.82-.3,29.35.69,58.82-1.68,88-3.3,40.57-34.38,67.55-75,68.06-39.54.49-72-25.52-76-65.7C1642.26,102.61,1644.73,70.25,1644.73,36.86Zm53.35,151.64h1.68V44.81l-1.68,0Zm-7.54-2.64,1.73.16V44.74h-1.73ZM1668,44.82h-1.77V168.27H1668Zm-9.29,113.38,1.75-.22V44.4l-1.75,0Zm23.3,22.15,1.86,0V45.54l-1.86,0Zm-5.59-134.46h-1.59V175.19h1.59Zm-26.07,86,1.57.21V45.73h-1.57Z"/><path d="M2314.47,195.93v-154h-47.2l.1-5c52.14-1.21,104.3-.33,156.45-.52.13,1.54.26,3.07.4,4.61-5.44.43-10.87,1.22-16.31,1.25-31.39.14-31.39.08-31.39,31.52v122.1Zm9.1-151.1-1.68-.15V188.5l1.68,0Zm7.77,0h-1.78V188.5h1.78Zm5.15,143.66,1.61-.09V44.81l-1.61,0Zm10-143.84-1.73.17V188.67l1.73,0Zm21.44,143,1.63-.47V45.6H2368Zm-7.55-.22,1.49-.12V45.92h-1.49Zm-6.11-141.76-1.61.33V187.76h1.61Z"/><path d="M2602.9,37.31c0,6.37.12,12.74,0,19.11-.57,25.27.32,50.7-2.2,75.78-4.13,41.09-34.57,67.51-75.17,67.94-39.94.43-72.06-25.9-76-67.12-3-31.42-.6-63.35-.6-95.83h62.62V51.44c0,43.67.28,87.35-.22,131-.11,9.74,3.17,12.84,12.63,13,35.23.56,66.83-24.78,70-59.62,2.58-28.37,1.76-57,2.58-85.56.12-4.43.89-8.86,1.36-13.28ZM2502.44,188.73l1.76-.06V44.6l-1.76,0Zm-5.72-144.32-1.86.15V186.35h1.86Zm-26,123.54,1.65-.22V45.24h-1.65Zm-7.85-10,1.48.13V44.84l-1.48,0Zm-5.56-113.29-1.66-.11v92.56l1.66,0Zm31.33,1.26-1.59-.1V180.12h1.59Zm-10,129.17h1.56V45.9h-1.56Z"/><path d="M2179.39,37.05h61.51V196.78c-18.74,0-37.47.19-56.19-.3-1.82,0-5.08-4.23-5.09-6.51C2179.33,139.5,2179.39,89,2179.39,37.05ZM2210,188.64l1.51-.27V44.66l-1.51,0Zm7.8-.5h1.28v-143l-1.28,0Zm9.59-143.23h-1.75v143.5h1.75Zm7.67.59-1.64-.21V188.12l1.64,0ZM2204,46l-1.59-.18v141.7H2204Zm-15.95.17-1.33.22v141.1h1.33Zm8-.46h-1.25v142h1.25Z"/></svg>