<svg id="Calque_1" data-name="Calque 1" xmlns="http://www.w3.org/2000/svg" viewBox="0 0 767.09 387.98"><path d="M108.05,238.81c-7.45-14.1-19.9-21.4-35.81-23-17.06-1.73-31.31,2.78-41.2,17.63-.06.1-.4,0-.88,0V219.14H0V388H31.74V328.2c12.85,16.31,29,20.09,47.4,15.73C95.07,340.14,105,329,111.29,314.54c7.4-17,8.39-34.8,4.8-52.7A86.45,86.45,0,0,0,108.05,238.81ZM84.69,287.38c-.64,2.73-1.41,8.19-3.23,13.28-3.95,11-11.58,16.36-22.39,16.57-11.42.21-20.15-5.1-24.47-15.61-5.69-13.83-5.59-27.93-.16-41.79,4.1-10.47,13.35-16.28,23.91-15.89,11.58.42,19.07,6,23.27,17.21C84.48,268.76,84.92,276.65,84.69,287.38Z"/><path d="M608.9,217.27a86.15,86.15,0,0,0-22.54-1.89c-22.86,1.08-39.56,12.18-48.56,33.29-8.81,20.68-8.28,42-1,63,5.59,16,17.08,26.27,33.46,30.92a81.28,81.28,0,0,0,32.92,2.27c20.42-2.63,37.66-17.79,42.4-37.52a10.88,10.88,0,0,0,0-2.23c-10.26,0-20.24-.05-30.21.07a3.61,3.61,0,0,0-2.71,1.72c-3.57,8.16-10.06,11.4-18.59,12.12-16,1.35-30.24-13-28.4-29.44H647.8c1-17.22-.19-33.63-8.51-48.82C632.59,228.53,622.48,220.28,608.9,217.27ZM614,267.46H565.66c-.18-14.42,12.15-25.64,27.49-25.27C604.72,242.47,614.93,254.72,614,267.46Z"/><path d="M205.16,217.13a72.24,72.24,0,0,0-26.66-1.95c-17.21,1.79-31.68,8.64-42.05,22.72-12.15,16.48-14.73,35.37-12.13,55.08,4.35,33.1,28.38,53.73,61.94,53.77,2.62-.16,5.24-.23,7.84-.5,22.1-2.32,39-12.6,48.43-33.09,9.05-19.69,9.22-40.13,1.91-60.35C237.71,234.21,224.29,222.3,205.16,217.13Zm10.1,70.95c-.66,7.36-2.35,14.49-6.72,20.64-6.4,9-15.63,11.55-26,10.44-10.83-1.17-18.22-7.42-21.51-17.61-2.12-6.53-2.83-13.5-4.17-20.27l.94-.18c-.21-8.57,1-16.87,5-24.54,4.68-8.82,12.19-13.17,22-13.59,10.78-.45,19.62,3.18,25.06,12.91C215.54,265.92,216.25,276.91,215.26,288.08Z"/><path d="M70.33,161c14.34,8.23,29.9,9.7,45.92,7.09,21.17-3.45,36.41-14.89,44.66-34.82,7-16.94,7.37-34.48,2.55-52-5.23-19-17-32.47-35.76-39.28a71.13,71.13,0,0,0-33.09-3.5c-13.54,1.6-25.6,6.38-35.35,16C45.58,68.06,40.79,85.06,40.63,103.83c.37,4.46.46,9,1.18,13.37C44.85,136,53.43,151.27,70.33,161ZM80,80.53c4.75-11.27,14.62-16.17,27.8-15,11.19,1,19.87,8.92,23,21.4,1.11,4.43,1.52,9,2,12.16,0,11.09-.47,20.61-5.28,29.33-5.48,9.95-14.25,13.9-25.18,13.39C92,141.35,84.09,136.52,80,126.92A57.62,57.62,0,0,1,80,80.53Z"/><path d="M513.56,276.84c-9.53-6.66-20.64-8.92-31.67-11.47-7.61-1.76-15.2-3.67-22.68-5.89-3.83-1.13-7.25-3.58-7.44-8-.2-4.62,3-7.41,6.87-9.35,6.21-3.09,12.7-3.22,19.31-1.81,7.58,1.63,12.4,6,13.64,13.9a14.8,14.8,0,0,0,.65,2.13h31.28a20.5,20.5,0,0,0,0-2.73c-2.15-14.88-8.93-26.84-23-33.14-20.16-9-40.52-8.16-60.25,1.42-13.08,6.34-19.87,17.2-20.32,31.94-.48,15.49,5.72,26.26,20.07,32.11,7.65,3.13,15.86,4.92,23.88,7.09s16.27,3.54,24.1,6.2c6.89,2.34,8.27,10.23,3.15,15.48a17.33,17.33,0,0,1-6.55,4.11,35.62,35.62,0,0,1-24.53-.4c-5.71-2.14-9.64-6.1-11.19-12.12a42.45,42.45,0,0,1-.68-4.77H415.31c.13,2.46.22,4.67.36,6.89a14.61,14.61,0,0,0,.28,1.84c3,16,13.05,25.71,27.92,30.65,16.82,5.59,34,5.66,51.23,1.71C511.31,339,525,328.61,527,308.43,528.26,295.39,524.63,284.57,513.56,276.84Z"/><path d="M444,119.32c-1.35-11.69-9.08-19.47-19.6-23.55-9.44-3.65-19.48-5.73-29.25-8.53-7-2-14.32-3.35-20.89-6.32s-6.66-10-.74-14.36C384,58.78,406.15,60.16,409.62,78a4.78,4.78,0,0,0,.53,1.19h31.13c-1.46-14.85-7.1-26.92-20.23-34.08-17.06-9.32-35.23-9.75-53.59-4.59-17.3,4.86-32.21,18.13-29.73,42.71.82,8.18,4.19,15,10.75,20.16,9.65,7.57,21.31,9.74,32.85,12.27,7.64,1.67,15.34,3.16,22.82,5.39,6,1.81,7.73,5.14,7,11a9.7,9.7,0,0,1-5.88,8.1,33.62,33.62,0,0,1-9.95,2.81c-16.57,1.56-26.91-2.56-29.39-17.63,0-.19-.31-.35-.45-.49H333.23c0,1-.06,1.7,0,2.43,1.44,16.52,9.74,28.35,25,34.65,18.51,7.62,37.7,7.68,56.78,2.5C437.91,158.29,446.53,141.52,444,119.32Z"/><path d="M767,263.92a104.13,104.13,0,0,0-1.54-17.45c-2.53-14.22-9.63-25.07-24.25-29.29a71.69,71.69,0,0,0-14-2.15c-9.81-.79-19.3.85-27.31,6.74-4.85,3.57-8.76,8.41-13.1,12.68V219.1H656.32V340.73h32.09c0-1.62,0-3,0-4.34.24-22.93.2-45.87.82-68.8.45-16.66,10.24-25.58,26.67-25.4,8.3.09,14.57,4.28,16.44,12.49a99.62,99.62,0,0,1,2.24,20.69c.28,20.32.1,40.65.1,61v4.49h32.39v-4.33C767.07,312.31,767.16,288.12,767,263.92Z"/><path d="M334,222.79c0,21.45.06,42.9-.06,64.35,0,6.86-1,13.63-4.3,19.85-4.41,8.35-11.76,11.59-20.76,11.22-9.61-.4-15.58-5-18.35-14.21a46.52,46.52,0,0,1-2.11-12.79c-.2-22.7-.1-45.4-.1-68.1V219.2H256.05v4.36c0,23.45,0,46.9,0,70.34a130,130,0,0,0,.75,15.67c1.59,12.67,6.48,23.49,18.36,29.93,6.38,3.46,13.37,4.61,20.48,5,14.71.74,27.77-2.52,36.57-15.63.9-1.34,1.77-2.69,2.66-4l.65.28v15.74H366V219.18H334Z"/><path d="M283.9,164.13V42.61H251.61c0,21.37,0,42.44,0,63.51a92.88,92.88,0,0,1-.84,13.76c-1.41,9.16-4.79,17.36-14.75,20.06-13.13,3.56-23.92.51-27.6-12a39.22,39.22,0,0,1-1.71-10.63c-.18-23.45-.14-46.91-.17-70.36v-4.5H174.09c0,4.36,0,8.46,0,12.56.08,25.33-.12,50.66.41,76a35.46,35.46,0,0,0,12.69,26.92c7.29,6.23,15.93,8.86,25.38,9.61,16,1.26,29.19-3.58,38.46-17.26.49-.73,1.13-1.35,2.31-2.73v16.58Z"/><path d="M31.83.41H.65V164.13H31.83Z"/><path d="M377.63,340.75H408.8V177.14H377.63Z"/><path d="M327,164.1V42.51H294.76V164.1Z"/><path d="M327.35,24.37c0-8.07,0-16.14,0-24.37H294.09V27.11h33.13C327.27,26.06,327.35,25.22,327.35,24.37Z"/></svg>