<svg id="Calque_1" data-name="Calque 1" xmlns="http://www.w3.org/2000/svg" viewBox="0 0 2612.65 738.37"><path d="M1291.36,244.87c3.28-22.46,12.66-40.43,25-57a137,137,0,0,1,63.46-47.35c60.16-22,121.05-23.61,181.17-1.09,46.79,17.52,72,53.65,76.75,102.92,2.54,26.54,1.84,53.4,2.42,80.12,1.16,52.67,2,105.34,3.47,158,.24,8.49-2.07,12.08-10.62,12.41-67.43,2.6-134.82,6.52-202.27,7.68-35.92.61-71.45-6-104.23-22.21-69.74-34.42-75.06-118-10.36-161.44,35.82-24,76.54-34.31,118.57-38.61,29.39-3,59.14-2.79,88.75-3.12,9.91-.11,14.19-3.55,12.06-12.93-4.34-19.07-7.6-38.65-14.57-56.76-5.72-14.84-20-22.54-35.79-25.52-42.34-8-79.85,11.66-95.88,51.52-4.45,11.08-10,15.11-21.67,14.62-20.55-.86-41.16-.19-61.74-.28C1301.57,245.86,1297.23,245.3,1291.36,244.87ZM1538,385.57c0-13.17-.54-26.37.18-39.51.54-9.77-2.23-14.83-12.75-14-31.12,2.33-62.51,2.83-93.29,7.43-15.2,2.27-30.3,10.37-43.63,18.74-14.4,9-19.06,24.35-15.27,41.27,5.21,23.28,23.42,31.75,43.87,36.19,37.44,8.12,75.33,6,113.09,2.46,2.86-.27,7.23-6,7.43-9.33C1538.45,414.42,1538,400,1538,385.57Z"/><path d="M891.16,342.93q-60.55,0-121.1,0c-15.53,0-16.85,1.71-14.16,17.34,7.45,43.23,43.45,77,89.81,77.53,40.14.5,80.36-5,120.53-8.09,8.6-.66,17.14-2.26,25.67-3.6,7.2-1.13,9.81,1.44,11,9,3.15,19.91-5.92,31.14-22.74,40C933.9,499.64,884.37,506.81,833,504.34c-41.29-2-80.78-11-115.6-34.77-47.13-32.21-68-79.17-73.39-134-4.91-50.35.28-98.83,32.4-140.94,26.23-34.38,62-53.78,102.89-64,56.06-14,111.34-12.94,163.1,16.16,54.45,30.61,81.18,78.77,84.81,140.34.85,14.37-.22,28.85.5,43.23.5,10-3.53,12.8-13,12.72C973.54,342.73,932.35,342.93,891.16,342.93ZM839,273.27v0c23.83,0,47.66-.24,71.48.13,8.77.14,12.4-3.06,10.27-11.64-3.34-13.5-5.62-27.45-10.72-40.27-8.39-21.09-22.8-37.45-45.87-43-58.29-13.9-104.21,20.16-106.5,85.72-.3,8.42,4.71,9.13,11.09,9.11C792.17,273.21,815.59,273.27,839,273.27Z"/><path d="M2094.28,316.33c0,53.54-.26,107.07.22,160.6.09,11-3.35,15.77-14.45,15.92-66.65.89-133.32,3.59-199.94,2.51a175.44,175.44,0,0,1-108.56-39.22c-31-24.88-47.74-57.21-47.84-97.34q-.26-102.53,0-205.06c0-19,4.21-23.57,23-23.78,23.47-.26,46.95.29,70.41-.25,10.26-.24,13.51,3.41,13.45,13.62-.38,60.12-.28,120.24-.14,180.36.06,25.31,3.3,50.13,14.08,73.41,14.52,31.38,39,48.26,73.71,48.9,18.91.35,37.84-1.21,56.77-1.42,10.2-.11,12.94-4.76,12.91-14.54-.31-93.88-.2-187.77-.2-281.66,0-18.41,0-18.43,18.15-18.45q30.88,0,61.77,0c21.92,0,26.68,4.75,26.72,27Q2094.38,236.65,2094.28,316.33Z"/><path d="M.23,307.7C.24,255,.56,202.26,0,149.55c-.12-12.19,2.61-17.65,16.07-18.09,58-1.87,116-6,174-6.86,45.09-.69,88.74,8.12,126.66,34.69,32.58,22.82,52.3,54.4,53.17,94.4,1.58,72.45,1.12,145,1.17,217.43,0,15.09-5.25,19.87-20.4,20-23.89.26-47.8-.44-71.66.38-12.07.41-15.57-3.95-15.5-15.62.42-65.07.28-130.15.12-195.22,0-10.68-.06-21.55-1.91-32-8.25-46.59-33.58-70-81.07-73.09-21.26-1.38-42.75,1-64.13,1.61-7.72.23-9.4,5-9.36,11.59.1,19.36,0,38.72,0,58.08q0,113.67,0,227.34c0,16.94-.12,17-17.35,17-22.65,0-45.31.14-68,0C5.72,491.08.29,485.7.26,469.57Q.08,388.63.23,307.7Z"/><path d="M2174.65,454.82c18-13.86,34.3-27,51.45-38.85,2.72-1.88,10,1,14.21,3.39,29.56,16.6,59.63,32.5,93.51,37.31,16.29,2.32,33.64,1.3,49.92-1.58,14.85-2.62,25.69-12.89,27.9-29.31,2.17-16-7.13-26.85-19.77-32.49-29.24-13-59.24-24.41-89.2-35.75-29.31-11.09-58.57-22-84-41.06-47.59-35.63-55.75-98.9-17.68-140.82,15.37-16.93,35.34-27,57.08-32.86,70.45-19,139.27-16.61,205.19,17.7,6.45,3.36,12.4,7.69,21.17,13.19-16.53,14-31.21,26.79-46.53,38.79-2,1.57-7.74-.31-11.07-2-26.42-13.14-53.33-24.88-83.74-21-12,1.54-24.47,4.37-35.41,9.43-19.49,9-26.8,33.29-13.33,49.92,9.9,12.23,23.93,23.13,38.39,29.27,34,14.44,69.61,25.21,104.21,38.37,23.66,9,45.47,21.53,62,41.4,36.41,43.75,26.12,102.62-22.76,131.22-28,16.4-59.07,22.52-90.73,26-71.2,7.81-136.44-9-195.92-48.65C2184.93,463.37,2180.74,459.61,2174.65,454.82Z"/><path d="M1101.5,241q0-108.73,0-217.48c0-22.47,0-22.47,22.88-23.1,3.7-.11,7.42-.09,11.12-.27,44.31-2.19,68.07,18.46,71.85,62.71.67,7.78.79,15.63.79,23.45q.06,187.21,0,374.43c0,24.57-4.37,29.05-28.52,29.13-17.3.06-34.6.22-51.9-.12-21.79-.44-26-4.72-26.19-26.31-.2-29.66-.06-59.32-.06-89Q1101.49,307.75,1101.5,241Z"/><path d="M569.26,316.51c0,52.26-.26,104.52.18,156.78.1,11-3.44,16-14.63,15.72-12.7-.34-25.53,1-38.1-.33-28.05-3-45.74-19.45-51.26-47.24a160.39,160.39,0,0,1-2.71-30.64c-.21-83.54.06-167.08-.36-250.61-.05-11.12,3-15.38,14.44-15.08,25.09.65,50.2.11,75.31.28,17.12.12,17.14.29,17.14,18Q569.29,240,569.26,316.51Z"/><path d="M515.08,105.42c-14,0-28-.09-42,0-6.33.06-10.66-1.9-10.06-9.09,1.18-14.31.93-29,4.25-42.82,6.43-26.81,24.59-41.13,52.14-42.92,13.12-.85,26.35,0,39.52-.25,6.75-.12,9.86,2.87,9.85,9.53q0,37.68,0,75.37c0,7.21-3.09,10.34-10.47,10.19-14.41-.3-28.83-.09-43.25-.09Z"/><path d="M1475.5,696c-1.94.87-3.74,1.61-5.49,2.46-16.83,8.21-33.46,5.21-44.73-8.08-10.19-12-11.14-33.1-2.09-46.22,9.61-13.93,27-18.61,43.93-12.63,3.93,1.4,8.88.57,13.24-.07,6.78-1,11.54-.1,11.5,8.19-.11,21.8.45,43.63-.42,65.4-.6,14.92-9.06,25.52-23.25,30.42-15.71,5.41-31,3.3-44.7-6-1.81-1.22-2.62-7.61-1.29-8.9,2.19-2.12,6.81-3.29,9.89-2.59,6.29,1.44,12.08,5.65,18.36,6.46C1468.48,726.73,1478.78,714.92,1475.5,696Zm1.62-29.94c0-14.3-9.27-24-22.62-23.91-13.09.13-22.18,10.26-22.06,24.6.11,13.55,9.17,23,22.08,23.15C1467.89,690,1477.17,680.18,1477.12,666Z"/><path d="M513.94,638.5c3.78-2.4,6.76-4.56,10-6.29,17-9.13,36-.93,38.54,18.06,2,14.56,1.34,29.54,1,44.31-.07,2.68-4.5,5.26-6.92,7.89-2.34-2.68-6.5-5.22-6.7-8-.81-11.48-.3-23-.5-34.56-.17-9.67-3.48-17.42-14.65-17.53s-16.5,6.5-16.91,17.12c-.43,11.1.19,22.27-.78,33.31-.3,3.36-4.35,6.39-6.69,9.57-2.51-3.35-6.85-6.53-7.19-10.09-1-10.61-.23-21.38-.61-32.07-.32-9.33-2.89-17.88-14.43-17.56-10.85.3-16.25,7.43-16.83,17.72-.6,10.67.32,21.46-.77,32.06-.36,3.51-4.87,6.59-7.48,9.87-2.27-3.24-6.37-6.4-6.49-9.72-.66-17.26-.36-34.56-.29-51.85,0-9.15,4.33-11.66,12.77-8.21,2.32,1,5.75,1.65,7.7.62C490.43,625.82,502.81,627.83,513.94,638.5Z"/><path d="M777.39,635.74c0-13.46-.58-24.94.34-36.3.29-3.62,4.55-6.91,7-10.36,2.45,3.47,6.95,6.9,7,10.41.55,30.83.46,61.68.22,92.51-.08,10.15-4.1,12.3-13.16,8.78-2.84-1.1-6.73-1.58-9.47-.56-18.24,6.83-34.76,3.48-44.65-9.6-10.08-13.31-10.13-35.37-.1-48.59,9.8-12.94,26.52-16.39,44.61-9.23C771,633.53,772.91,634.14,777.39,635.74Zm-.13,31c.12-14.43-8.66-24.25-21.92-24.51s-22.49,9.27-22.62,23.69c-.14,14.72,8.32,24.23,21.78,24.48C767.76,690.68,777.14,680.93,777.26,666.77Z"/><path d="M392.2,635.51c0-13.44-.6-24.91.35-36.25.29-3.54,4.77-6.72,7.33-10.07,2.33,3.18,6.64,6.33,6.69,9.54.49,31.68.33,63.37.22,95,0,9-4.92,9.87-12.43,7.48-3.58-1.13-8.21-1.56-11.59-.26-15.56,5.94-33.26,2.2-42.74-9.79-10.22-12.94-10.93-34.57-1.55-47.49,9.68-13.35,25.52-18.14,41.71-12.61C383.25,632.16,386.27,633.33,392.2,635.51ZM392,666.07c-.14-14.45-9.14-24-22.53-23.86-13.09.11-22.31,10.3-22.13,24.44s9.55,24.1,22.72,23.89S392.17,680.49,392,666.07Z"/><path d="M1082.91,635.94c0-12.86-.54-24.2.29-35.44.29-3.88,4-7.51,6.09-11.26,2.46,3.82,7,7.6,7.06,11.46.58,30.41.45,60.83.24,91.24-.07,10.61-3.66,12.44-12.82,8.53a15,15,0,0,0-10.4.08c-16.57,6.7-33.08,3.19-43.53-9.86s-10.61-34.9-.28-48.38c10-13,26.79-16.95,43.31-10.14C1075.41,633.22,1078,634.11,1082.91,635.94Zm-45.67,30.54c.11,14.11,9.34,24,22.42,24,13.69,0,22.94-10,22.95-24.86,0-13.26-10.18-23.62-23.14-23.49S1037.13,652.71,1037.24,666.48Z"/><path d="M2556.46,130.23c-30.58,0-56-25.14-56.27-55.62-.23-30.08,25.9-55.94,56.21-55.61,31.12.33,56.38,25.27,56.25,55.53S2587,130.2,2556.46,130.23Zm0-99.75c-25.95,0-44.58,18.44-44.65,44.16a44.32,44.32,0,0,0,44.56,44.75,44.85,44.85,0,0,0,44.87-44.7C2601.26,49.34,2582.13,30.46,2556.48,30.48Z"/><path d="M16.53,636.81c6.09-2.82,10-5.12,14.17-6.48,18.17-5.89,33.84,4.31,34.85,23.15a357.31,357.31,0,0,1-.1,39.41c-.18,3.22-4.42,6.22-6.79,9.32-2.48-3-6.84-5.81-7.11-9-.94-11-.48-22.16-.53-33.25,0-9.21-3.08-16.55-13.31-17.55-9.87-1-17.6,3.86-19.17,13.52-1.88,11.63-1.23,23.66-2.09,35.49-.25,3.4-1,8.59-3.13,9.66-6.16,3.07-10.4.13-10.42-7C2.8,662,2.64,630,3.17,598c.05-3,4.8-5.82,7.37-8.72,2,3,5.55,5.88,5.71,9C16.92,610.45,16.53,622.75,16.53,636.81Z"/><path d="M2472.43,672.52c6.53,18,20.74,23.16,34.67,14.78,6.5-3.91,11.62-6.42,15.85,2.14-9.44,13.76-30.13,18.91-46.17,11.61-15.5-7-23.74-26.66-19-45.13,4.39-17,19.84-28.09,37.87-27.19,17.65.87,29.59,12.41,32,30.1,1.36,10-1.55,14.47-12.44,13.87C2501.51,671.94,2487.74,672.52,2472.43,672.52Zm-.95-17.61,3,5.53c9.62,0,19.27.26,28.88-.17,2.79-.13,7.18-1.72,7.82-3.64.82-2.43-.65-7.75-2.55-8.58-6.67-2.9-14.38-6.88-20.86-5.74C2481.79,643.36,2476.87,650.47,2471.48,654.91Z"/><path d="M853.24,671.92c4.12,17,18.21,23.52,31.88,16.94,1.47-.71,2.74-2.55,4.12-2.56,4.24,0,8.49.53,12.74.87-1.89,3.57-2.9,8.31-5.82,10.51-13.68,10.34-38.23,7.62-49.85-4.87-11-11.85-13-31.41-4.7-46.1,7.72-13.64,24.21-20.69,40.36-17.26,14.1,3,22.69,12.65,25.79,28.15,1.94,9.76-.35,14.9-11.53,14.46C882.35,671.5,868.43,671.92,853.24,671.92Zm.4-12.83h38.47c-.68-12.38-6.76-17.45-17.29-17.94C862.77,640.58,856.33,645.79,853.64,659.09Z"/><path d="M1158,673.76c6.2,16.84,20.79,21.88,34.47,13.34,5.34-3.34,10.72-7,14.07.32,1,2.24-4,9-7.66,11.32-13.48,8.61-34,6.66-45.05-3.28-12.24-11-15.9-29.68-8.87-45.35,6.52-14.57,21.9-23.08,38.33-21.24,17,1.91,29,15.51,29.62,32.56.26,7.52-2.76,10.52-10,10.42-10.28-.14-20.58-.15-30.87.12C1167.72,672.08,1163.41,673,1158,673.76Zm19.14-13.23v-.08c3.66,0,7.4.43,11-.14,2.93-.46,7.32-1.44,8.08-3.37.93-2.36-.6-6.37-2.24-8.91-4.75-7.38-18.27-9.83-26.45-4.09-3.91,2.75-6,8-9,12.17,4.17,1.47,8.27,3.14,12.52,4.33C1173,661,1175.14,660.53,1177.18,660.53Z"/><path d="M160.76,698.5c-10.52,2-18.74,4.88-27,4.93-12.19.09-20.28-7.48-21.46-18.09-1.33-11.84,4.07-20.25,15-24,7.29-2.5,15.33-2.72,22.87-4.61,3.07-.77,5.7-3.26,8.53-5-2.31-3.12-4.37-8.6-7-8.89-7-.77-14.3,1-21.49,1.12-3.9.09-7.83-1-11.75-1.62,2.25-3.21,3.78-7.86,6.86-9.4,26.5-13.3,48.3,0,48.5,29.31.06,9.47.32,19-.16,28.39-.19,3.73-2.14,7.37-3.3,11Zm-8.58-29.94c-17.09.14-25.83,5.5-25.12,13.49.75,8.39,7,10.24,14.07,10.25,9.66,0,19-7.76,17.76-16.19C158.4,672.61,153.32,669.76,152.18,668.56Z"/><path d="M658.73,698.62c-10.76,1.88-19.77,4.9-28.68,4.62-10.71-.33-18.6-7-20.21-18.19s4.11-19.68,14.3-23.15,21.38-4.7,32.09-6.9c-1.28-11.38-7-15.48-19.26-13.48-4,.65-7.67,3.43-11.59,3.65-3,.18-6.2-2.11-9.31-3.31,1.42-2.53,2.2-6.23,4.37-7.42,12.55-6.88,25.61-8.26,38.86-1.62,12.22,6.12,12.14,17.35,12,28.66-.1,9.86.31,19.73-.19,29.55-.19,3.64-2.32,7.18-3.57,10.76Zm-25-6.37c13.87.3,24.22-7.92,23.39-16.52-.26-2.67-6-6.64-9.41-6.86-13.8-.89-24.58,5-22.8,12.36C626.17,686.21,631.93,690.07,633.78,692.25Z"/><path d="M1541.26,666.18c0-9-.07-18.06,0-27.09.08-7.33,4.27-8.53,10.74-7.77,5.07.6,10.71.89,15.39-.73,18.86-6.51,35.67,3.43,37,23.37a311.56,311.56,0,0,1,0,39.37c-.18,3.12-4.62,6-7.11,9-2.35-3.15-6.45-6.16-6.72-9.48-.92-11-.45-22.14-.54-33.22-.07-9.38-3.87-16.36-13.84-17.16-10.37-.84-18,4.33-19.27,14.85-1.35,11.36-.29,23-1.45,34.38-.38,3.72-4.43,7.07-6.8,10.59-2.53-3.41-6.77-6.6-7.24-10.27-1.08-8.48-.34-17.2-.34-25.82Z"/><path d="M2329,666.71c0,8.64,0,17.29,0,25.94-.05,9.3-4.44,11.34-12.87,8.28-3.12-1.14-7.42-1.42-10.41-.19-22.19,9.11-39.19-1.12-40.31-25-.52-11.09-.19-22.23,0-33.34.07-5.29-.31-12.29,7.62-10.74,2.89.57,6.3,6.53,6.67,10.31,1,9.79.42,19.73.4,29.61,0,10.28,3.39,18,14.91,18.84,9.77.75,17.85-6.28,18.82-17.29.9-10.23.36-20.57.56-30.86.1-5.4-.12-12.24,7.74-10.58,2.92.62,6.18,6.55,6.67,10.39,1,8.11.31,16.43.31,24.67Z"/><path d="M2002.79,666c0-9-.79-18.2.44-27.07.41-2.93,8.17-7.87,8.92-7.27,6.88,5.44,12.27.62,18.23-1.33,18.13-5.94,33.93,4.27,34.9,23a370.43,370.43,0,0,1-.05,39.43c-.18,3.27-4.29,6.33-6.59,9.49-2.3-3.16-6.32-6.18-6.59-9.5-.9-11-.18-22.18-.58-33.26-.36-9.79-4.81-17.07-15.51-17-10.32.08-17.26,5.64-17.93,16.48-.72,11.47-.11,23-1.22,34.46-.31,3.19-4.63,6-7.11,9-2.33-3.11-6.31-6-6.66-9.35-.93-9-.32-18.05-.32-27.09Z"/><path d="M222.87,666.52c0-8.63.13-17.26,0-25.88-.17-8.46,3.55-10.7,11.61-8.85a23.92,23.92,0,0,0,13.06-.56c19.88-7.58,37.18,3,38,24.12a334.84,334.84,0,0,1-.19,36.95c-.25,3.51-4.63,6.72-7.12,10.07-2.37-3.57-6.45-7-6.79-10.75-1-10.6-.4-21.34-.45-32,0-9.39-3.73-16.36-13.79-17.14-9.82-.77-17.36,3.95-18.69,14-1.56,11.73-.82,23.76-2.21,35.53-.43,3.65-4.56,6.86-7,10.28-2.16-3.28-5.83-6.4-6.2-9.86-.9-8.53-.29-17.23-.29-25.85Z"/><path d="M1867.73,667.55c0,9.05.1,18.09,0,27.13-.1,7.71-4.73,8.15-11,7.12-4.52-.75-9.72-1.48-13.82,0-20.25,7.28-37.21-3.43-37.82-24.79-.34-11.91-.63-23.88.27-35.73.27-3.53,4.65-6.75,7.14-10.11,2.36,3.17,6.45,6.19,6.75,9.54.93,10.61.41,21.35.51,32,.08,9.21,3.28,16.5,13.47,17.48,10.62,1,17.83-4.59,19.33-14.84,1.54-10.49.5-21.34,1.76-31.9.51-4.25,4.12-8.14,6.32-12.19,2.41,3.86,6.33,7.53,6.89,11.64,1.1,8.08.32,16.4.32,24.62Z"/><path d="M1277.68,704.59c-4.72-1.51-11.37-2.66-16.87-5.81-2.73-1.56-3.33-6.81-4.9-10.39,3.9-.74,7.89-2.35,11.69-2,5.54.49,11,3.47,16.39,3.27,3.06-.11,6-4.43,8.93-6.86-2.4-2.92-4.25-7-7.34-8.49-5.46-2.68-12.72-2.44-17.32-5.94-5.35-4.06-11.9-10.79-12-16.42-.07-6.4,5-15,10.47-18.82,10-7,22.07-6.27,32.7.17,2.58,1.56,3.28,6.21,4.85,9.44-3.58,1.13-7.13,2.34-10.75,3.31-.56.15-1.36-.84-2.11-1.16-7.17-3.06-15-5.28-18.78,3.5-.7,1.6,8,7.67,12.74,11.08,2.2,1.57,5.45,1.66,8.2,2.5,9.64,3,15.71,8.86,15.56,19.55-.14,11-6.21,17.58-16.29,20.58C1288.62,703.37,1284,703.59,1277.68,704.59Z"/><path d="M1730.52,673.43c0-5.35-.08-10.7,0-16,.15-7.3.53-14.38-10.15-14.37-1.77,0-4.78-3.45-5-5.5s2.57-6,4.06-6c13.2-.13,10.82-9.56,11.06-17.52.6-19.45,9.13-28.8,25.37-27,2.92.31,5.55,3.37,8.31,5.17-2.51,2.47-4.83,6.8-7.57,7.08-11.77,1.21-11.79,9.54-12.32,18-.48,7.58-.12,14.13,10.34,14.2,2,0,5.55,4.08,5.45,6.15s-3.8,5.74-5.94,5.75c-9.85,0-10,6.26-9.89,13.33.14,12.35.4,24.73-.34,37-.18,3-4,5.77-6.17,8.65-2.42-3-6.34-5.76-6.92-9.09-1.11-6.39-.32-13.12-.32-19.71Z"/><path d="M2185.77,667.88c0-4.93.89-10.09-.3-14.72-.88-3.48-4.23-6.47-6.86-9.32-2.2-2.38-5-4.26-7.45-6.36,2.35-2.24,5-4.25,7-6.77,2.86-3.65,5.06-7.81,7.87-11.49,2.17-2.83,4.85-5.27,7.31-7.89,2.39,2.65,6.74,5.25,6.8,7.94.17,8.36,3.19,11.86,11.72,11.87,2.51,0,5,3.74,7.5,5.76-2.35,2.19-4.77,6.34-7,6.26-10.7-.41-12.22,5.61-11.74,14.11.32,5.74.22,11.52.05,17.27-.3,9.38,1.84,16.26,13.35,16.3,1.92,0,5.61,4.22,5.31,5.91-.44,2.43-3.45,5.48-6,6.26-14.94,4.58-26.3-3.48-27.31-19.1-.34-5.32-.05-10.68-.05-16Z"/><path d="M1933.08,635.22c6.62-2.4,11.86-5.12,17.38-5.9,2.32-.33,7.38,3.48,7.36,5.37,0,3-2.62,7.93-5.21,8.79-18.72,6.23-20.5,8.17-20.72,27.47-.08,7.41.7,14.94-.42,22.19-.5,3.28-4.67,6-7.18,9-2.35-2.72-6.65-5.38-6.74-8.18-.62-18.1-.74-36.24-.17-54.35C1917.71,629.48,1923.27,628.27,1933.08,635.22Z"/><path d="M2387.4,634.16c6.88-1.54,13.7-3.83,20.64-4.31,3.4-.24,7,2.86,10.57,4.44-2.51,3.26-4.69,9-7.57,9.37-13.58,1.77-17.86,9.94-17.92,22.09,0,9,.53,18.09-.47,27-.37,3.36-4.39,6.31-6.75,9.45-2.5-3-7.05-5.83-7.16-8.87-.66-18-.56-36,0-54.05.1-3.25,3.51-6.4,5.39-9.6Z"/><path d="M1355.51,666.25c0-9-.57-18.1.32-27,.29-2.88,4.41-5.37,6.77-8,2.45,2.56,7,5.05,7,7.69q.93,27.64,0,55.33c-.09,2.76-4.39,5.37-6.74,8-2.48-3-6.75-5.76-7.11-9-1-8.91-.34-18-.34-27Z"/><path d="M2130.18,666.18c0,9.46.43,19-.28,28.38-.2,2.68-3.74,5.1-5.75,7.65-2.55-2.46-7.23-4.86-7.31-7.4-.6-18.91-.57-37.87.11-56.78.08-2.4,5-4.63,7.74-6.93,1.81,2.63,5,5.17,5.18,7.92.67,9,.25,18.1.25,27.16Z"/><path d="M1362.18,620c-4.41-7.09-8.93-11.17-8.69-14.94.21-3.24,5.87-6.12,9.13-9.15,3.21,3.51,8.28,6.68,9,10.65C1372.19,609.43,1367.05,613.41,1362.18,620Z"/><path d="M2136.86,606.67c-6.34,4.1-10.66,9-13.5,8.21-3.93-1-6.75-6.29-10-9.74,3.68-3.1,7.1-8.11,11.14-8.68C2127.34,596.06,2131.06,601.63,2136.86,606.67Z"/><path d="M2569.58,81.76c3.71,6.78,7.57,13.82,11.42,20.87l-2,3.28c-3.74-1.63-7.82-2.77-11.1-5-2.2-1.52-3-4.88-4.9-7-3.85-4.34-8-8.39-12-12.56-1.27,5.21-2,10.62-4,15.56-1.24,3.16-4.24,5.62-6.45,8.39-2-2.59-5.7-5.13-5.78-7.79-.53-16-.34-32.09-.07-48.14a9.23,9.23,0,0,1,2.92-6.34c7.26-5.77,36.33-.54,41.46,7.16C2585.05,59.1,2582.32,68.67,2569.58,81.76ZM2555,74.26l13.59-13.15c-3.83-2.71-7.46-7.1-11.55-7.57-2.9-.34-8.23,4.09-9.11,7.31C2547.18,63.57,2551.26,67.62,2555,74.26Z"/></svg>