<svg id="Calque_1" data-name="Calque 1" xmlns="http://www.w3.org/2000/svg" viewBox="0 0 1152.17 330.8"><path d="M620.12,45.68a39.71,39.71,0,0,1,1,9.24c.08,22.69,0,45.38,0,68.07v3.11h32.27v-3c0-24.77,0-49.54-.05-74.31a80.17,80.17,0,0,0-1-12.86c-2.24-13.41-8.78-24-21.16-30.41C622.37.91,612.84-.26,602.91.69,590.64,1.86,580.65,7,573.05,16.75c-.92,1.18-1.8,2.39-2.76,3.65-12.81-26.27-55.9-26.1-71.92-2.6,0-4.18-.07-7.89,0-11.59,0-1.78-.33-2.53-2.35-2.5-9.12.11-18.23.09-27.35,0-1.81,0-2.29.54-2.29,2.31q.07,59,0,117.94c0,2,.74,2.35,2.51,2.34,9.51-.07,19,0,28.54,0,.71,0,1.41-.07,2.44-.12V123c0-22.93.05-45.86,0-68.79,0-11.26,7-22.63,20.92-23.48,9.51-.58,18.14,2.86,21.53,12.66A30.4,30.4,0,0,1,544,53c.14,23.42.07,46.83.07,70.24v2.84h33.08V123q0-34.41,0-68.8c0-10.55,6.35-22.48,20.76-23.43C608,30.1,617.24,34,620.12,45.68Z"/><path d="M293.26,64.19c-.3-2.91-.52-6.82-1.13-10.67-2.66-16.81-10.45-30.7-24.2-40.9C253.71,2.07,237.55-1.33,220.15.73c-17.12,2-31.27,9.61-42,23.18-8,10.18-12.2,21.91-13.26,34.78-1.37,16.56,1.94,32,11.87,45.5,14,19,33.27,26.72,56.47,25.64a60.59,60.59,0,0,0,27.8-7.91C282.81,109.33,292.38,89.72,293.26,64.19ZM257.37,79.6c-4.63,13.12-16,20.52-30,20.05-13.11-.45-24.08-9.05-27.75-22.13-1.13-4-1.45-8.27-2.15-12.41.38-9.31,2.47-17.87,8.81-24.85a30.32,30.32,0,0,1,51,10.07A42.45,42.45,0,0,1,257.37,79.6Z"/><path d="M812.49,102.88c-.16-18.22,0-36.44-.08-54.66a71.34,71.34,0,0,0-.64-10C809.55,23,801.83,11.76,787.61,5.53c-13.91-6.1-28.46-6.84-43.15-3.76S718.21,12.7,711,26.17a34.12,34.12,0,0,0-4.34,15.15l29.59,4.19c1.8-8.89,6.54-14.78,14.87-17.36a29.67,29.67,0,0,1,17,0c4.22,1.18,7.85,3.41,9.9,7.38,3.25,6.28,3.07,13.88-5.91,15.58-3.28.63-6.62,1-9.93,1.5C753,54,743.82,55.13,734.78,57c-9.44,2-17.68,6.46-23.72,14.26-11.27,14.54-9.88,40.06,11.16,52.39,8.48,5,17.75,6.63,27.42,6,12.79-.83,23.62-5.7,31.47-16.23a5,5,0,0,1,.79-.69c.39,3.93.85,7.65,1.08,11.38.11,1.85.93,2.19,2.58,2.18,8.64-.07,17.27,0,25.91,0,.7,0,1.4-.07,2.17-.11,0-.86,0-1.57,0-2.27C813.24,116.88,812.55,109.88,812.49,102.88ZM778.7,86.4c-2.44,11.24-11,18.06-22.56,18.4a34.25,34.25,0,0,1-7.84-.5,13.55,13.55,0,0,1-10.84-11.62c-.75-6.2,2-12,7.43-14.55a38.28,38.28,0,0,1,9.56-2.75c7.68-1.36,15.41-2.45,23.13-3.63a23.33,23.33,0,0,1,2.61,0C779.71,76.8,779.72,81.71,778.7,86.4Z"/><path d="M1152.07,49.46a75.18,75.18,0,0,0-1.65-15.41c-2.66-12.31-8.92-22.31-20.36-28.4a45.15,45.15,0,0,0-21-4.95c-11.37-.17-21.6,2.84-30.2,10.48-2.15,1.92-4,4.23-6.18,6.62,0-4-.1-7.77,0-11.5.08-1.95-.46-2.62-2.51-2.59-8.31.11-16.63,0-24.94,0h-4.9V126.28h2.75c8.87,0,17.74,0,26.62,0,4.5,0,3.89.58,3.9-4,0-23-.12-46,.15-69,.15-12.56,8.53-21.48,21-22.48,10.28-.83,19.67,3.34,22.88,15.27a34.38,34.38,0,0,1,1.15,8.74c.09,22.85.05,45.7.05,68.55v2.73h33.25v-2.32C1152.14,99,1152.24,74.22,1152.07,49.46Z"/><path d="M980.57,34.56c-2.61-12.5-8.83-22.75-20.45-28.88-9.9-5.21-20.55-6.15-31.42-4.1-10.34,1.95-19,6.84-25.16,15.62-.14.2-.42.3-1,.69V4h-32v122.2H903.6v-3.11q0-31.87,0-63.76c0-2.23.09-4.46.25-6.69.9-12.38,8.66-20.77,20.94-21.8,10-.85,19.06,3,22.55,14.07A34.5,34.5,0,0,1,948.82,55c.13,22.69.07,45.38.07,68.07v3.06h33.25v-2.77c0-24.61.08-49.22-.07-73.83A75.74,75.74,0,0,0,980.57,34.56Z"/><path d="M114,34.54c-2.53-12.14-8.52-22.13-19.62-28.42C87.67,2.3,80.32.82,72.6.7,61.23.52,51,3.54,42.39,11.16c-2.22,2-4,4.37-6.39,6.93V4H4V126.09H37.05v-3c0-22-.12-44.11.11-66.16a37.73,37.73,0,0,1,2.36-12.8c3.89-10.28,14.6-15.32,25.9-12.94C73.74,32.91,79.06,37.84,81.14,46a36.25,36.25,0,0,1,1.15,8.73c.09,22.77,0,45.54.06,68.31,0,1,.08,2,.13,3.1h33.11v-3.1c0-24.6.08-49.21-.06-73.82A74.83,74.83,0,0,0,114,34.54Z"/><path d="M376.06,21V3.93H344V126.12h33.07v-2.74c0-15.5,0-31,0-46.49,0-4.71.07-9.43.51-14.11.61-6.54,2.68-12.62,7.12-17.67,5.78-6.59,13.45-8.87,21.85-9.14,3.87-.12,7.75.33,11.78.53V3.23C401.29,2,386.1,4.49,376.06,21Z"/><path d="M525.75,307.41c-.75-1.12-1.2-1.75-1.61-2.4q-11.61-18.42-23.24-36.84c-.43-.68-1.15-1.66-1.75-1.67-4.85-.14-9.7-.08-14.56-.08v62.81H497v-43a9.43,9.43,0,0,1,2.14,2.54q12.41,19.35,24.82,38.68c.47.74,1.27,1.76,1.95,1.79,4,.17,8,.08,12.09.08V266.58H525.75Z"/><path d="M1138.05,307.47c-.87-1.31-1.39-2.06-1.87-2.83q-11.49-18.22-23-36.44c-.46-.72-1.29-1.69-2-1.71-4.77-.15-9.54-.08-14.39-.08v62.75h12.45V285.63c.84,1.21,1.3,1.82,1.71,2.47q12.58,19.65,25.19,39.3c.45.7,1.09,1.8,1.68,1.82,4.18.16,8.37.08,12.49.08V266.56h-12.29Z"/><path d="M897.6,280.81c2.28,2.08,3.84,4.93,5.95,7.72l11.33-4c-1-2-1.61-3.73-2.51-5.31-6.15-10.77-19.32-16.32-32.73-13.56-12.15,2.51-20.61,9.56-24.31,21.54-3.83,12.37-2,24,6.8,33.74,7.94,8.83,18.42,11.29,29.75,9.18,19.38-3.6,24.82-17,22.39-33.42H883V307.4h20.62c-1.61,2.53-2.56,4.69-4.08,6.31-5.2,5.53-11.8,6.31-18.75,4.61-7.41-1.81-12.21-6.75-13.66-14.14a31.52,31.52,0,0,1,0-12.54C870.65,275.45,889.4,273.34,897.6,280.81Z"/><path d="M158.51,265c-18.47.2-32.39,14.47-32.2,33,.2,19.18,14.07,32.84,33.18,32.63,17-.19,32.17-13.33,31.65-33.86C190.68,278.72,176.68,264.81,158.51,265Zm17.07,44c-4.05,7.35-12.64,11-21.35,9.13a19,19,0,0,1-14.68-16.61c-.12-1.27-.24-2.54-.3-3.15.06-12.05,6.75-19.86,17.63-21.22A19.23,19.23,0,0,1,178,293.92C178.58,299.19,178.19,304.27,175.58,309Z"/><path d="M651.16,291.53h-27.1v-25H611.87v62.69h12.25V303.52h27.15v25.66h12.25V266.53H651.16Z"/><path d="M50,305.73c-.24.48-.4.75-.52,1-3.79,9.36-12.57,13.69-22.33,11-9.13-2.49-14.49-10.41-14.21-21C13.27,283.65,23.8,275,36.62,277.5c6.62,1.29,10.77,5.53,12.72,12.22L61.23,286c-.94-2.3-1.59-4.35-2.56-6.23-6.27-12.26-20.34-16.58-33-14.06C7.44,269.36-2.85,286.37.69,305,5.07,328,29,335.63,46.32,327.7c7.9-3.63,12.79-9.95,15.15-18.49-2.08-.66-4-1.29-5.85-1.86S51.85,306.27,50,305.73Z"/><path d="M769.75,267.74a2.73,2.73,0,0,0-2.06-1.27c-3.51-.13-7,0-10.54-.11-1.77-.08-2.44.6-3,2.15Q743,297.73,731.73,326.9c-.27.71-.48,1.45-.8,2.46,4.2,0,8.11.06,12-.08.58,0,1.37-.93,1.63-1.59q2.09-5.34,3.92-10.78a2.45,2.45,0,0,1,2.72-2c7.11.1,14.22.09,21.33,0a2.44,2.44,0,0,1,2.73,2c1.23,3.62,2.56,7.2,3.94,10.76.24.64.89,1.58,1.38,1.59,4.12.13,8.25.08,12.37.08a3.73,3.73,0,0,0,0-1Q781.39,298,769.75,267.74ZM753.46,303.5c2.77-7.6,5.45-14.93,8.12-22.26l.59,0c2.68,7.33,5.35,14.66,8.12,22.23Z"/><path d="M386.27,303.28h24.12v-11H386.27V278h26.66V266.49H373.75v62.73H413V317.7H386.27Z"/><path d="M998.54,303.24h24.07v-11H998.54V278h26.61V266.57H986V329.2h39.17V317.73H998.54Z"/><path d="M289.76,267a38.38,38.38,0,0,0-6.43-.52c-7.41-.06-14.83,0-22.28,0v62.76h12.29V305.72c3.53,0,6.72.06,9.9,0a43.11,43.11,0,0,0,6.43-.51c9.24-1.63,15.42-9.23,15.45-18.83C305.15,276.35,299.1,268.64,289.76,267Zm2.89,19.76c-.22,4.09-3,7.53-7,7.91s-7.93.08-12.15.08V277.13c4.43.23,8.83.05,13.07.78S292.88,282.32,292.65,286.71Z"/></svg>