<svg id="Calque_1" data-name="Calque 1" xmlns="http://www.w3.org/2000/svg" viewBox="0 0 1020.71 696.24"><defs><style>.cls-1{fill:#010101;}</style></defs><g id="_9ba72c6b-4195-44f9-b063-0c5bcfebf025" data-name="9ba72c6b-4195-44f9-b063-0c5bcfebf025"><g id="b12fa903-348c-4b58-9e81-13fdc78f5de8"><path id="cc374563-f3a0-4a36-b48f-8fa21bb3eb04" class="cls-1" d="M848.38,428.71H583.54v-83H848.38a41.48,41.48,0,1,1,0,83m-411.43,0H172.19a42.58,42.58,0,0,1-41.48-41.48,42,42,0,0,1,41.48-41.48H437Zm583.61-41.48A171.22,171.22,0,0,0,850.28,215.05c-.64,0-1.27,0-1.9,0H516.48V428.71H503.36V215.05H172.19A173.5,173.5,0,0,0,0,387.23,171.24,171.24,0,0,0,170.36,559.34H437v136.9h67.07V559.34h12.46v136.9h67.07V559.34H848.45a171.31,171.31,0,0,0,172.11-170.5v-1.61"/><path id="_021394eb-21c4-4985-9232-3d25ec14a700" data-name="021394eb-21c4-4985-9232-3d25ec14a700" class="cls-1" d="M986,74h14.58V49.79c0-9.7,3.42-17.28,14.58-17.28a13.53,13.53,0,0,1,5.54.66V20.05a28.82,28.82,0,0,0-3.43-.66A20.2,20.2,0,0,0,1000,30.47V20.78H986.15ZM938.33,41.48a11.67,11.67,0,0,1,11.56-11.77c.31,0,.61,0,.91,0,6.92,0,10.35,4.16,11.73,11.74ZM976.82,51c1.39-16.62-7.29-31.79-26.24-31.79a27,27,0,0,0-27.65,26.43c0,.64,0,1.29,0,1.93a26.31,26.31,0,0,0,24.16,28.31,26.77,26.77,0,0,0,3.47,0,23.83,23.83,0,0,0,25-17.64H962.24a11.59,11.59,0,0,1-11.73,6.92c-8.31,0-12.47-4.15-13.13-13.85ZM899.55,74h14.58V0H899.55Zm-24.2-26.24c0,9-4.16,17.27-12.47,17.27s-12.46-8.31-12.46-17.27,4.15-17.28,12.46-17.28,12.47,8.31,12.47,17.28M835.91,74h13.85V67.07a18.41,18.41,0,0,0,17.72,8.31c10.35,0,21.87-8.31,21.87-28.36s-11.74-28.36-21.87-28.36A18.87,18.87,0,0,0,850.86,27V0H835.62Zm-64.29,0,4.15,3.43,6.2-6.93A28.59,28.59,0,0,0,799.24,76a26.32,26.32,0,0,0,27.68-24.88,27,27,0,0,0,0-3.48,30.52,30.52,0,0,0-6.92-20l5.54-6.2L821.33,18l-5.54,6.19a27.6,27.6,0,0,0-16.62-4.81A26.32,26.32,0,0,0,771.5,44.28a26.81,26.81,0,0,0,0,3.47,25.63,25.63,0,0,0,6.93,19.39Zm38.71-35.94a22,22,0,0,1,1.38,9.7c0,8.31-2.77,17.27-13.12,17.27a12,12,0,0,1-9-3.42Zm-23,18.66a19,19,0,0,1-1.39-9c0-8.31,2.77-17.28,13.13-17.28a9.41,9.41,0,0,1,8.31,3.43ZM679,74h14.58V42.86c0-10.35,6.93-12.46,9.7-12.46,9.69,0,9,6.92,9,13.12v30.4h14.58V44.25c0-6.93,1.38-13.85,9.69-13.85s9,6.19,9,13.12v30.4H760V38.71a17.49,17.49,0,0,0-15.37-19.39,16.89,16.89,0,0,0-4,0,18,18,0,0,0-16,9,16.32,16.32,0,0,0-15.89-9,20.32,20.32,0,0,0-16.62,9V21.43H677.94V74Zm-65.6-9.69c-9,0-12.47-8.32-12.47-16.63s3.43-17.27,12.47-17.27,13.12,9,13.12,17.27S623.05,64.3,613.36,64.3m-27,29.15H601V67.79a18.46,18.46,0,0,0,15.89,8.31c15.89,0,23.47-13.12,23.47-27.62S633,19.32,616.13,19.32a17.69,17.69,0,0,0-15.89,8.31V20.78H586.39ZM550.45,64.3c-9.7,0-13.12-8.32-13.12-17.28s2.77-17.28,12.46-17.28,13.12,9,13.12,17.28S560.14,64.3,550.45,64.3m-27,29.15h14.58V67.79A18.5,18.5,0,0,0,554,76c15.89,0,23.47-13.12,23.47-27.63s-7.29-29.16-24.2-29.16a17.73,17.73,0,0,0-16,8.39V20.78H523.4Z"/></g></g></svg>