<svg id="Calque_1" data-name="Calque 1" xmlns="http://www.w3.org/2000/svg" viewBox="0 0 952.91 242"><path d="M667.87,136.9c-8.44,0-10.53-2.16-10.62-10.75,0-.16,0-.33,0-.5-.16-12.72-3.58-15.59-16.23-13.63-3.68.58-5.5,3-5.92,6.45-.51,4.13-.92,8.28-1.14,12.43-.19,3.71-2.23,5.65-5.63,5.72-9.13.19-18.27.18-27.41.06-4.18-.06-6.27-2.52-6.48-6.7-.19-4-.48-8-.79-12-.3-3.75-2.39-5.52-6.14-5.9-12.78-1.3-13.62-.72-15.42,11.75-.12.83-.26,1.65-.36,2.47-1.18,9.6-5.18,12.41-14.85,10.39-4.06-.85-4.65-3.62-4.13-7.2q6.78-46.43,13.47-92.87C567.55,27.43,568.73,18.19,570,9c.53-4,2.76-6.29,6.8-6.74l1-.12C591.19.6,593,1.81,595.16,15.19c4.33,27.3,8.43,54.63,12.65,82,1.25,8,2.43,16.13,4,24.13.3,1.58,2.1,2.88,3.21,4.3.94-1.43,2.49-2.77,2.72-4.31,2.08-13.83,4-27.68,5.83-41.54q3.65-26.94,7.16-53.9,1-7.93,1.92-15.88c.53-4.84,3-7.74,8-7.78,11.13-.09,15.48-3,17.3,11.81,2,16.66,5.07,33.2,7.66,49.8q3.71,23.67,7.42,47.35c.86,5.42,1.68,10.85,2.77,16.22C677.21,134.33,675.13,137,667.87,136.9ZM583.56,53.78l-1.78-.08c-.95,2.32-2.44,4.57-2.75,7-1.1,8.54-2.06,17.11-2.49,25.71-.13,2.63.88,6.28,2.73,7.75,1.58,1.25,6,1,7.55-.35,1.78-1.54,2.65-5.18,2.43-7.78-.7-8.25-2-16.45-3.29-24.62C585.55,58.78,584.39,56.31,583.56,53.78Zm62.32-.73L643.79,53c-.85,4.28-1.91,8.53-2.5,12.85-.89,6.58-1.74,13.19-2,19.81-.12,2.68.44,6.32,2.17,7.88s6,1.85,7.71.65,3.17-5.08,2.9-7.59c-1-9.39-2.75-18.72-4.34-28.05A36.38,36.38,0,0,0,645.88,53.05Z"/><path d="M935.84,73.76a38.23,38.23,0,0,0,.61-5.19c-.19-13.81-.54-27.62-.69-41.44-.07-6.32.16-12.65.34-19,.12-4.13,2.13-6.46,6.49-6.59,7-.21,9.49,1.07,9.84,6.27.44,6.63.23,13.31.25,20q.11,50.24.21,100.46c0,7.14-1.06,8.35-8.31,8.52a56.19,56.19,0,0,1-6.49-.12c-3.72-.34-6.06-2.28-6.82-6.13-3.91-19.57-7.79-39.15-11.92-58.68A53.38,53.38,0,0,0,914,58c-.4,1.26-1.16,2.53-1.14,3.79.34,21.45.39,42.92,1.37,64.35.44,9.7-2.71,11.75-12.91,10.45-4.35-.55-5.06-4.43-5.11-8.07-.09-7,0-14,0-21q.07-48.69.14-97.39c0-6.5,2.21-8.6,8.83-8.33,11.22.48,12.25,1.89,14.1,13C921,25,923.79,34.92,926,45c1.66,7.64,3,15.35,4.8,23,.52,2.22,2.08,4.2,3.17,6.29Z"/><path d="M106.64,70.84c.3-3.19.86-6.37.86-9.56,0-16.82-.28-33.64-.27-50.46,0-7.52,2.74-9.91,9.69-9.11,5.17.59,6.8,2.43,6.8,7.91,0,27.48-.07,55,0,82.44,0,12.65.23,25.3.42,37.95.06,3.7-1.18,6.15-5.25,6.41-1.49.1-3,.37-4.47.44-10.3.54-10.67-.24-12.65-10.52-3.37-17.49-7.36-34.86-11.09-52.28a99.15,99.15,0,0,0-2.15-9.73c-.43-1.34-2-2.3-3.06-3.44-.72,1.31-2,2.59-2.07,3.92-.14,4.15.2,8.31.34,12.47q.9,25.95,1.8,51.89c.22,6-.92,7.41-6.41,7.68-8.95.44-11.18-.85-11.26-7.23-.15-13.3-.13-26.62-.08-39.92.08-20.3.28-40.59.35-60.88,0-5.65-.25-11.3-.45-17-.21-6.15,2-9.62,6.56-10,9.83-.91,13.71,1.24,15.13,8Q95.07,36.92,101,64c.56,2.53,2.09,4.85,3.17,7.28Z"/><path d="M208.39,70.25q0-27.48,0-54.94a54.34,54.34,0,0,1,.13-6c.55-5.15,3-7.59,8.11-7.61,9.49,0,19,0,28.45.42S261,8.44,261.7,18c.69,9.94.61,20,.65,29.93q.12,31.71-.06,63.43a78.55,78.55,0,0,1-1.21,12.89c-1,5.88-4.33,10.48-10.48,11.24-7.72.94-15.56,1-23.36,1.29-3.65.15-7.32.06-11,0-6.49-.15-7.95-1.61-7.93-8.06,0-11.65.15-23.31.19-35,0-7.83,0-15.65,0-23.47Zm19-1.16h-.09c0,14.15,0,28.3,0,42.45,0,5.83,1.34,8.09,5.47,8.33,6.65.38,10.24-2.05,10.93-7.51a51.87,51.87,0,0,0,.35-6q.13-32.46.2-64.94a112.71,112.71,0,0,0-.57-14.94c-.71-5.25-5.28-8.12-10.71-7.37-5,.7-5.61,4.31-5.58,8.5C227.43,41.45,227.38,55.27,227.38,69.09Z"/><path d="M415.86,69c0-20.14,0-40.27,0-60.41,0-4.11,2.11-6.69,6.45-6.6,11,.23,22,.3,32.92,1,6.51.43,12.86,7.6,13.23,15,.59,11.46.93,23,.43,34.43-.17,3.95-2.66,8.11-5,11.59s-2.43,6.17,0,9.87,4.37,8,4.68,12.23c.79,10.44.43,21,.74,31.44a88.87,88.87,0,0,0,1.28,13.34c.68,3.75-.75,5.38-4.16,5.8a41.42,41.42,0,0,1-5,.12c-8,0-9.86-1.54-10.24-9.39-.45-9.13-.46-18.29-.86-27.42A121.86,121.86,0,0,0,449,85.64c-.42-2.54-1.22-5.54-2.94-7.21s-5.23-3.46-7.45-3c-1.76.4-3.91,4.12-3.94,6.39-.2,14.47.13,29,.3,43.44a3.74,3.74,0,0,1,.06,1c-.93,3.18-1.17,8.47-3,9.11-4.09,1.41-9.14,1.17-13.48.18-1.45-.33-2.67-5-2.7-7.66-.23-19.63-.12-39.25-.12-58.87ZM434.42,40h.22c0,1.83,0,3.66,0,5.49s-.06,3.66-.15,5.49c-.21,4,.64,7.36,5.25,8.28a7.79,7.79,0,0,0,9.42-6.08c1.88-8.94,3.57-17.93.7-27.06-1.57-5-5.06-7.65-9.72-6.91-3.54.57-5.79,4.28-5.73,9.33C434.45,32.33,434.42,36.15,434.42,40Z"/><path d="M760.88,69.85q0-30,0-59.95c0-6,2-8.08,8.14-8.06,8.32,0,16.65.18,25,.29,13.53.19,20.1,6.38,20.21,19.88.19,21.65,0,43.3,0,64.95,0,9.15.24,18.32.06,27.47a67.73,67.73,0,0,1-1.57,10.81c-1.17,6.22-5.45,9.93-11.3,10.36-11.93.89-23.92,1.06-35.89,1.16-4.33,0-4.48-3.65-4.48-7q0-23,0-45.95v-14Zm18.44,0h0c0,14.14.08,28.28,0,42.41,0,4.36,2.26,6.45,6.07,7.22,6.16,1.24,9.84-1.91,9.89-9.17.19-27.44.16-54.88.12-82.33,0-3.26-1-6.19-4.58-7.53-6.7-2.46-11.36.38-11.44,7.49C779.22,41.9,779.32,55.87,779.32,69.84Z"/><path d="M688.06,81.31V10.42c0-6.48,1.56-8.54,7.6-8.5,10.14.06,20.3.25,30.41.94,9.08.63,13.93,5.06,14.54,14.1.82,12.25.88,24.58.67,36.86,0,3-1.86,6.37-3.74,8.92-3.84,5.19-3.78,6.2-.28,11.3a19.29,19.29,0,0,1,3.23,9.51c.53,11.13.31,22.3.73,33.44a74.21,74.21,0,0,0,2,12.22c1.11,5.36-.48,7.6-5.93,7.72-2,0-4-.17-6-.31-4.06-.29-6.54-2.31-6.77-6.52-.59-11.29-1-22.59-1.74-33.87a73.5,73.5,0,0,0-2.58-16c-.64-2.12-3.72-4.11-6.12-5-5-1.77-7.74.35-7.74,5.68q0,23.46.31,46.92c.11,7-.72,8.67-5.58,9-10.37.62-12.93-.75-13.15-8.08-.24-8,.22-16,.29-24,.06-7.82,0-15.65,0-23.48Zm18.25-41.67h.18c0,4,0,8,0,12,0,3.46.11,6.84,4.46,7.77s9.4-1.06,11.12-4.8a15.73,15.73,0,0,0,1.41-5.75c.24-5.8,0-11.63.29-17.42.47-9.78-.39-10.9-10-11.74-5.5-.48-7.22.95-7.38,6.5C706.2,30.65,706.31,35.15,706.31,39.64Z"/><path d="M281.54,69.65v-56c0-.5,0-1,0-1.5C280.92.09,288.34.06,297.12,3.32c1.66.62,3,4.32,3.05,6.63.12,7.81-.47,15.63-.68,23.46a46.8,46.8,0,0,0,.33,8.46c.25,1.58,1.5,3,2.29,4.5,1.28-1.35,3.17-2.48,3.72-4.07,2-5.81,3.64-11.77,5.37-17.68,1.55-5.27,3-10.57,4.61-15.82,1.85-6,12.75-9.8,17.46-5.72,1.4,1.21,1.67,5,1,7.09-4.9,15.55-9.64,31.17-15.53,46.35-3.41,8.8-2.74,16.48.78,24.85,5.68,13.49,10.68,27.26,16,40.89,1,2.46,2.52,4.72,3.36,7.22,1.55,4.58-.19,7-5,7.45-9.3.88-12.92-1.85-15.84-10.65-3.61-10.89-7.62-21.66-11.79-32.35-.71-1.81-3.06-3-4.65-4.45-.74,1.88-2.11,3.76-2.11,5.64,0,11.31.38,22.62.6,33.93.12,6.51-.85,7.54-7.27,7.89-8.84.49-10.84-.68-11.08-7.36-.28-7.48-.14-15-.15-22.47q0-18.73,0-37.46Z"/><path d="M487.54,76.44c0-13.62-.34-27.25.11-40.85.33-9.74.62-19.83,8.44-27.34s17.35-9.18,27.75-6.43c10.07,2.67,13.82,10.41,15.2,19.59.84,5.57.73,11.29.8,17,0,4.11-3.05,6.37-8.37,6.53-5.87.17-8.74-1.72-9-6.24s.07-9.34-.36-14c-.39-4.15-1.85-8-7-8.32a8.77,8.77,0,0,0-8.78,8c-.53,7.93-.41,15.91-.37,23.87.11,17.62.38,35.24.49,52.86,0,4-.63,8-.39,11.93.34,5.52,4.7,9.75,9.08,9.47,4.57-.3,8-4.12,8.18-9.77.31-8.15.41-16.31.46-24.47,0-3.56-1.47-5.82-5.43-6.5-4.77-.82-7.22-4.65-6.73-9.47.54-5.37,3.55-8.27,8.74-8.27,4.65,0,9.3.06,14,.23s6.41,2.7,6.38,7.16c-.1,15.32-.07,30.63-.1,46,0,4.5.09,9,0,13.49s-2.21,6.58-6.7,5.5c-5.92-1.42-11.2-.76-17,1.42-10.13,3.82-23.83-4.18-26.54-15.19A90.37,90.37,0,0,1,488,104.86c-.4-9.46-.11-19-.11-28.42Z"/><path d="M.06,106.44c0-4.16.05-8.33,0-12.49C0,89.18,1.86,87.16,6.92,86.82c4.6-.31,7.44,2,7.54,6.6.11,5.82-.12,11.65-.19,17.48a33.87,33.87,0,0,0,.06,3.49c.47,5.3,3.79,9.16,8,9.37,3.81.2,8.32-4,8.8-8.79,1-10-.22-19.44-6-28.2C18,75.82,11,64.67,4.77,53.16,2.2,48.41,1.26,42.56.56,37.09s-.32-11-.09-16.47C.93,9.9,7.45,2.38,18,.75A54.2,54.2,0,0,1,31.87.24C42.36,1.36,48.3,8.4,48.46,19.07c.1,6.66.33,13.32.23,20-.09,5.68-2.59,7.73-8.72,7.73-5.28,0-7.58-2.08-7.81-7.54-.15-3.82.23-7.66.19-11.48,0-2.32.18-4.92-.78-6.86-1.14-2.29-3.42-5.6-5.22-5.61a10.32,10.32,0,0,0-7.6,4.13c-4,6.32-2.53,13.43.08,19.73,2.7,6.55,6.59,12.64,10.28,18.73,4.73,7.82,10.69,15,14.5,23.24,6.92,14.92,9.5,30.36,1.4,46.1C42,133,37.32,136,31.69,137.65c-9.42,2.71-18.8,1.87-26.3-4.86-2.76-2.48-4.32-7.06-5-10.92-.83-5-.2-10.27-.2-15.43Z"/><path d="M352.1,70.18c0-19.48-.05-39,0-58.45,0-8.61,1.81-10.09,10.39-9.94,9.16.16,18.32.12,27.47.1,5.57,0,7.68,2,7.89,7.86.24,6.89-1.87,9.93-7.39,10.09-3.32.1-6.65-.36-10-.42-5.5-.1-8.64,2.69-8.66,8,0,8,.35,16,.3,24,0,4.92,2.49,7,7,7.15,2.82.11,5.66-.18,8.48-.1,3.76.1,6.95,1,7.28,5.7.52,7.51-.74,10.33-6,11.15-2.73.43-5.61-.11-8.42-.18-6.82-.16-8.95,2.19-8.73,9,.28,9,.24,18,.47,26.95.13,5.35,1.89,7.19,7.22,7.38,3.48.12,7-.33,10.48-.43,5.31-.15,7.09,1.46,7.75,6.85a31.26,31.26,0,0,1,.33,4c0,5.72-2,7.85-7.85,7.9q-15.24.15-30.48,0c-6.67-.08-7.53-.94-7.55-7.58,0-17.65,0-35.3,0-52.95v-6Z"/><path d="M834.13,94.92c0-23.62,0-47.24,0-70.86,0-4.49-.61-9-.51-13.47.15-6.15,2.51-8.42,8.49-8.51,9.32-.14,18.65-.24,28-.19,6.93,0,8.63,2.55,8.3,11.59-.2,5.26-2.39,6.88-8.88,6.46-3.33-.21-6.65-.8-10-.71-4.16.12-6.95,2.15-6.95,6.78,0,8.83-.11,17.66,0,26.49.07,4.91,2.19,6.54,6.92,6.14,3.3-.29,6.63-.5,9.94-.46,5.42.06,7.09,2.06,7.34,8.34.24,6-1.62,8.7-6.72,9-3.31.22-6.66-.3-10-.27-5.39,0-7.47,1.8-7.57,7.1q-.28,14.73.05,29.48c.13,5.2,2.64,7,7.78,6.64,3.15-.22,6.32-.39,9.48-.32,6.42.15,7.89,1.58,8.53,7.87.89,8.77-1,10.79-9.7,10.75-9.17,0-18.33,0-27.49-.07-6.18-.06-7.64-1.68-7.5-7.84.13-5.66.33-11.32.4-17s0-11.33,0-17Z"/><path d="M146.87,69.92q0-30.24,0-60.48c0-5,2.16-7.45,7.21-7.51,9.66-.11,19.32-.17,29,0,6.5.1,9.34,3.43,9,9.92-.32,5.88-3.21,8.19-9.56,8.06-4.15-.09-8.32.08-12.46.39-3.1.24-4.78,2.17-4.77,5.34,0,9.49,0,19,.24,28.47.11,4.15,3.65,4.26,6.64,4.39,3.64.15,7.34-.38,10.94,0,4.78.55,6.31,3,6.1,8.55-.19,5.25-2.13,7.69-6.81,8.07-3.13.26-6.29.15-9.44.12-4.93-.06-7.61,2.22-7.67,7.15-.11,9.49-.1,19,.08,28.48.11,5.71,2.83,7.94,8.67,7.68,3.49-.15,7-.55,10.47-.38,5.86.28,7.74,3.14,7.7,11,0,5-2,7.4-7.3,7.53-10.32.24-20.65.28-31,0-5.77-.17-7.17-2-7.17-7.33q0-29.73,0-59.47Z"/><path d="M705.44,216.24c1.69-4.53,3.9-8.94,4.92-13.61,1.16-5.33,1.16-10.91,1.85-16.36a66.06,66.06,0,0,1,1.76-8.79c1-3.61,3.41-5.85,7.24-5.54,4.13.34,6.09,3,6.13,7.12q.12,16.47.28,32.94c.07,6.49.21,13,.25,19.48,0,1.65.34,3.65-.44,4.89-1,1.56-2.93,2.5-4.46,3.71-1.11-1.43-3.11-2.83-3.15-4.29-.17-6,.37-12,.43-18a70.05,70.05,0,0,0-.7-7.62l-1.35-.16a16.49,16.49,0,0,0-1.52,3.25c-1.75,7.44-3.5,14.89-5,22.38-.65,3.24-2,5.26-5.51,5.2s-6-1.18-6.75-5.18c-1.17-6.64-2.64-13.23-4-19.84l-1.61-.11a20.79,20.79,0,0,0-1.43,4.59c-.37,4.63-.48,9.29-.65,13.94-.11,2.87.13,6.12-4,6.23s-4.68-2.68-4.6-6.12c.35-16,.59-31.93.82-47.9,0-2-.26-4-.36-6-.27-5.73,1.52-8,6.81-8.3,4.74-.31,6.36,2.72,6.94,6.78,1.48,10.36,3,20.73,4.5,31.09.28,1.91.91,3.78,1.37,5.67Z"/><path d="M112.62,211.52c.54-1.8,1.52-3.59,1.54-5.39.06-7.8-.16-15.61-.29-23.42,0-2-.71-4.25,0-5.89.81-1.82,2.71-3.91,4.48-4.29,1.11-.23,3.38,2.23,4.15,3.93.84,1.86.74,4.24.73,6.39-.12,17.3-.37,34.6-.45,51.9,0,3.24-.7,5.62-4.35,6.05s-6.91,0-8-4.05c-2.09-7.52-3.87-15.13-5.89-22.67a52,52,0,0,0-2.16-5.54l-1.52.14c-.49,2-1.33,3.94-1.41,5.93-.27,7-.4,13.95-.34,20.93,0,2.64-.33,5.25-3.29,4.91-1.93-.22-4.93-2.24-5.18-3.82a101.4,101.4,0,0,1-.81-15.9c0-13.45.06-26.91.19-40.37,0-3.73,1.17-7.05,5.31-8.05,3.29-.8,7.24,2.19,8.27,6.36,2.31,9.36,4.43,18.75,6.64,28.13.38,1.56.86,3.1,1.29,4.65Z"/><path d="M422.59,209c-3.44,5.38-2,11.35-1.52,17.17.25,3,.91,5.91,1.26,8.88.4,3.32-1.22,5.09-4.54,5.08-3.06,0-5.09-1.26-5.14-4.71-.12-9-.38-18-.41-27s.19-18,.17-26.95c0-5.39,2.18-8.9,6.36-9.2,4.86-.35,6.69,2.91,7.59,7,1.47,6.66,2.79,13.36,4.45,20,.37,1.47,1.92,2.65,2.92,4,.87-1.5,2.4-3,2.48-4.5.29-5.3.05-10.64.06-16,0-1.82-.48-4,.34-5.37.93-1.56,3-3.23,4.69-3.31,1.27-.06,3.54,2.13,3.8,3.61.58,3.22.2,6.61.16,9.93-.19,15.48-.34,31-.62,46.42-.1,5.65-4,8.53-8.88,6.28-1.83-.84-3.39-3.45-4-5.56-1.84-6.38-3.06-12.93-4.73-19.36a50.87,50.87,0,0,0-2.74-6.65Z"/><path d="M875.43,224.48c0-13.93-.07-27.87,0-41.8,0-8.66,2.39-10.85,11.14-10.82a58.19,58.19,0,0,1,6.47.36c11.07,1.26,15.69,6.2,16,17.31.21,6.73-.47,13-5.05,18.8-1.67,2.1-1.4,6.73-.47,9.71,1.77,5.65,4.8,10.88,7,16.42.57,1.46.59,4.41-.2,4.88-1.6.94-4.69,1.58-5.78.67a19.64,19.64,0,0,1-5.29-7.42c-2.3-5.5-3.74-11.36-6.14-16.8-.73-1.65-3.54-3.41-5.25-3.27-1.28.1-3.22,3.14-3.29,4.94-.24,5.95.13,11.93.48,17.89.16,2.89-.45,5.58-3.63,5.13-2.1-.29-5.19-2.33-5.59-4.09-.85-3.8-.26-7.92-.26-11.91Zm9.78-32.13c0,1.14-.52,3,.11,4.42,1.14,2.49,2.47,5.69,4.62,6.74a5.47,5.47,0,0,0,7.58-3.76,35,35,0,0,0,.31-14.43c-1-4.49-5.82-3.61-9.4-3.08-3.38.5-3.9,3.13-3.48,6.1C885.11,189.49,885.11,190.66,885.21,192.35Z"/><path d="M573.25,207q0-13,0-26c0-6.44,2-8.61,8.63-8.89,7-.28,14.14-1.11,19.8,4.42,6.26,6.12,7.33,21.63,1.51,28.76-3.91,4.78-4.72,9-1.39,14.45,2.56,4.21,4.1,9.07,5.91,13.71,1.13,2.91,1.12,5.87-2.52,6.89-3.26.92-5.83-.16-7-3.77-2-6-4-12-6.17-17.91a10.17,10.17,0,0,0-2.42-4.27c-1.24-1.06-3.4-2.19-4.65-1.78s-2.42,2.72-2.47,4.24c-.23,6-.06,12,.09,18,.07,2.69.11,5.25-3.49,5.33s-5.8-1.29-5.78-5.22c0-4.66,0-9.32,0-14V207Zm9.41-15.84c-.11,2.09-.12,3.26-.25,4.41-.44,3.94.82,7.2,4.83,8.06,4.17.9,7.88-.93,9-5.12a29,29,0,0,0,.66-10.71c-.47-4.23-4.44-6.41-9.41-5.85-4.35.5-5.22,3.41-4.88,7.16A16.43,16.43,0,0,1,582.66,191.15Z"/><path d="M364.8,207c0-8.49.05-17,0-25.46,0-7.23,2.35-10,9.46-9.46,5.2.4,10.8.81,15.33,3a16.14,16.14,0,0,1,7.58,9.54c2,8.34,1.77,16.71-4.64,24-1.45,1.63-1.23,5.68-.43,8.19,1.91,6,4.62,11.76,7,17.62,1,2.42,2,5.06-1.6,6-3.13.86-6.18.22-7.5-3.17-2.77-7.11-5.12-14.38-8-21.42-.66-1.6-2.95-2.53-4.49-3.77-1.31,1.64-3.62,3.21-3.74,4.93a153.94,153.94,0,0,0,.11,18c.17,3.15-.51,5.44-3.89,5.75-3.63.33-5.11-2-5.13-5.28-.06-9.5,0-19,0-28.48Zm25.59-14.7c-1.83-3.3-2.8-6.86-5.12-8.65-2-1.51-5.54-1.4-8.33-1.14-1.19.11-3,2.32-3.12,3.73a39.93,39.93,0,0,0,.09,11.4c.39,2.08,2.26,4.75,4.12,5.47s5.31.1,6.66-1.3C387.06,199.34,388.36,195.85,390.39,192.28Z"/><path d="M.13,207c0-8.82-.07-17.64,0-26.46.08-7.09,1.82-8.64,9-8.49,2,0,4-.11,6,0,10.77.77,16,5.23,16.5,15.93.56,13.08.27,26.23-.29,39.32-.32,7.28-4.71,11.36-12,12.52a81.88,81.88,0,0,1-12.41,1c-5.22,0-6.88-1.85-6.89-7C0,225,0,216,0,207Zm22.5-.2h-.39c0-6.31.33-12.65-.11-18.93-.31-4.51-3.25-6.07-8.24-5.77-4.14.26-5.75,2.11-5.66,6.37.25,12.28.17,24.57.18,36.85,0,4.59,2.77,7,7.35,6,4.83-1,6.84-4.35,6.86-9.06C22.65,217.15,22.63,212,22.63,206.84Z"/><path d="M207.07,218.32q0-18.21,0-36.43c0-1.49-.38-3.32.33-4.4,1.13-1.75,3-4.13,4.6-4.14s4.19,2.3,4.62,4c.79,3.14.31,6.6.34,9.92,0,2.66-.11,5.32.05,8,.27,4.53,3,6.5,7.32,6.27s7.44-1.75,7.24-6.88c-.18-4.82-.22-9.64-.26-14.47,0-3.29.29-7.06,4.28-7.31s5.07,3.5,5.09,6.73c.08,18.78.05,37.56-.28,56.33,0,1.53-2.66,3-4.08,4.5-1.61-1.56-4.46-3-4.6-4.7a160.23,160.23,0,0,1,0-17.94c.14-5.63-1.88-7.83-7.6-8-5.19-.12-7.68,2.58-7.48,8.15s.37,11,.62,16.46c.16,3.57-1.17,5.93-5,6-4.05.07-5.51-2.36-5.47-6.13.07-5.33,0-10.65,0-16Z"/><path d="M523.68,204.47c0-6.82-.06-13.65,0-20.47,0-2.48,0-5.12.88-7.37.59-1.56,2.67-3.65,4-3.58,1.7.09,3.84,1.78,4.76,3.37s.63,3.85.64,5.83q.06,21.19,0,42.39c0,4.5,1.63,7.51,6.48,7.68,4.14.15,6.73-2.74,6.8-8.07.16-12.48,0-25,.07-37.44,0-2.66,0-5.34.18-8,.25-3.05.77-6.75,4.66-6.4s5.85,3.45,5.76,7.52-.18,8.29-.23,12.43q-.18,14.19-.33,28.37c0,.83,0,1.66-.11,2.49-1.74,18.15-10.43,19.85-25.51,16.5-4.67-1-8-7.69-7.94-13.81.06-7.16,0-14.31,0-21.46Z"/><path d="M798,193.16c2.51-2.93,4.77-5.2,6.6-7.78,2.59-3.64,4.51-7.81,7.45-11.11,1.19-1.33,4.31-1,6.55-1.35.13,2.17,1.1,4.78.23,6.41a103.47,103.47,0,0,1-8.69,13.38c-3.3,4.43-3.1,8.49-.9,13.47,4,9.1,7.32,18.53,10.78,27.87,1,2.58,1.57,5.57-2.28,6.36-3.46.72-6.21-.37-7.36-4.19-1.88-6.21-3.85-12.4-5.83-18.58-.45-1.42-.75-3.06-1.67-4.1s-2.8-2.44-4-2.22-2.59,2.27-2.66,3.58c-.24,4.8,0,9.63.15,14.46,0,1.49.37,3,.34,4.47-.05,3.56-1.3,6.33-5.42,6.31s-4.82-2.68-4.82-6.1c0-17.64-.08-35.28-.05-52.91,0-1.63,0-3.74,1-4.77,1.39-1.51,3.65-3.1,5.47-3,1.22.06,3.08,2.83,3.32,4.57.57,4.08.31,8.28.47,12.43C796.65,190.91,797.15,191.47,798,193.16Z"/><path d="M348,203.2c0,7.82.2,15.64-.05,23.45-.3,9.17-5.61,14.09-15,14.44-10.46.38-17-4.18-17.61-13.37-.66-10.26-.34-20.58-.48-30.87-.07-5.15-.39-10.29-.31-15.43.06-3.77-.2-8.22,4.84-9.08,3.14-.54,4.88,3.8,4.76,9.56-.26,12.8-.33,25.61-.35,38.42a24,24,0,0,0,1,6.39c1.1,3.92,4,5.65,7.93,5.4s5.65-2.7,5.7-6.33c.15-13.79.18-27.58.29-41.36,0-2.48-.4-5.15.41-7.36.61-1.67,2.86-3.8,4.36-3.78s3.24,2.36,4.06,4.08c.73,1.51.4,3.57.4,5.39,0,6.82,0,13.63,0,20.45Z"/><path d="M738,236.75c1.53-5.6,3-10,4-14.57,2.91-13.44,5.58-26.94,8.48-40.39.87-4,1.71-9.17,6.92-9,5.37.12,6,5.3,6.88,9.58q5.37,25.07,10.84,50.12c.69,3.19,1.7,6.59-2.84,7.57-4,.86-6.25-1-6.67-5.23s-1.09-7.93-6.93-7.6c-6.88.39-9.28,1.83-10.3,8.16-.58,3.58-2.3,5.81-5.86,5.08C740.72,240.06,739.34,237.91,738,236.75Zm21.26-37-2-.07a20.56,20.56,0,0,0-4.87,13.89c0,2.82.72,5.46,4.34,5.43,3.45,0,4.79-2.56,4.59-5.34C761,209,760,204.4,759.26,199.77Z"/><path d="M76,240.59c-4.39,0-6.29-2.06-7-6-1.09-6.37-2.54-7.48-8.25-7.27-5.89.21-7.67,1.6-8.42,7.49-.53,4.1-2.45,6.23-6.57,5.43s-3.59-4-2.93-7.11q5.55-25.8,11.1-51.6c.31-1.46.4-3.19,1.25-4.26,1.35-1.69,3.33-4.12,4.93-4,1.93.1,4.87,2.14,5.43,3.94,2.43,7.93,4.24,16,6.11,24.13,2.62,11.33,5,22.69,7.63,34C80.11,238.86,79.06,240.49,76,240.59ZM65.46,215.1c-.72-4.84-1-8.15-1.78-11.34-.29-1.21-1.63-3-2.54-3a4.17,4.17,0,0,0-3.2,2.42c-1,3.62-2,7.41-1.82,11.09.07,1.61,3,4.38,4.52,4.32C62.52,218.51,64.3,216,65.46,215.1Z"/><path d="M935.92,241.08c-10.77-.07-18.31-8.44-16.61-19.14.34-2.14,3-5.07,5-5.51,3.25-.71,4,2.54,4.34,5.37a28.87,28.87,0,0,0,.85,5.42c1.12,3.66,3.81,5.51,7.57,5s6.84-2.75,6.19-6.5a26,26,0,0,0-4.89-11C934,209,928.17,204.28,924,198.38c-5.79-8.21-4.37-24.77,10.15-27.1,11-1.76,17.45,4.78,17.6,15,0,2-2.71,4-4.17,6-1.48-1.57-3.57-2.89-4.32-4.76-1.18-3-1.46-6.67-5.53-6.57-2,0-5.44,1.6-5.61,2.84-.46,3.33-.64,7.65,1.11,10.15,4.06,5.81,9.72,10.49,13.93,16.21a29.51,29.51,0,0,1,5.49,12.46C954.36,233.75,947.24,241.16,935.92,241.08Z"/><path d="M179,242c-13.55.1-18.88-11.68-17.63-21.24.21-1.63,2.59-4.25,3.85-4.18,1.77.08,4,1.93,5,3.63s.69,4.21,1.15,6.32a7.3,7.3,0,0,0,8.15,5.69c3.92-.74,7.13-4.27,5.59-7.86-2.22-5.18-5.67-9.91-9.08-14.48-2.86-3.83-6.63-7-9.6-10.75-6.21-7.87-2.88-22.41,5.9-26.63,9.77-4.69,22.12,2.78,21.72,13.42-.08,2.26-2.07,4.45-3.18,6.67-1.83-1.63-3.77-3.17-5.45-5-.62-.65-.54-1.91-1-2.79-1.41-2.8-3.21-5.4-6.88-4.32s-5.71,4.27-4.77,7.69a29.2,29.2,0,0,0,5.42,9.78c4.48,5.73,9.82,10.82,14,16.73,4.83,6.76,3.31,17.78-3.09,22.94C186.42,239.89,182.46,240.6,179,242Z"/><path d="M621,222.68c0-12.61,0-25.22,0-37.83,0-10.75,2.51-13.14,13.29-12.94,3.82.07,7.65,0,11.46.17,3.2.19,5.48,1.8,5.31,5.33-.17,3.38-2.65,4.33-5.57,4.43s-5.67-.09-8.48.13c-5.43.44-7.25,3.8-6.5,11.68.49,5.13,2.67,6.92,7.91,6.5,1.66-.13,3.57-.74,4.92-.14,1.88.84,3.34,2.61,5,4-1.57,1.42-3,3.16-4.78,4.13-1.16.62-2.93.06-4.43.12-1.31.05-2.86-.17-3.91.43-7.41,4.2-4.44,11.38-4.53,17.49-.07,4.59,4,5.23,7.54,5.43,2.8.15,5.64-.34,8.46-.42,3.37-.1,5.43,1.51,5.56,5s-2.12,4.79-5.11,4.81q-10,.06-19.95-.27c-3.68-.13-5.86-2.13-5.87-6s0-8,0-12Z"/><path d="M832.28,206.7q0-13.47,0-26.93c0-4.66,2.63-7.39,6.93-7.6a129.93,129.93,0,0,1,18.92.49c1.67.17,4.6,3,4.36,4-.49,2-2.48,4.43-4.36,5-2.73.83-5.91.06-8.89.16-6.91.21-8.49,2.18-8.19,9.95.24,6,2.73,8.37,8.75,8.24,1.65,0,3.59-.49,4.91.2,1.82.95,3.18,2.79,4.74,4.25-1.63,1.36-3.06,3.39-4.92,3.9-2.65.73-5.74-.12-8.39.6-1.83.5-4.44,2.39-4.61,3.9a59.36,59.36,0,0,0,0,14.89c.54,3.93,4.46,3.85,7.63,4s6.74-.42,9.85.39c1.63.42,3.52,3,3.67,4.79.09,1.16-2.65,3.55-4.24,3.67a181.67,181.67,0,0,1-19.94.26c-4.6-.18-5.94-3.54-5.93-7.71,0-4.49-.25-9-.19-13.47,0-4.32.35-8.64.54-12.95Z"/><path d="M289.88,171.76c2.66,0,5.33-.16,8,0,3.36.26,5.88,1.88,5.65,5.62-.22,3.54-2.87,4.58-6,4.59-1.83,0-3.66-.24-5.49-.2-6.83.16-9.3,2.78-9.17,9.6.11,5.67,3.05,8.22,9.51,8.27,1.33,0,2.9-.41,3.94.14a32.67,32.67,0,0,1,4.9,3.87c-1.57,1.41-2.93,3.3-4.77,4.07s-3.92.21-5.92.25c-6,.12-7.56,2-7.33,7.94.25,6.31.2,12.63.34,18.94.08,3.36-1.09,5.56-4.8,5.49-3.48-.06-5.11-1.93-5.07-5.4.05-4.81,0-9.63.06-14.45.11-13.46-.07-26.93.46-40.37.27-6.66,2.06-7.79,8.73-8.19,2.32-.14,4.66,0,7,0Z"/><path d="M493.29,211.72c0-7.49-.1-15,0-22.48.07-4.17-1.4-6.54-5.8-7.1-3.11-.4-6.7-1-6.2-5.52s4-4.77,7.47-4.79c6.49,0,13,.13,19.47-.05,3.43-.09,5.62,1.08,5.76,4.6.13,3.16-1.16,5.26-4.83,5.69-6.7.79-7.41,1.57-7.36,8.06.09,14.3.36,28.59.55,42.89,0,1,.36,2.35-.14,2.93a54.35,54.35,0,0,1-5,4.55c-1.35-1.6-3.78-3.15-3.86-4.81-.41-8-.18-16-.18-24Z"/><path d="M461.29,207c0-8.16,0-16.32,0-24.49,0-2-.2-4.22.62-5.88s2.75-3.31,4.21-3.33,3.57,1.78,4.18,3.27a20.09,20.09,0,0,1,1,7.37c0,16.82-.06,33.65,0,50.48,0,3.45-.8,6-4.85,6-3.82-.06-5.15-2.37-5.14-5.92.05-9.16,0-18.32,0-27.49Z"/><path d="M139.39,207.42q0-11.23,0-22.48c0-2,0-4,.14-6,.28-3.3,1-6.8,5.17-6.6,3.88.18,4.34,3.63,4.35,6.74,0,11.46-.05,22.92,0,34.38,0,6.82.15,13.64.2,20.45,0,3.4-.38,6.63-4.87,6.54-4.26-.08-4.95-3-4.92-6.56.09-8.83,0-17.65,0-26.48Z"/></svg>