<svg id="Calque_1" data-name="Calque 1" xmlns="http://www.w3.org/2000/svg" viewBox="0 0 922.49 1089.96"><path d="M461.39,1089.83c-177-6.58-303.67-97.15-382.4-249C-39.09,613.18-25.59,388.32,124.92,178.11,199.27,74.28,303.17,11.79,432.4,1.4,564.33-9.21,674.8,40.94,765.14,134.94c97.43,101.39,146.15,224.9,155.61,364.33,11.56,170.2-34.33,322-149.57,449.66C688,1041.13,570.67,1092.94,461.39,1089.83ZM903.83,581.65c-.52-179.23-43.2-304.46-126.41-406.23C634.71.91,406-32.59,231.11,97.35,128.9,173.28,67.43,277.36,39.47,400.23-3,586.9,27,760.74,147.76,912.15c158.79,199.13,425.46,213.7,600.33,34.62C856.42,835.83,902.3,699.23,903.83,581.65Z"/><path d="M126.62,525.32C130,414,169.27,298.87,270.46,211.8c118.74-102.18,275-99.12,392,5.32,179,159.76,184.12,482,10.26,646.89C532.28,997.25,332.18,978.5,215.52,820.9,154.73,738.76,126.76,645.92,126.62,525.32ZM373.73,629.87l-9.39-.2c-50.5-108.23-101-216.46-152.28-326.36C79.8,484.42,135.85,817.59,345.86,908.62v-261l7.27-3.26L548.62,874.48c0-72.1.31-135.19-.22-198.27-.13-15.57,3.27-24.27,21.26-24,18.19.26,18.27,11.17,18.22,24.14q-.45,99.95-.42,199.9c0,9.07.83,18.14,1.33,28.27,204.59-95.23,257.58-427.32,122.29-605.9C660.19,409.88,610,519.6,559.81,629.33l-8.69-.87c-28.66-62-57.32-124.08-88.42-191.42Zm182.35-97c4.49-8.32,7.16-12.48,9.09-17C600,435,634,353.63,670.21,273.32c8.28-18.34,3.66-27.86-8.88-39.91C546.39,123,376.67,124.07,262.21,235.53c-12.31,12-13.07,21.82-6.32,36.23,14.28,30.51,27,61.74,40.79,92.48,25.3,56.41,50.9,112.69,78.23,173.15,21.16-49.86,40.78-95,59.16-140.59,2.78-6.89,2.1-17.12-.93-24.08-19.71-45.13-40.43-89.82-61-134.57-5.9-12.83-12.39-25.39-19-38.93,53.57-8.6,53.38-8.52,72.46,35.82,12.31,28.63,25.28,57,40.13,90.35,15.75-36.85,29.11-67.72,42.13-98.73,14.09-33.55,25.51-38.33,64-25.28C547.12,254.62,522.23,307.64,498.07,361c-3.64,8-7.93,19.23-5.1,26.18C512.46,434.93,533.76,482,556.08,532.87ZM389.9,737.42l-6.33,2.35c0,58.3-.36,116.61.61,174.89.09,5.44,7.73,14,13.39,15.58,49.24,13.55,98.17,12.55,149.82-5.9Z"/><path d="M372.23,131.05,350,119.62l-10.15,23.21-51.95-49L294,86.51l37.13,32L336.8,116,320.64,82.26l24.93-8.77c2.34,9.53,5.43,22.09,8.52,34.66l6-1.11,6.75-45.87,5.35.76Z"/><path d="M593,75.74q-6.13,29.9-12.29,59.79l-6.42-.88V102.17l-28.55,27.05L536,90.42c-6.35,10.4-11.82,19.37-17.29,28.35l-7.52-3.58,24.45-54.7,6.15.38c3.32,14.21,6.64,28.42,11.65,49.84l28.36-41.9Z"/><path d="M694.63,876.23l48.19,11.13-18.11-45.63c1.28-1.53,2.55-3.07,3.83-4.61L780,871q-2,3.65-4.09,7.29l-30.69-15.7c4.67,12.71,8.49,23.09,13.61,37l-36-3.09,16.33,25.34-5.79,5.43-41.78-45.47Q693.11,879,694.63,876.23Z"/><path d="M739.41,272.92c1.56-10.51,3.13-21,5.07-34l-22.63,8.62-4.52-6.1,51.08-40.06c23.63,25.52,21.58,33.45-5,47.29-8.41,4.37-13,16-19.4,24.35Z"/><path d="M300.06,932.69c32,13.73,33.78,21.75,17.12,44.31-6.22,8.42-6.85,21-12.25,39-4.37-16.92-7.13-27.55-9.88-38.19l-6.58-5.07-8.61,24.13-9.69-7.5C279.86,971,289.55,952.65,300.06,932.69Z"/><path d="M495.69,118.52,473.75,93.15l-9.59,22-3.9-.87V53c33-6.61,41.31,2.44,33.63,31.23-2.41,9,2.92,20.14,4.7,30.3Z"/><path d="M826.93,792.25c-16.82-7.26-34.23-13.49-50-22.52-3.77-2.16-5.22-18.19-2.45-20.07,7.85-5.35,19.11-10.33,27.8-8.75,13.63,2.48,26.26,10.46,41.22,17l-35.62,14,25.87,11.24Z"/><path d="M245.65,201.75l-44-53.06L261.41,155l-20-31.8,5.55-4.79,41.22,48.32-3.3,4.89-53.39-8.83c7.72,13.65,13.79,24.41,19.87,35.16Z"/><path d="M744.83,186.31c.07,19.63-14.35,34.35-34,34.74-20,.39-37-15.85-36.91-35.17.13-17.68,17.09-35,34.7-35.52C728.54,149.84,744.76,165.92,744.83,186.31Zm-.38-1.67c-15.6-10.36-24-20-33.59-21.39-16.8-2.35-27.06,10.47-23.79,25.7,1.86,8.6,15.51,21.2,22.76,20.51C719.79,208.51,728.72,196.68,744.45,184.64Z"/><path d="M570.11,960.55c16.59,2.21,30.69,10.21,32.62,31.2,1.9,20.63-9.6,32.87-28,37.77-4.73,1.26-14-4.15-17-9-5.31-8.61-7.52-19.16-10.87-29C539.46,969.85,545.56,960.84,570.11,960.55Zm3.37,64.38c7.87-12.38,15.82-19.41,16-26.6.16-7.94-5.36-17.48-11.3-23.45-3.25-3.26-12.47-.57-19-.56.67,8,.47,16.19,2.29,23.91C563,1004.67,566.83,1010.55,573.48,1024.93Z"/><path d="M120.13,406.5C105,401.45,91.33,396,77.24,392.45c-18.47-4.7-18.17-15.24-10.71-28.84,10.14-18.5,31.83-25.16,48.38-15C133.76,360.13,136.12,380.27,120.13,406.5Zm-3.74-12.73c9.11-20.08,2.17-32.18-13.42-37.11C87.8,351.85,76.79,359,73.79,378.29Z"/><path d="M647,93.12c4.9,24,8.21,40.13,12.13,59.28l25.18-29.79,6.34,4.37-36.13,58.41c-4.92-23.84-8.37-40.57-12.55-60.84l-24.73,31.29-7.28-4.5C620.92,134.17,631.84,117,647,93.12Z"/><path d="M678,892.46l44.19,52-62.49-7.3,24.1,33.11-6.69,5.82-44.77-52.35,59.9,6.16-20.61-32.44Z"/><path d="M400.55,972.56c-7.78,23-14.6,43.2-21.41,63.36l-7.92-1.49c1.29-9,2.58-18,4.18-29.25L350,996.07,335,1020.7l-6.92-2.72,19.46-60.21c8,13,12.09,26.45,20.94,31.3C373.48,991.82,386.27,980.35,400.55,972.56Z"/><path d="M413.87,54.42c11.54,19.17,23.09,38.34,38.18,63.39-16.59-8-26.7-17-36.11-16.28-8,.58-15.13,12.28-28.66,24.47,7.36-27.75,13-49,18.65-70.31Z"/><path d="M157.84,883.8l70.47-24.61c-11.82,27.9-20.78,49-29.74,70.16C193.32,889.72,193.32,889.72,157.84,883.8Z"/><path d="M786.15,857.6l-43.5-59.89,74.55,8.35c-16.38,13.89-52.94,13-18,53.29Z"/><path d="M815.35,255.91c.73,15.67,4.89,32.3.82,46.6-2.22,7.84-19.73,17.92-27.85,16.07-14.49-3.32-27.09-14.92-40.48-23.05l1.92-10.12,54.76-30.84Zm-10.63,12-40.6,22.65c8.07,18.21,19,24.17,33.93,15.71C811.73,298.52,816.92,286.83,804.72,267.89Z"/><path d="M275.47,904.5l-18.54,72.86-5-1.33c-3.16-10.34-3.41-24.12-10.34-30-6-5-19.58-1-32.38-5.48Z"/><path d="M803,670.73c12.31,36.16,34.12,37.7,63,13.34q-.22,5.92-.46,11.84c-9.5,6.28-19,12.55-29.29,19.33l17,12.6-2.91,7.1-60.78-19.27,1.41-7.11,20.64-1.18L798.4,677.11Z"/><path d="M417.35,978.8c0,7.74.4,15.51-.09,23.23-.85,13.62-5.41,31,13.72,32.38,5.21.39,12.81-19.51,17.64-30.81,2.78-6.49,2.21-14.41,7.25-21.37,8.13,19,6.18,38.77-5.42,54.46-4.74,6.41-24.22,9.68-31.21,5.25-25.84-16.38-9.89-41.16-10-62.74Z"/><path d="M190.47,173.82c-10.9,15.2-27.78,30.35-7.65,48.27,12.31,11,25.18,8.65,37.28-5.31l-10.4-20.37,4.53-3.94c6.16,6.71,16.89,13.2,17.22,20.18.33,7.14-8.16,18.8-15.26,21.22-11,3.75-27.34,6-35.48.33-9.24-6.43-16.41-22.35-16.17-34,.22-10.33,11.79-20.43,18.35-30.63Z"/><path d="M129.34,706.1l-15.47-23-8.75,25.37-24.63-9.81q-3,11.07-6,22.13l-5.09,1.39c-1.53-9.5-6.4-26.27-4.06-27.35,17.62-8.09,36.39-14.73,55.45-17.74,4-.63,10.69,15.61,16.14,24.08Z"/><path d="M631.9,931.93l-22.28,24,27.85,3c-2.13,8-4.37,16.33-6.61,24.68l28.29,3.81-27.8,19.13C623,992.53,616,981,609.18,969.33,594.6,944.5,595.37,942.82,631.9,931.93Z"/><path d="M123.15,309.42c3.51,7.35,7.09,14.84,10.66,22.33l24.26-15.08c-5.18,12.51-8.83,21.35-13.67,33.06L82.69,321.19,98.16,289.4c2.72,12.54,4.47,20.65,6.23,28.76Z"/><path d="M862.25,390.64c-8.21-17.47-15.31-36.82-38.68-29.26-24.94,8.07-18.15,28.6-8.8,52.91-21.47-17.08-25.85-34.21-13.64-48.12,8.52-9.71,26.72-17.72,38.93-15.81C858.5,353.25,869.21,369,862.25,390.64Z"/><path d="M83.15,740l12.47,17.67c20.29-5.26,11.93-44,41.2-33.8,6.49,2.26,10.19,12.56,11,22.5l-17.08-12.71c-15.66,9.85-9.93,43.41-38.21,33.72-7.56-2.58-11.67-15.24-17.36-23.27Z"/><path d="M158.06,306.65l6.16-23c-18-7.6-41.45,16.89-51-11-2.29-6.72,4.38-16.51,6.93-24.89l8,3c-2,6.39-4.1,12.79-6.42,20,18,8.94,42.89-17.72,52.51,11.33,2.49,7.51-5.37,18.45-8.48,27.82Z"/><path d="M501.51,980.7l-18.1,10.78c9.94,12.66,25.57,23.63,26.53,35.76,1.72,21.76-15.67,21.27-34.61,15.89,29.23-11.19,28.71-11.19,8.3-31-5.58-5.41-10.19-17.59-7.81-23.84,2.53-6.65,13.88-9.94,21.38-14.7C498.64,976,500.08,978.32,501.51,980.7Z"/><path d="M156.39,758.57,180,801.47c-29.74-26-47,17-71.39,11.34C115.66,788.4,162.05,798.3,150,760Z"/></svg>